<?xml version="1.0" standalone="no"?>
<!DOCTYPE svg PUBLIC "-//W3C//DTD SVG 1.1//EN" "http://www.w3.org/Graphics/SVG/1.1/DTD/svg11.dtd" >
<svg>
<metadata>
Created by FontForge 20120731 at Sat Jun 29 17:07:17 2019
 By www
Copyright (c) 2013 by Parachute Worldwide. All rights reserved.
</metadata>
<defs>
<font id="PFDinTextUniversal-Medium" horiz-adv-x="494" >
  <font-face 
    font-family="PF Din Text Universal"
    font-weight="500"
    font-stretch="normal"
    units-per-em="1000"
    panose-1="2 0 5 6 2 0 0 2 0 4"
    ascent="782"
    descent="-218"
    x-height="495"
    cap-height="696"
    bbox="-403 -452 1760 974"
    underline-thickness="60"
    underline-position="-115"
    unicode-range="U+000D-FEFC"
  />
<missing-glyph horiz-adv-x="450" 
d="M450 0h-450v700h450v-700zM225 283l-116 -210h232zM108 627l117 -209l116 209h-233zM184 351l-111 203v-407zM377 554l-111 -205l111 -202v407z" />
    <glyph glyph-name="fj" unicode="fj" horiz-adv-x="526" 
d="M21 404v91h58v70q0 87 52 130t143 43q116 0 178 -69l-68 -76q-39 44 -110 44q-82 0 -82 -75v-67h263v-554q0 -66 -40.5 -104t-111.5 -38h-45v100h28q56 2 56 59v446h-150v-404h-113v404h-58z" />
    <glyph glyph-name="ffj" unicode="ffj" horiz-adv-x="793" 
d="M342 404h-151v-404h-113v404h-58v91h58v50q0 87 52 130t143 43q70 0 119 -25q52 45 145 45q115 0 177 -69l-67 -76q-41 44 -111 44q-81 0 -81 -75v-67h263v-554q0 -66 -40.5 -104t-112.5 -38h-45v100h28q57 1 57 59v446h-150v-404h-113v404zM191 542v-47h151v70
q0 19 3 36q-31 16 -72 16q-82 0 -82 -75z" />
    <glyph glyph-name="ff" unicode="ff" horiz-adv-x="571" 
d="M484 738h79v-98h-61q-46 0 -46 -52v-93h100v-91h-100v-404h-113v404h-150v-404h-112v404h-59v91h59v51q0 87 52 132.5t142 45.5q61 0 109 -20q37 34 100 34zM193 549v-54h150v91q0 18 1 23q-31 14 -69 14q-82 0 -82 -74z" />
    <glyph glyph-name="fi" unicode="fi" horiz-adv-x="526" 
d="M21 404v91h58v70q0 87 52 130t143 43q116 0 178 -69l-68 -76q-39 44 -110 44q-82 0 -82 -75v-67h263v-495h-113v404h-150v-404h-113v404h-58z" />
    <glyph glyph-name="fl" unicode="fl" horiz-adv-x="548" 
d="M528 100v-100h-43q-138 0 -138 131v490q-36 13 -73 13q-82 0 -82 -75v-64h103v-91h-103v-404h-113v404h-58v91h58v67q0 87 50 129.5t140 42.5t190 -38l1 -548q0 -48 48 -48h20z" />
    <glyph glyph-name="ffi" unicode="ffi" horiz-adv-x="788" 
d="M343 404h-151v-404h-113v404h-58v91h58v50q0 87 52 130t143 43q70 0 119 -25q53 45 145 45q116 0 177 -69l-67 -76q-41 44 -111 44q-81 0 -81 -75v-67h263v-495h-113v404h-150v-404h-113v404zM192 542v-47h151v70q0 19 3 36q-31 16 -72 16q-82 0 -82 -75z" />
    <glyph glyph-name="ffl" unicode="ffl" horiz-adv-x="807" 
d="M537 737q79 0 181 -39l1 -550q0 -48 48 -48h20v-100h-43q-138 0 -138 131v492q-42 14 -69 14q-82 0 -82 -75v-67h98v-91h-98v-404h-112v404h-151v-404h-113v404h-58v91h58v50q0 87 52 129.5t143 42.5q70 0 119 -25q51 45 144 45zM273 617q-77 0 -81 -67v-55h151v70
q0 22 2 36q-29 16 -72 16z" />
    <glyph glyph-name="ft" unicode="ft" horiz-adv-x="561" 
d="M528 496v-92h-74v-248q0 -57 46 -57h37v-99h-68q-58 0 -93 33.5t-35 91.5v279h-149v-404h-113v404h-58v91h58v96q0 65 38.5 101t102.5 36h73v-98h-55q-46 0 -46 -52v-83h150v131h111v-130h75z" />
    <glyph glyph-name="uniFDF2" unicode="&#xfedf;&#xfee0;&#xfeea;" horiz-adv-x="1066" arabic-form="isolated" 
d="M821 113q84 0 84 103v510h103v-548q0 -85 -48.5 -131.5t-131.5 -46.5q-93 0 -143 59q-50 -59 -144 -59q-119 0 -160 77q-61 -46 -143 -46q-88 0 -134 42t-46 118q0 36 13.5 70.5t45 71t95.5 64t153 38.5v43h105v-285q0 -37 20 -59t61 -22q40 0 62 26.5t22 69.5v418h103
v-412q0 -101 83 -101zM168 205q0 -30 20.5 -48t56.5 -18q59 0 90 28.5t31 94.5v71q-123 -14 -165 -59q-33 -36 -33 -69z" />
    <glyph glyph-name="uniFDFC" unicode="&#x631;&#xfef3;&#xfe8e;&#x644;" horiz-adv-x="1157" arabic-form="isolated" 
d="M807 209v243h103v-266q0 -89 -50 -137.5t-138 -48.5q-80 0 -128 46.5t-48 129.5v550h103v-517q0 -96 78 -96q39 0 59.5 26t20.5 70zM795 -73v-94h-90v94h90zM674 -73v-94h-91v94h91zM367 626h103v-633q0 -88 -55 -143q-56 -56 -152 -56q-97 0 -151 51t-54 138v299h103
v-267q0 -50 25.5 -79t77.5 -29q51 0 77 31t26 82v606zM871 -206v112q67 0 96 27.5t29 83.5v370h103v-376q0 -114 -52.5 -165t-175.5 -52z" />
    <glyph glyph-name="uni06440622" unicode="&#xfedf;&#xfe82;" horiz-adv-x="508" arabic-form="isolated" 
d="M347 726h103v-504q0 -121 -59 -175t-154 -54q-113 0 -187 83l74 87q50 -54 110 -54q113 0 113 125v492zM115 208v488h103v-488h-103zM143 772l-14 -6l-70 -38v72l91 52h14q11 -27 23.5 -36t39.5 -9h76v-62h-76q-37 0 -54.5 5t-29.5 22z" />
    <glyph glyph-name="uni06440622.fina" unicode="&#xfee0;&#xfe82;" horiz-adv-x="533" arabic-form="final" 
d="M115 208v488h103v-488h-103zM241 -6q-119 0 -191 82l73 86q48 -53 111 -53q58 0 85.5 29.5t27.5 95.5v492h103v-528q0 -86 83 -86v-112q-99 0 -130 60q-26 -32 -70.5 -49t-91.5 -17zM143 772l-14 -6l-70 -38v72l91 52h14q11 -27 23.5 -36t39.5 -9h76v-62h-76
q-37 0 -54.5 5t-29.5 22z" />
    <glyph glyph-name="uni06440623" unicode="&#xfedf;&#xfe84;" horiz-adv-x="508" arabic-form="isolated" 
d="M212 935q49 0 87 -26l-26 -51q-30 18 -63 18q-21 0 -34 -11t-13 -27q0 -35 41 -35h94v-58h-229v58h37l2 2q-10 13 -10 35q0 38 30 66.5t84 28.5zM347 726h103v-504q0 -121 -59 -175t-154 -54q-113 0 -187 83l74 87q50 -54 110 -54q113 0 113 125v492zM115 208v488h103
v-488h-103z" />
    <glyph glyph-name="uni06440623.fina" unicode="&#xfee0;&#xfe84;" horiz-adv-x="533" arabic-form="final" 
d="M115 208v488h103v-488h-103zM241 -6q-119 0 -191 82l73 86q48 -53 111 -53q58 0 85.5 29.5t27.5 95.5v492h103v-528q0 -86 83 -86v-112q-99 0 -130 60q-26 -32 -70.5 -49t-91.5 -17zM212 935q49 0 87 -26l-26 -51q-30 18 -63 18q-21 0 -34 -11t-13 -27q0 -35 41 -35h94
v-58h-229v58h37l2 2q-10 13 -10 35q0 38 30 66.5t84 28.5z" />
    <glyph glyph-name="uni06440625" unicode="&#xfedf;&#xfe88;" horiz-adv-x="508" arabic-form="isolated" 
d="M212 -82q49 0 87 -26l-26 -51q-30 18 -63 18q-21 0 -34 -11t-13 -27q0 -35 41 -35h94v-58h-229v58h37l2 2q-10 13 -10 35q0 38 30 66.5t84 28.5zM347 726h103v-504q0 -121 -59 -175t-154 -54q-113 0 -187 83l74 87q50 -54 110 -54q113 0 113 125v492zM115 208v488h103
v-488h-103z" />
    <glyph glyph-name="uni06440625.fina" unicode="&#xfee0;&#xfe88;" horiz-adv-x="533" arabic-form="final" 
d="M115 208v488h103v-488h-103zM241 -6q-119 0 -191 82l73 86q48 -53 111 -53q58 0 85.5 29.5t27.5 95.5v492h103v-528q0 -86 83 -86v-112q-99 0 -130 60q-26 -32 -70.5 -49t-91.5 -17zM212 -82q49 0 87 -26l-26 -51q-30 18 -63 18q-21 0 -34 -11t-13 -27q0 -35 41 -35h94
v-58h-229v58h37l2 2q-10 13 -10 35q0 38 30 66.5t84 28.5z" />
    <glyph glyph-name="uni06440627" unicode="&#xfedf;&#xfe8e;" horiz-adv-x="508" arabic-form="isolated" 
d="M347 726h103v-504q0 -121 -59 -175t-154 -54q-113 0 -187 83l74 87q50 -54 110 -54q113 0 113 125v492zM115 208v488h103v-488h-103z" />
    <glyph glyph-name="uni06440627.fina" unicode="&#xfee0;&#xfe8e;" horiz-adv-x="533" arabic-form="final" 
d="M115 208v488h103v-488h-103zM241 -6q-119 0 -191 82l73 86q48 -53 111 -53q58 0 85.5 29.5t27.5 95.5v492h103v-528q0 -86 83 -86v-112q-99 0 -130 60q-26 -32 -70.5 -49t-91.5 -17z" />
    <glyph glyph-name="uni06440671" unicode="&#xfedf;&#xfb51;" horiz-adv-x="508" 
d="M347 726h103v-504q0 -121 -59 -175t-154 -54q-113 0 -187 83l74 87q50 -54 110 -54q113 0 113 125v492zM115 208v488h103v-488h-103zM243 859q-24 0 -40 -16.5t-16 -40.5h91v24q0 15 -10 24t-25 9zM337 846v-101h-218q-43 0 -59 34l-37 -35h-4v68l46 46h8q16 -55 46 -55
h8v113h60v-31h3q31 31 73 31q32 0 53 -18.5t21 -51.5z" />
    <glyph glyph-name="uni06440671.fina" unicode="&#xfee0;&#xfb51;" horiz-adv-x="533" 
d="M115 208v488h103v-488h-103zM241 -6q-119 0 -191 82l73 86q48 -53 111 -53q58 0 85.5 29.5t27.5 95.5v492h103v-528q0 -86 83 -86v-112q-99 0 -130 60q-26 -32 -70.5 -49t-91.5 -17zM243 859q-24 0 -40 -16.5t-16 -40.5h91v24q0 15 -10 24t-25 9zM337 846v-101h-218
q-43 0 -59 34l-37 -35h-4v68l46 46h8q16 -55 46 -55h8v113h60v-31h3q31 31 73 31q32 0 53 -18.5t21 -51.5z" />
    <glyph glyph-name="uni0621" unicode="&#x621;" horiz-adv-x="527" arabic-form="isolated" 
d="M239 162q0 -29 21 -44.5t55 -15.5h138v-102h-395v102h90q1 1 1 2q-15 27 -15 63q0 64 44 111q45 48 140 48q36 0 78.5 -14.5t72.5 -37.5l-47 -86q-51 39 -104 39q-35 0 -57 -19t-22 -46z" />
    <glyph glyph-name="uni0622" unicode="&#x622;" horiz-adv-x="219" arabic-form="isolated" 
d="M71 747l-14 -6l-70 -38v72l91 52h14q11 -27 23.5 -36t39.5 -9h76v-62h-76q-37 0 -54.5 5t-29.5 22zM58 0v676h103v-676h-103z" />
    <glyph glyph-name="uni0623" unicode="&#x623;" horiz-adv-x="219" arabic-form="isolated" 
d="M137 930q49 0 87 -26l-26 -51q-30 18 -63 18q-21 0 -34 -11t-13 -27q0 -35 41 -35h94v-58h-229v58h37l2 2q-10 13 -10 35q0 38 30 66.5t84 28.5zM58 0v676h103v-676h-103z" />
    <glyph glyph-name="uni0624" unicode="&#x624;" horiz-adv-x="541" arabic-form="isolated" 
d="M483 242v-225q0 -117 -61 -178t-175 -61h-146v113h140q131 0 131 114v23q-3 1 -6 4q-39 -30 -98 -30q-102 0 -156 59t-54 173t58 179t163 65q97 0 150.5 -60.5t53.5 -175.5zM274 365q-53 0 -81.5 -34.5t-28.5 -95.5q0 -58 27 -91.5t77 -33.5q109 0 109 132q0 59 -27.5 91
t-75.5 32zM291 745q49 0 87 -26l-26 -51q-30 18 -63 18q-21 0 -34 -11t-13 -27q0 -35 41 -35h94v-58h-229v58h37l2 2q-10 13 -10 35q0 38 30 66.5t84 28.5z" />
    <glyph glyph-name="uni0625" unicode="&#x625;" horiz-adv-x="219" arabic-form="isolated" 
d="M137 -82q49 0 87 -26l-26 -51q-30 18 -63 18q-21 0 -34 -11t-13 -27q0 -35 41 -35h94v-58h-229v58h37l2 2q-10 13 -10 35q0 38 30 66.5t84 28.5zM58 0v726h103v-726h-103z" />
    <glyph glyph-name="uni0626" unicode="&#x626;" horiz-adv-x="864" arabic-form="isolated" 
d="M202 621q49 0 87 -26l-26 -51q-30 18 -63 18q-21 0 -34 -11t-13 -27q0 -35 41 -35h94v-58h-229v58h37l2 2q-10 13 -10 35q0 38 30 66.5t84 28.5zM806 478v-396h-104v282h-55q-36 0 -51.5 -20.5t-15.5 -62.5v-281h-257q-265 0 -265 252v103h103v-72q0 -91 39 -131t144 -40
h132v187q0 86 47 132.5t129 46.5h154z" />
    <glyph glyph-name="uni0627" unicode="&#x627;" horiz-adv-x="219" arabic-form="isolated" 
d="M58 0v726h103v-726h-103z" />
    <glyph glyph-name="uni0628" unicode="&#x628;" horiz-adv-x="758" arabic-form="isolated" 
d="M597 198v191h103v-211q0 -87 -45 -132.5t-130 -45.5h-202q-265 0 -265 252v103h103v-72q0 -88 35.5 -129.5t120.5 -41.5h208q40 0 56 21.5t16 64.5zM438 -82v-91h-91v91h91z" />
    <glyph glyph-name="uni0629" unicode="&#x629;" horiz-adv-x="545" arabic-form="isolated" 
d="M279 477q82 0 145 -76q63 -75 63 -189q0 -103 -56 -160.5t-158 -57.5q-112 0 -163.5 53.5t-51.5 162.5q0 110 65 189q66 78 156 78zM277 367q-45 0 -77 -45q-32 -44 -32 -104q0 -58 26 -85t82 -27q52 0 78.5 31t26.5 82q0 63 -33 105q-33 43 -71 43zM378 646v-91h-91v91
h91zM256 646v-91h-90v91h90z" />
    <glyph glyph-name="uni062A" unicode="&#x62a;" horiz-adv-x="758" arabic-form="isolated" 
d="M597 198v191h103v-211q0 -87 -45 -132.5t-130 -45.5h-202q-265 0 -265 252v103h103v-72q0 -88 35.5 -129.5t120.5 -41.5h208q40 0 56 21.5t16 64.5zM494 541v-91h-91v91h91zM372 541v-91h-90v91h90z" />
    <glyph glyph-name="uni062B" unicode="&#x62b;" horiz-adv-x="758" arabic-form="isolated" 
d="M597 198v191h103v-211q0 -87 -45 -132.5t-130 -45.5h-202q-265 0 -265 252v103h103v-72q0 -88 35.5 -129.5t120.5 -41.5h208q40 0 56 21.5t16 64.5zM494 541v-91h-91v91h91zM372 541v-91h-90v91h90zM433 669v-92h-91v92h91z" />
    <glyph glyph-name="uni062C" unicode="&#x62c;" horiz-adv-x="552" arabic-form="isolated" 
d="M150 331l-44 90q82 57 176 57q174 0 194 -200q3 -42 8 -81q10 -68 43 -83v-114h-262q-49 0 -75 -24t-26 -64q0 -82 119 -82q38 0 70 7l15 -102q-40 -12 -104 -12q-95 0 -150.5 48t-55.5 137q0 99 64 151q65 53 160 53h120l4 6q-15 13 -22 40q-8 28 -12 72t-9 66
q-15 70 -87 70q-64 0 -126 -35zM443 -31v-91h-91v91h91z" />
    <glyph glyph-name="uni062D" unicode="&#x62d;" horiz-adv-x="552" arabic-form="isolated" 
d="M150 331l-44 90q82 57 176 57q174 0 194 -200q3 -42 8 -81q10 -68 43 -83v-114h-262q-49 0 -75 -24t-26 -64q0 -82 119 -82q38 0 70 7l15 -102q-40 -12 -104 -12q-95 0 -150.5 48t-55.5 137q0 99 64 151q65 53 160 53h120l4 6q-15 13 -22 40q-8 28 -12 72t-9 66
q-15 70 -87 70q-64 0 -126 -35z" />
    <glyph glyph-name="uni062E" unicode="&#x62e;" horiz-adv-x="552" arabic-form="isolated" 
d="M150 331l-44 90q82 57 176 57q174 0 194 -200q3 -42 8 -81q10 -68 43 -83v-114h-262q-49 0 -75 -24t-26 -64q0 -82 119 -82q38 0 70 7l15 -102q-40 -12 -104 -12q-95 0 -150.5 48t-55.5 137q0 99 64 151q65 53 160 53h120l4 6q-15 13 -22 40q-8 28 -12 72t-9 66
q-15 70 -87 70q-64 0 -126 -35zM340 646v-91h-91v91h91z" />
    <glyph glyph-name="uni062F" unicode="&#x62f;" horiz-adv-x="507" arabic-form="isolated" 
d="M58 112h287v156q0 99 -96 99q-74 0 -125 -39l-55 88q73 61 185 61q195 0 195 -184v-293h-391v112z" />
    <glyph glyph-name="uni0630" unicode="&#x630;" horiz-adv-x="507" arabic-form="isolated" 
d="M58 112h287v156q0 99 -96 99q-74 0 -125 -39l-55 88q73 61 185 61q195 0 195 -184v-293h-391v112zM286 646v-91h-91v91h91z" />
    <glyph glyph-name="uni0631" unicode="&#x631;" horiz-adv-x="228" arabic-form="isolated" 
d="M-54 -206v110q65 1 93 28.5t28 87.5v370h103v-379q0 -110 -53 -163t-171 -54z" />
    <glyph glyph-name="uni0632" unicode="&#x632;" horiz-adv-x="228" arabic-form="isolated" 
d="M-54 -206v110q65 1 93 28.5t28 87.5v370h103v-379q0 -110 -53 -163t-171 -54zM160 561v-91h-91v91h91z" />
    <glyph glyph-name="uni0633" unicode="&#x633;" horiz-adv-x="1005" arabic-form="isolated" 
d="M629 57h-4q-45 -57 -129 -57h-31v-10q0 -88 -58 -142q-59 -54 -146 -54q-95 0 -149 51t-54 138v302h103v-273q0 -48 25.5 -77t75.5 -29q49 0 74.5 29t25.5 77v378h103v-278h31q42 0 64.5 28t22.5 77v173h103v-188q0 -49 20 -76t57 -27q38 0 57.5 27.5t19.5 76.5
q0 59 -27 128q-25 68 -63 109l85 63q41 -47 77 -131q35 -81 35 -171q0 -89 -44 -151q-43 -60 -134 -60q-94 0 -140 67z" />
    <glyph glyph-name="uni0634" unicode="&#x634;" horiz-adv-x="1005" arabic-form="isolated" 
d="M629 57h-4q-45 -57 -129 -57h-31v-10q0 -88 -58 -142q-59 -54 -146 -54q-95 0 -149 51t-54 138v302h103v-273q0 -48 25.5 -77t75.5 -29q49 0 74.5 29t25.5 77v378h103v-278h31q42 0 64.5 28t22.5 77v173h103v-188q0 -49 20 -76t57 -27q38 0 57.5 27.5t19.5 76.5
q0 59 -27 128q-25 68 -63 109l85 63q41 -47 77 -131q35 -81 35 -171q0 -89 -44 -151q-43 -60 -134 -60q-94 0 -140 67zM733 621v-91h-91v91h91zM611 621v-91h-90v91h90zM672 749v-92h-91v92h91z" />
    <glyph glyph-name="uni0635" unicode="&#x635;" horiz-adv-x="963" arabic-form="isolated" 
d="M264 -95q54 0 79.5 30t25.5 82v440h102v-88h7q45 51 106 80t123 29q95 0 146.5 -49.5t51.5 -138.5v-290h-433v-10q0 -84 -57 -140q-58 -56 -152 -56q-99 0 -152 52.5t-53 142.5v296h103v-268q0 -112 103 -112zM471 143v-31h330v137q0 115 -113 115q-96 0 -157 -69
q-60 -67 -60 -152z" />
    <glyph glyph-name="uni0636" unicode="&#x636;" horiz-adv-x="963" arabic-form="isolated" 
d="M264 -95q54 0 79.5 30t25.5 82v440h102v-88h7q45 51 106 80t123 29q95 0 146.5 -49.5t51.5 -138.5v-290h-433v-10q0 -84 -57 -140q-58 -56 -152 -56q-99 0 -152 52.5t-53 142.5v296h103v-268q0 -112 103 -112zM471 143v-31h330v137q0 115 -113 115q-96 0 -157 -69
q-60 -67 -60 -152zM715 646v-91h-91v91h91z" />
    <glyph glyph-name="uni0637" unicode="&#x637;" horiz-adv-x="771" arabic-form="isolated" 
d="M713 0h-663v112h126v614h103v-357h6q46 51 107 80t123 29q95 0 146.5 -49.5t51.5 -138.5v-290zM279 143v-31h330v137q0 115 -114 115q-96 0 -156 -69q-60 -67 -60 -152z" />
    <glyph glyph-name="uni0638" unicode="&#x638;" horiz-adv-x="771" arabic-form="isolated" 
d="M713 0h-663v112h126v614h103v-357h6q46 51 107 80t123 29q95 0 146.5 -49.5t51.5 -138.5v-290zM279 143v-31h330v137q0 115 -114 115q-96 0 -156 -69q-60 -67 -60 -152zM555 646v-91h-91v91h91z" />
    <glyph glyph-name="uni0639" unicode="&#x639;" horiz-adv-x="541" arabic-form="isolated" 
d="M480 430l-53 -96q-43 30 -105 30q-56 0 -89.5 -33t-33.5 -94q0 -55 32.5 -90t98.5 -35h153v-112h-218q-45 0 -72 -24.5t-27 -61.5q0 -84 120 -84q54 0 112 15l23 -103q-66 -20 -146 -20q-103 0 -160 46.5t-57 133.5q0 61 29 106.5t78 67.5v5q-76 43 -76 161q0 103 62 170
q63 66 171 66q92 0 158 -48z" />
    <glyph glyph-name="uni063A" unicode="&#x63a;" horiz-adv-x="541" arabic-form="isolated" 
d="M480 430l-53 -96q-43 30 -105 30q-56 0 -89.5 -33t-33.5 -94q0 -55 32.5 -90t98.5 -35h153v-112h-218q-45 0 -72 -24.5t-27 -61.5q0 -84 120 -84q54 0 112 15l23 -103q-66 -20 -146 -20q-103 0 -160 46.5t-57 133.5q0 61 29 106.5t78 67.5v5q-76 43 -76 161q0 103 62 170
q63 66 171 66q92 0 158 -48zM344 646v-91h-91v91h91z" />
    <glyph glyph-name="uni0641" unicode="&#x641;" horiz-adv-x="854" arabic-form="isolated" 
d="M164 355v-72q0 -87 35.5 -129t117.5 -42h71q49 0 70 -4v3l1 2q-81 36 -81 156q0 90 56 149q56 60 151 60q103 0 157 -61.5t54 -175.5q0 -117 -59.5 -179t-166.5 -62h-241q-199 0 -252 144q-19 51 -19 175v36h106zM587 367q-49 0 -76 -32t-27 -79q0 -55 42 -89.5
t113 -42.5q51 34 51 124q0 119 -103 119zM630 646v-91h-91v91h91z" />
    <glyph glyph-name="uni0642" unicode="&#x642;" horiz-adv-x="727" arabic-form="isolated" 
d="M669 242v-183q0 -137 -76 -209t-223 -72q-312 0 -312 291v216h103v-151q0 -88 17 -138q17 -52 61.5 -77t131.5 -29q183 0 188 138l-7 4q-39 -30 -98 -30q-102 0 -156 59t-54 173t58 179t163 65q97 0 150.5 -60.5t53.5 -175.5zM460 365q-53 0 -82 -34.5t-29 -95.5
q0 -58 27.5 -91.5t77.5 -33.5q109 0 109 132q0 59 -27.5 91t-75.5 32zM563 646v-91h-91v91h91zM441 646v-91h-90v91h90z" />
    <glyph glyph-name="uni0643" unicode="&#x643;" horiz-adv-x="768" arabic-form="isolated" 
d="M608 198v528h102v-548q0 -87 -45 -132.5t-130 -45.5h-204q-138 0 -205.5 65.5t-67.5 186.5v103h103v-72q0 -90 36.5 -130.5t127.5 -40.5h210q40 0 56.5 22t16.5 64zM414 496q49 0 87 -26l-26 -51q-30 18 -63 18q-21 0 -34 -11t-13 -27q0 -35 41 -35h94v-58h-229v58h37
l2 2q-10 13 -10 35q0 38 30 66.5t84 28.5z" />
    <glyph glyph-name="uni0644" unicode="&#x644;" horiz-adv-x="530" arabic-form="isolated" 
d="M369 726h103v-729q0 -88 -56 -146q-56 -57 -153 -57q-98 0 -151.5 53t-53.5 143v295h103v-266q0 -52 25.5 -83t77.5 -31q105 0 105 114v707z" />
    <glyph glyph-name="uni0645" unicode="&#x645;" horiz-adv-x="742" arabic-form="isolated" 
d="M161 -85v-187h-103v190q0 100 50.5 147t156.5 47v129q0 114 55 175.5t153 61.5q104 0 157.5 -63.5t53.5 -182.5q0 -125 -60 -178.5t-189 -53.5h-177q-52 0 -74.5 -21t-22.5 -64zM368 233v-124h103q108 0 108 124q0 132 -105 132q-106 0 -106 -132z" />
    <glyph glyph-name="uni0646" unicode="&#x646;" horiz-adv-x="530" arabic-form="isolated" 
d="M369 390h103v-393q0 -88 -56 -146q-56 -57 -153 -57q-98 0 -151.5 53t-53.5 143v295h103v-266q0 -52 25.5 -83t77.5 -31q105 0 105 114v371zM312 541v-91h-91v91h91z" />
    <glyph glyph-name="uni0648" unicode="&#x648;" horiz-adv-x="541" arabic-form="isolated" 
d="M483 242v-225q0 -117 -61 -178t-175 -61h-146v113h140q131 0 131 114v23q-3 1 -6 4q-39 -30 -98 -30q-102 0 -156 59t-54 173t58 179t163 65q97 0 150.5 -60.5t53.5 -175.5zM274 365q-53 0 -81.5 -34.5t-28.5 -95.5q0 -58 27 -91.5t77 -33.5q109 0 109 132q0 59 -27.5 91
t-75.5 32z" />
    <glyph glyph-name="uni0649" unicode="&#x649;" horiz-adv-x="864" arabic-form="isolated" 
d="M806 478v-396h-104v282h-55q-36 0 -51.5 -20.5t-15.5 -62.5v-281h-257q-265 0 -265 252v103h103v-72q0 -91 39 -131t144 -40h132v187q0 86 47 132.5t129 46.5h154z" />
    <glyph glyph-name="uni064A" unicode="&#x64a;" horiz-adv-x="864" arabic-form="isolated" 
d="M806 478v-396h-104v282h-55q-36 0 -51.5 -20.5t-15.5 -62.5v-281h-257q-265 0 -265 252v103h103v-72q0 -91 39 -131t144 -40h132v187q0 86 47 132.5t129 46.5h154zM496 -82v-91h-91v91h91zM374 -82v-91h-90v91h90z" />
    <glyph glyph-name="uni066E.init" unicode="&#x66e;" horiz-adv-x="229" 
d="M68 211v244h103v-252q0 -203 -171 -203q-24 0 -40.5 15.5t-16.5 39.5t16.5 40t40.5 17q40 1 54 23.5t14 75.5z" />
    <glyph glyph-name="uni066E.medi" unicode="&#x66e;" horiz-adv-x="249" 
d="M-57 55q0 22 16.5 39.5t40.5 17.5q37 0 54 22t17 70v186h103v-192q0 -45 17 -65t58 -21v-112q-92 0 -121 56q-41 -56 -128 -56q-24 0 -40.5 15.5t-16.5 39.5z" />
    <glyph glyph-name="uni066E.fina" unicode="&#x66e;" horiz-adv-x="778" 
d="M600 199v190h103v-191q0 -44 16.5 -64.5t58.5 -21.5v-112q-93 0 -122 56q-24 -32 -52.5 -44t-77.5 -12h-202q-264 0 -264 252v103h103v-72q0 -89 35 -130t120 -41h207q42 0 58.5 21t16.5 66z" />
    <glyph glyph-name="uni066F.init" unicode="&#x66f;" horiz-adv-x="535" 
d="M251 0h-251q-24 0 -40 15.5t-16 40.5q0 24 15.5 40t40.5 16h75q41 0 62 -4q0 2 1 3v2q-80 41 -80 150q0 94 56 155q56 60 152 60q103 0 157 -61.5t54 -175.5q0 -117 -59.5 -179t-166.5 -62zM371 248q0 57 -26 88t-76 31t-77 -31.5t-27 -79.5q0 -55 41.5 -89t113.5 -42
q51 35 51 123z" />
    <glyph glyph-name="uni066F.medi" unicode="&#x66f;" horiz-adv-x="539" 
d="M-56 56q0 24 15.5 40t40.5 16h67q43 0 58 -3q0 1 0.5 3t0.5 3q-31 22 -49.5 64t-18.5 87q0 94 56 153t153 59q100 0 157 -60t57 -162q0 -37 -12.5 -75.5t-32.5 -62.5l2 -6h101v-112h-539q-24 0 -40 15.5t-16 40.5zM269 368q-49 0 -76.5 -29.5t-27.5 -75.5q0 -55 39 -95
t105 -53q66 43 66 133q0 54 -28.5 87t-77.5 33z" />
    <glyph glyph-name="uni066F.fina" unicode="&#x66f;" horiz-adv-x="723" 
d="M462 112h101v120q0 133 -100 133q-54 0 -84 -34.5t-30 -99.5q0 -119 113 -119zM669 243v-131h54v-112h-59q-12 -104 -88 -163t-206 -59q-177 0 -249 91q-63 80 -63 200v216h103v-185q0 -90 39 -146q45 -64 171 -64q75 0 123.5 29t57.5 84h-81q-227 0 -227 229
q0 117 58 181.5t165 64.5q96 0 149 -60.5t53 -174.5z" />
    <glyph glyph-name="uni0671" unicode="&#x671;" horiz-adv-x="219" arabic-form="isolated" 
d="M58 0v676h103v-676h-103zM174 854q-24 0 -40 -16.5t-16 -40.5h91v24q0 15 -10 24t-25 9zM268 841v-101h-218q-43 0 -59 34l-37 -35h-4v68l46 46h8q16 -55 46 -55h8v113h60v-31h3q31 31 73 31q32 0 53 -18.5t21 -51.5z" />
    <glyph glyph-name="uni0672.fina" unicode="&#x672;" horiz-adv-x="231" 
d="M231 112v-112h-34q-71 0 -104 32.5t-33 108.5v535h103v-505q0 -32 12 -45.5t43 -13.5h13zM262 798v-58h-206q-32 0 -54 34l-35 -35h-4v68q22 24 46 46h8q12 -55 45 -55h12l2 2q-9 14 -9 35q0 39 29 67t83 28q49 0 89 -28l-26 -50q-31 19 -66 19q-21 0 -34 -11t-13 -27
q0 -35 51 -35h82z" />
    <glyph glyph-name="uni0673.fina" unicode="&#x673;" horiz-adv-x="231" 
d="M231 112v-112h-34q-71 0 -104 32.5t-33 108.5v585h103v-555q0 -32 12 -45.5t43 -13.5h13zM262 -214v-58h-206q-32 0 -54 34l-35 -35h-4v68q22 24 46 46h8q12 -55 45 -55h12l2 2q-9 14 -9 35q0 39 29 67t83 28q49 0 89 -28l-26 -50q-31 19 -66 19q-21 0 -34 -11t-13 -27
q0 -35 51 -35h82z" />
    <glyph glyph-name="uni0675.fina" unicode="&#x675;" horiz-adv-x="231" 
d="M192 930q49 0 87 -26l-26 -51q-30 18 -63 18q-21 0 -34 -11t-13 -27q0 -35 41 -35h94v-58h-229v58h37l2 2q-10 13 -10 35q0 38 30 66.5t84 28.5zM231 112v-112h-34q-71 0 -104 32.5t-33 108.5v535h103v-505q0 -32 12 -45.5t43 -13.5h13z" />
    <glyph glyph-name="uni0676.fina" unicode="&#x676;" horiz-adv-x="541" 
d="M280 478q98 0 150.5 -60t52.5 -175v-131h58v-112h-58q-3 -106 -63 -164t-167 -58h-152v113h149q64 0 93 35q30 34 30 77h-89q-226 0 -226 229q0 117 57.5 181.5t164.5 64.5zM275 112h102v120q0 133 -101 133q-53 0 -83 -34.5t-30 -99.5q0 -119 112 -119zM389 745
q49 0 87 -26l-26 -51q-30 18 -63 18q-21 0 -34 -11t-13 -27q0 -35 41 -35h94v-58h-229v58h37l2 2q-10 13 -10 35q0 38 30 66.5t84 28.5z" />
    <glyph glyph-name="uni0677" unicode="&#x677;" horiz-adv-x="541" arabic-form="isolated" 
d="M483 242v-225q0 -117 -61 -178t-175 -61h-146v113h140q131 0 131 114v23q-3 1 -6 4q-39 -30 -98 -30q-102 0 -156 59t-54 173t58 179t163 65q97 0 150.5 -60.5t53.5 -175.5zM274 365q-53 0 -81.5 -34.5t-28.5 -95.5q0 -58 27 -91.5t77 -33.5q109 0 109 132q0 59 -27.5 91
t-75.5 32zM409 745q49 0 87 -26l-26 -51q-30 18 -63 18q-21 0 -34 -11t-13 -27q0 -35 41 -35h94v-58h-229v58h37l2 2q-10 13 -10 35q0 38 30 66.5t84 28.5zM37 611l90 27l1 3q-22 16 -22 47q0 28 19.5 48.5t49.5 20.5q34 0 55 -22.5t21 -55.5q0 -29 -18 -52.5t-51 -32.5
l-145 -40v57z" />
    <glyph glyph-name="uni0678.init" unicode="&#x678;" horiz-adv-x="229" 
d="M68 211v244h103v-252q0 -203 -171 -203q-24 0 -40.5 15.5t-16.5 39.5t16.5 40t40.5 17q40 1 54 23.5t14 75.5zM142 720q49 0 87 -26l-26 -51q-30 18 -63 18q-21 0 -34 -11t-13 -27q0 -35 41 -35h94v-58h-229v58h37l2 2q-10 13 -10 35q0 38 30 66.5t84 28.5z" />
    <glyph glyph-name="uni0678.medi" unicode="&#x678;" horiz-adv-x="249" 
d="M-57 55q0 22 16.5 39.5t40.5 17.5q37 0 54 22t17 70v186h103v-192q0 -45 17 -65t58 -21v-112q-92 0 -121 56q-41 -56 -128 -56q-24 0 -40.5 15.5t-16.5 39.5zM152 660q49 0 87 -26l-26 -51q-30 18 -63 18q-21 0 -34 -11t-13 -27q0 -35 41 -35h94v-58h-229v58h37l2 2
q-10 13 -10 35q0 38 30 66.5t84 28.5z" />
    <glyph glyph-name="uni0678.fina" unicode="&#x678;" horiz-adv-x="864" 
d="M708 745q49 0 87 -26l-26 -51q-30 18 -63 18q-21 0 -34 -11t-13 -27q0 -35 41 -35h94v-58h-229v58h37l2 2q-10 13 -10 35q0 38 30 66.5t84 28.5zM580 281v-281h-257q-265 0 -265 252v103h103v-72q0 -88 35.5 -129.5t120.5 -41.5h159v187q0 86 47 132.5t129 46.5h154v-366
h58v-112h-162v364h-55q-36 0 -51.5 -20.5t-15.5 -62.5z" />
    <glyph glyph-name="uni0679" unicode="&#x679;" horiz-adv-x="758" arabic-form="isolated" 
d="M597 198v191h103v-211q0 -87 -45 -132.5t-130 -45.5h-202q-265 0 -265 252v103h103v-72q0 -88 35.5 -129.5t120.5 -41.5h208q40 0 56 21.5t16 64.5zM415 560q-22 0 -38 -14.5t-22 -38.5h95v15q0 38 -35 38zM509 547v-97h-252v58h37v137h61v-59h1l2 -1q30 32 76 32
q33 0 54 -18.5t21 -51.5z" />
    <glyph glyph-name="uni067A" unicode="&#x67a;" horiz-adv-x="758" arabic-form="isolated" 
d="M597 198v191h103v-211q0 -87 -45 -132.5t-130 -45.5h-202q-265 0 -265 252v103h103v-72q0 -88 35.5 -129.5t120.5 -41.5h208q40 0 56 21.5t16 64.5zM433 541v-91h-91v91h91zM433 669v-92h-91v92h91z" />
    <glyph glyph-name="uni067B" unicode="&#x67b;" horiz-adv-x="758" arabic-form="isolated" 
d="M597 198v191h103v-211q0 -87 -45 -132.5t-130 -45.5h-202q-265 0 -265 252v103h103v-72q0 -88 35.5 -129.5t120.5 -41.5h208q40 0 56 21.5t16 64.5zM434 -210v-91h-91v91h91zM434 -82v-92h-91v92h91z" />
    <glyph glyph-name="uni067C.init" unicode="&#x67c;" horiz-adv-x="229" 
d="M8 -20q0 4 2 20h-10q-24 0 -40.5 15.5t-16.5 39.5t16.5 40t40.5 17q40 1 54 23.5t14 75.5v244h103v-252q0 -97 -38 -147q45 -26 45 -76q0 -36 -23.5 -60.5t-61.5 -24.5q-35 0 -60 25.5t-25 59.5zM220 621v-91h-91v91h91zM98 621v-91h-90v91h90zM58 -20q0 -15 10 -25.5
t25 -10.5q23 0 31.5 18t-0.5 36t-31 18q-15 0 -25 -10.5t-10 -25.5z" />
    <glyph glyph-name="uni067C.medi" unicode="&#x67c;" horiz-adv-x="249" 
d="M39 -2v4q-16 -2 -39 -2q-24 0 -40.5 15.5t-16.5 39.5q0 22 16.5 39.5t40.5 17.5q37 0 54 22t17 70v186h103v-192q0 -45 17 -65t58 -21v-112q-22 0 -40 3v-5q0 -36 -23.5 -60.5t-61.5 -24.5q-35 0 -60 25.5t-25 59.5zM230 561v-91h-91v91h91zM108 561v-91h-90v91h90z
M89 -2q0 -15 10 -25.5t25 -10.5q23 0 31.5 18t-0.5 36t-31 18q-15 0 -25 -10.5t-10 -25.5z" />
    <glyph glyph-name="uni067C.fina" unicode="&#x67c;" horiz-adv-x="778" 
d="M342 -20q0 4 2 20h-20q-264 0 -264 252v103h103v-72q0 -89 35 -130t120 -41h207q42 0 58.5 21t16.5 66v190h103v-191q0 -44 16.5 -64.5t58.5 -21.5v-112q-93 0 -122 56q-24 -32 -52.5 -44t-77.5 -12h-17q3 -9 3 -20q0 -36 -23.5 -60.5t-61.5 -24.5q-35 0 -60 25.5
t-25 59.5zM514 541v-91h-91v91h91zM392 541v-91h-90v91h90zM392 -20q0 -15 10 -25.5t25 -10.5q17 0 26.5 10t9.5 26q0 12 -6 20h-60q-5 -8 -5 -20z" />
    <glyph glyph-name="uni067D.init" unicode="&#x67d;" horiz-adv-x="229" 
d="M129 657v91h91v-91h-91zM8 657v91h90v-91h-90zM68 530v90h91v-90h-91zM68 211v244h103v-252q0 -203 -171 -203q-24 0 -40.5 15.5t-16.5 39.5t16.5 40t40.5 17q40 1 54 23.5t14 75.5z" />
    <glyph glyph-name="uni067D.medi" unicode="&#x67d;" horiz-adv-x="249" 
d="M-57 55q0 22 16.5 39.5t40.5 17.5q37 0 54 22t17 70v186h103v-192q0 -45 17 -65t58 -21v-112q-92 0 -121 56q-41 -56 -128 -56q-24 0 -40.5 15.5t-16.5 39.5zM139 597v91h91v-91h-91zM18 597v91h90v-91h-90zM78 470v90h91v-90h-91z" />
    <glyph glyph-name="uni067D.fina" unicode="&#x67d;" horiz-adv-x="778" 
d="M600 199v190h103v-191q0 -44 16.5 -64.5t58.5 -21.5v-112q-93 0 -122 56q-24 -32 -52.5 -44t-77.5 -12h-202q-264 0 -264 252v103h103v-72q0 -89 35 -130t120 -41h207q42 0 58.5 21t16.5 66zM423 577v91h91v-91h-91zM302 577v91h90v-91h-90zM362 450v90h91v-90h-91z" />
    <glyph glyph-name="uni067E" unicode="&#x67e;" horiz-adv-x="758" arabic-form="isolated" 
d="M597 198v191h103v-211q0 -87 -45 -132.5t-130 -45.5h-202q-265 0 -265 252v103h103v-72q0 -88 35.5 -129.5t120.5 -41.5h208q40 0 56 21.5t16 64.5zM403 -173v91h91v-91h-91zM282 -173v91h90v-91h-90zM342 -300v90h91v-90h-91z" />
    <glyph glyph-name="uni067F" unicode="&#x67f;" horiz-adv-x="758" arabic-form="isolated" 
d="M597 198v191h103v-211q0 -87 -45 -132.5t-130 -45.5h-202q-265 0 -265 252v103h103v-72q0 -88 35.5 -129.5t120.5 -41.5h208q40 0 56 21.5t16 64.5zM494 541v-91h-91v91h91zM372 541v-91h-90v91h90zM494 669v-92h-91v92h91zM372 669v-92h-90v92h90z" />
    <glyph glyph-name="uni0680" unicode="&#x680;" horiz-adv-x="758" arabic-form="isolated" 
d="M494 -210v-91h-91v91h91zM372 -210v-91h-90v91h90zM494 -82v-92h-91v92h91zM372 -82v-92h-90v92h90zM597 198v191h103v-211q0 -87 -45 -132.5t-130 -45.5h-202q-265 0 -265 252v103h103v-72q0 -88 35.5 -129.5t120.5 -41.5h208q40 0 56 21.5t16 64.5z" />
    <glyph glyph-name="uni0681.init" unicode="&#x681;" horiz-adv-x="505" 
d="M274 745q49 0 87 -26l-26 -51q-30 18 -63 18q-21 0 -34 -11t-13 -27q0 -35 41 -35h94v-58h-229v58h37l2 2q-10 13 -10 35q0 38 30 66.5t84 28.5zM480 0h-480q-24 0 -40 15.5t-16 40.5q0 24 16 40t40 16h355l3 6q-15 13 -22 40q-7 34 -11 71q-5 46 -9 67q-15 70 -88 70
q-64 0 -125 -35l-45 90q82 57 176 57q172 0 193 -185q4 -34 4 -38l8 -65q13 -63 41 -76v-114z" />
    <glyph glyph-name="uni0681.medi" unicode="&#x681;" horiz-adv-x="508" 
d="M274 745q49 0 87 -26l-26 -51q-30 18 -63 18q-21 0 -34 -11t-13 -27q0 -35 41 -35h94v-58h-229v58h37l2 2q-10 13 -10 35q0 38 30 66.5t84 28.5zM234 478q174 0 194 -201q10 -105 26 -135t47 -30h7v-112h-508q-24 0 -40 15.5t-16 40.5q0 24 16 40t40 16h354l4 6
q-20 18 -27 64l-6 49l-5 48q-10 87 -92 87q-64 0 -126 -35l-44 90q82 57 176 57z" />
    <glyph glyph-name="uni0681.fina" unicode="&#x681;" horiz-adv-x="558" 
d="M282 112h122l4 6q-20 18 -27 64l-6 49l-5 48q-10 87 -92 87q-64 0 -126 -35l-44 90q82 57 176 57q174 0 194 -201q10 -105 26 -135t47 -30h7v-112h-293q-49 0 -75 -24t-26 -64q0 -82 119 -82q38 0 70 7l15 -102q-40 -12 -104 -12q-96 0 -151 48t-55 137q0 99 64 151
q65 53 160 53zM274 745q49 0 87 -26l-26 -51q-30 18 -63 18q-21 0 -34 -11t-13 -27q0 -35 41 -35h94v-58h-229v58h37l2 2q-10 13 -10 35q0 38 30 66.5t84 28.5z" />
    <glyph glyph-name="uni0682.init" unicode="&#x682;" horiz-adv-x="505" 
d="M480 0h-480q-24 0 -40 15.5t-16 40.5q0 24 16 40t40 16h355l3 6q-15 13 -22 40q-7 34 -11 71q-5 46 -9 67q-15 70 -88 70q-64 0 -125 -35l-45 90q82 57 176 57q172 0 193 -185q4 -34 4 -38l8 -65q13 -63 41 -76v-114zM298 646v-91h-91v91h91zM298 774v-92h-91v92h91z" />
    <glyph glyph-name="uni0682.medi" unicode="&#x682;" horiz-adv-x="508" 
d="M234 478q174 0 194 -201q10 -105 26 -135t47 -30h7v-112h-508q-24 0 -40 15.5t-16 40.5q0 24 16 40t40 16h354l4 6q-20 18 -27 64l-6 49l-5 48q-10 87 -92 87q-64 0 -126 -35l-44 90q82 57 176 57zM300 646v-91h-91v91h91zM300 774v-92h-91v92h91z" />
    <glyph glyph-name="uni0682.fina" unicode="&#x682;" horiz-adv-x="558" 
d="M282 112h122l4 6q-20 18 -27 64l-6 49l-5 48q-10 87 -92 87q-64 0 -126 -35l-44 90q82 57 176 57q174 0 194 -201q10 -105 26 -135t47 -30h7v-112h-293q-49 0 -75 -24t-26 -64q0 -82 119 -82q38 0 70 7l15 -102q-40 -12 -104 -12q-96 0 -151 48t-55 137q0 99 64 151
q65 53 160 53zM330 646v-91h-91v91h91zM330 774v-92h-91v92h91z" />
    <glyph glyph-name="uni0683" unicode="&#x683;" horiz-adv-x="552" arabic-form="isolated" 
d="M150 331l-44 90q82 57 176 57q174 0 194 -200q3 -42 8 -81q10 -68 43 -83v-114h-262q-49 0 -75 -24t-26 -64q0 -82 119 -82q38 0 70 7l15 -102q-40 -12 -104 -12q-95 0 -150.5 48t-55.5 137q0 99 64 151q65 53 160 53h120l4 6q-15 13 -22 40q-8 28 -12 72t-9 66
q-15 70 -87 70q-64 0 -126 -35zM475 -51v-64h-61v64h61zM398 -51v-64h-62v64h62z" />
    <glyph glyph-name="uni0684" unicode="&#x684;" horiz-adv-x="552" arabic-form="isolated" 
d="M150 331l-44 90q82 57 176 57q174 0 194 -200q3 -42 8 -81q10 -68 43 -83v-114h-262q-49 0 -75 -24t-26 -64q0 -82 119 -82q38 0 70 7l15 -102q-40 -12 -104 -12q-95 0 -150.5 48t-55.5 137q0 99 64 151q65 53 160 53h120l4 6q-15 13 -22 40q-8 28 -12 72t-9 66
q-15 70 -87 70q-64 0 -126 -35zM465 -137v-64h-61v64h61zM465 -54v-66h-61v66h61z" />
    <glyph glyph-name="uni0685.init" unicode="&#x685;" horiz-adv-x="505" 
d="M480 0h-480q-24 0 -40 15.5t-16 40.5q0 24 16 40t40 16h355l3 6q-15 13 -22 40q-7 34 -11 71q-5 46 -9 67q-15 70 -88 70q-64 0 -125 -35l-45 90q82 57 176 57q172 0 193 -185q4 -34 4 -38l8 -65q13 -63 41 -76v-114zM356 646v-91h-91v91h91zM234 646v-91h-90v91h90z
M295 774v-92h-91v92h91z" />
    <glyph glyph-name="uni0685.medi" unicode="&#x685;" horiz-adv-x="508" 
d="M234 478q174 0 194 -201q10 -105 26 -135t47 -30h7v-112h-508q-24 0 -40 15.5t-16 40.5q0 24 16 40t40 16h354l4 6q-20 18 -27 64l-6 49l-5 48q-10 87 -92 87q-64 0 -126 -35l-44 90q82 57 176 57zM356 646v-91h-91v91h91zM234 646v-91h-90v91h90zM295 774v-92h-91v92h91
z" />
    <glyph glyph-name="uni0685.fina" unicode="&#x685;" horiz-adv-x="558" 
d="M282 112h122l4 6q-20 18 -27 64l-6 49l-5 48q-10 87 -92 87q-64 0 -126 -35l-44 90q82 57 176 57q174 0 194 -201q10 -105 26 -135t47 -30h7v-112h-293q-49 0 -75 -24t-26 -64q0 -82 119 -82q38 0 70 7l15 -102q-40 -12 -104 -12q-96 0 -151 48t-55 137q0 99 64 151
q65 53 160 53zM391 646v-91h-91v91h91zM269 646v-91h-90v91h90zM330 774v-92h-91v92h91z" />
    <glyph glyph-name="uni0686" unicode="&#x686;" horiz-adv-x="552" arabic-form="isolated" 
d="M150 331l-44 90q82 57 176 57q174 0 194 -200q3 -42 8 -81q10 -68 43 -83v-114h-262q-49 0 -75 -24t-26 -64q0 -82 119 -82q38 0 70 7l15 -102q-40 -12 -104 -12q-95 0 -150.5 48t-55.5 137q0 99 64 151q65 53 160 53h120l4 6q-15 13 -22 40q-8 28 -12 72t-9 66
q-15 70 -87 70q-64 0 -126 -35zM439 -131v65h61v-65h-61zM361 -131v65h62v-65h-62zM400 -213v65h61v-65h-61z" />
    <glyph glyph-name="uni0687" unicode="&#x687;" horiz-adv-x="552" arabic-form="isolated" 
d="M150 331l-44 90q82 57 176 57q174 0 194 -200q3 -42 8 -81q10 -68 43 -83v-114h-262q-49 0 -75 -24t-26 -64q0 -82 119 -82q38 0 70 7l15 -102q-40 -12 -104 -12q-95 0 -150.5 48t-55.5 137q0 99 64 151q65 53 160 53h120l4 6q-15 13 -22 40q-8 28 -12 72t-9 66
q-15 70 -87 70q-64 0 -126 -35zM511 -116v-64h-61v64h61zM434 -116v-64h-62v64h62zM511 -33v-66h-61v66h61zM434 -33v-66h-62v66h62z" />
    <glyph glyph-name="uni0688" unicode="&#x688;" horiz-adv-x="507" arabic-form="isolated" 
d="M58 112h287v156q0 99 -96 99q-74 0 -125 -39l-55 88q73 61 185 61q195 0 195 -184v-293h-391v112zM280 665q-22 0 -38 -14.5t-22 -38.5h95v15q0 38 -35 38zM374 652v-97h-252v58h37v137h61v-59l1 -1h2q30 32 76 32q33 0 54 -18.5t21 -51.5z" />
    <glyph glyph-name="uni0689.fina" unicode="&#x689;" horiz-adv-x="506" 
d="M159 -18q0 10 2 18h-103v112h287v156q0 99 -96 99q-74 0 -125 -39l-55 88q73 61 185 61q195 0 195 -184v-181h57v-112h-179q2 -16 2 -18q0 -36 -23.5 -60.5t-61.5 -24.5q-35 0 -60 25.5t-25 59.5zM209 -18q0 -15 10 -25.5t25 -10.5q17 0 26.5 10t9.5 26q0 10 -5 18h-62
q-4 -7 -4 -18z" />
    <glyph glyph-name="uni068A.fina" unicode="&#x68a;" horiz-adv-x="506" 
d="M58 112h287v156q0 99 -96 99q-74 0 -125 -39l-55 88q73 61 185 61q195 0 195 -184v-181h57v-112h-448v112zM290 -82v-91h-91v91h91z" />
    <glyph glyph-name="uni068B.fina" unicode="&#x68b;" horiz-adv-x="506" 
d="M58 112h287v156q0 99 -96 99q-74 0 -125 -39l-55 88q73 61 185 61q195 0 195 -184v-181h57v-112h-448v112zM290 -82v-91h-91v91h91zM280 665q-22 0 -38 -14.5t-22 -38.5h95v15q0 38 -35 38zM374 652v-97h-252v58h37v137h61v-59l1 -1h2q30 32 76 32q33 0 54 -18.5
t21 -51.5z" />
    <glyph glyph-name="uni068C" unicode="&#x68c;" horiz-adv-x="507" arabic-form="isolated" 
d="M58 112h287v156q0 99 -96 99q-74 0 -125 -39l-55 88q73 61 185 61q195 0 195 -184v-293h-391v112zM351 646v-91h-91v91h91zM229 646v-91h-90v91h90z" />
    <glyph glyph-name="uni068D" unicode="&#x68d;" horiz-adv-x="507" arabic-form="isolated" 
d="M58 112h287v156q0 99 -96 99q-74 0 -125 -39l-55 88q73 61 185 61q195 0 195 -184v-293h-391v112zM351 -82v-91h-91v91h91zM229 -82v-91h-90v91h90z" />
    <glyph glyph-name="uni068E" unicode="&#x68e;" horiz-adv-x="507" arabic-form="isolated" 
d="M58 112h287v156q0 99 -96 99q-74 0 -125 -39l-55 88q73 61 185 61q195 0 195 -184v-293h-391v112zM351 646v-91h-91v91h91zM229 646v-91h-90v91h90zM290 774v-92h-91v92h91z" />
    <glyph glyph-name="uni068F.fina" unicode="&#x68f;" horiz-adv-x="506" 
d="M58 112h287v156q0 99 -96 99q-74 0 -125 -39l-55 88q73 61 185 61q195 0 195 -184v-181h57v-112h-448v112zM260 682v91h91v-91h-91zM139 682v91h90v-91h-90zM199 555v90h91v-90h-91z" />
    <glyph glyph-name="uni0690.fina" unicode="&#x690;" horiz-adv-x="506" 
d="M58 112h287v156q0 99 -96 99q-74 0 -125 -39l-55 88q73 61 185 61q195 0 195 -184v-181h57v-112h-448v112zM351 646v-91h-91v91h91zM229 646v-91h-90v91h90zM351 774v-92h-91v92h91zM229 774v-92h-90v92h90z" />
    <glyph glyph-name="uni0691" unicode="&#x691;" horiz-adv-x="228" arabic-form="isolated" 
d="M-54 -206v110q65 1 93 28.5t28 87.5v370h103v-379q0 -110 -53 -163t-171 -54zM146 580q-22 0 -38 -14.5t-22 -38.5h95v15q0 38 -35 38zM240 567v-97h-252v58h37v137h61v-59h1q1 -1 2 -1q30 32 76 32q33 0 54 -18.5t21 -51.5z" />
    <glyph glyph-name="uni0692.fina" unicode="&#x692;" horiz-adv-x="228" 
d="M-54 -206v110q65 1 93 28.5t28 85.5v372h103v-278h58v-112h-58q-2 -104 -55.5 -154.5t-168.5 -51.5zM144 470h-58l-86 172l42 21l71 -121l74 121l42 -22z" />
    <glyph glyph-name="uni0693.fina" unicode="&#x693;" horiz-adv-x="228" 
d="M-54 -206v110q65 1 93 28.5t28 85.5v372h103v-278h58v-112h-58q-2 -73 -28 -119q41 -26 41 -74q0 -36 -23.5 -60.5t-61.5 -24.5q-33 0 -57.5 22.5t-27.5 55.5q-30 -5 -67 -6zM63 -186v-7q0 -15 10 -25.5t25 -10.5q17 0 26.5 10t9.5 26q0 28 -25 35q-22 -19 -46 -28z" />
    <glyph glyph-name="uni0694.fina" unicode="&#x694;" horiz-adv-x="228" 
d="M-54 -206v110q65 1 93 28.5t28 85.5v372h103v-278h58v-112h-58q-2 -104 -55.5 -154.5t-168.5 -51.5zM148 -259v-91h-91v91h91z" />
    <glyph glyph-name="uni0695.fina" unicode="&#x695;" horiz-adv-x="228" 
d="M-54 -206v110q65 1 93 28.5t28 85.5v372h103v-278h58v-112h-58q-2 -104 -55.5 -154.5t-168.5 -51.5zM144 -452h-58l-86 172l42 21l71 -121l74 121l42 -22z" />
    <glyph glyph-name="uni0696.fina" unicode="&#x696;" horiz-adv-x="228" 
d="M-54 -206v110q65 1 93 28.5t28 85.5v372h103v-278h58v-112h-58q-2 -104 -55.5 -154.5t-168.5 -51.5zM148 -219v-91h-91v91h91zM37 71v-91h-91v91h91z" />
    <glyph glyph-name="uni0697.fina" unicode="&#x697;" horiz-adv-x="228" 
d="M-54 -206v110q65 1 93 28.5t28 85.5v372h103v-278h58v-112h-58q-2 -104 -55.5 -154.5t-168.5 -51.5zM220 561v-91h-91v91h91zM98 561v-91h-90v91h90z" />
    <glyph glyph-name="uni0698" unicode="&#x698;" horiz-adv-x="228" arabic-form="isolated" 
d="M-54 -206v110q65 1 93 28.5t28 87.5v370h103v-379q0 -110 -53 -163t-171 -54zM220 561v-91h-91v91h91zM98 561v-91h-90v91h90zM159 689v-92h-91v92h91z" />
    <glyph glyph-name="uni0699.fina" unicode="&#x699;" horiz-adv-x="228" 
d="M-54 -206v110q65 1 93 28.5t28 85.5v372h103v-278h58v-112h-58q-2 -104 -55.5 -154.5t-168.5 -51.5zM220 561v-91h-91v91h91zM98 561v-91h-90v91h90zM220 689v-92h-91v92h91zM98 689v-92h-90v92h90z" />
    <glyph glyph-name="uni069A.init" unicode="&#x69a;" horiz-adv-x="801" 
d="M294 0h-294q-24 0 -40.5 16t-16.5 40t16 40t41 16h154v278h103v-278h37q43 0 65.5 27.5t22.5 77.5v173h102v-188q0 -49 20.5 -76t57.5 -27q74 0 74 104q0 57 -26 127q-25 69 -63 110l84 63q41 -47 77 -131q35 -81 35 -171q0 -91 -43 -152q-42 -60 -133 -60q-96 0 -140 68
h-4q-41 -57 -129 -57zM475 -83v-91h-91v91h91zM475 621v-91h-91v91h91z" />
    <glyph glyph-name="uni069A.medi" unicode="&#x69a;" horiz-adv-x="819" 
d="M567 -10q-93 0 -139 66h-5q-45 -56 -129 -56h-294q-23 0 -39.5 16t-16.5 40q0 56 79 56h131v278h103v-278h37q43 0 65.5 27.5t22.5 77.5v173h102v-188q0 -49 20.5 -76t57.5 -27q76 0 76 104q0 57 -26 127q-25 69 -63 110l84 63q42 -49 76 -128q34 -78 34 -165v-5
q0 -92 76 -93v-112q-86 2 -116 54h-4q-42 -64 -132 -64zM475 -83v-91h-91v91h91zM475 621v-91h-91v91h91z" />
    <glyph glyph-name="uni069A.fina" unicode="&#x69a;" horiz-adv-x="1022" 
d="M1022 112v-112q-86 2 -116 54h-4q-42 -64 -132 -64q-93 0 -139 67h-5q-45 -57 -129 -57h-30v-10q0 -88 -58 -142q-59 -54 -147 -54q-95 0 -148.5 51t-53.5 138v302h103v-250q0 -64 22 -96.5t78 -32.5q47 0 74 30t27 76v378h103v-278h30q42 0 65 28t23 77v173h102v-188
q0 -49 20.5 -76t57.5 -27q76 0 76 104q0 57 -26 127q-25 69 -63 110l84 63q42 -49 76 -128q34 -78 34 -165v-5q0 -92 76 -93zM675 621v-91h-91v91h91zM675 -82v-91h-91v91h91z" />
    <glyph glyph-name="uni069B.init" unicode="&#x69b;" horiz-adv-x="801" 
d="M294 0h-294q-24 0 -40.5 16t-16.5 40t16 40t41 16h154v278h103v-278h37q43 0 65.5 27.5t22.5 77.5v173h102v-188q0 -49 20.5 -76t57.5 -27q74 0 74 104q0 57 -26 127q-25 69 -63 110l84 63q41 -47 77 -131q35 -81 35 -171q0 -91 -43 -152q-42 -60 -133 -60q-96 0 -140 68
h-4q-41 -57 -129 -57zM445 -173v91h91v-91h-91zM324 -173v91h90v-91h-90zM384 -300v90h91v-90h-91z" />
    <glyph glyph-name="uni069B.medi" unicode="&#x69b;" horiz-adv-x="819" 
d="M567 -10q-93 0 -139 66h-5q-45 -56 -129 -56h-294q-23 0 -39.5 16t-16.5 40q0 56 79 56h131v278h103v-278h37q43 0 65.5 27.5t22.5 77.5v173h102v-188q0 -49 20.5 -76t57.5 -27q76 0 76 104q0 57 -26 127q-25 69 -63 110l84 63q42 -49 76 -128q34 -78 34 -165v-5
q0 -92 76 -93v-112q-86 2 -116 54h-4q-42 -64 -132 -64zM445 -173v91h91v-91h-91zM324 -173v91h90v-91h-90zM384 -300v90h91v-90h-91z" />
    <glyph glyph-name="uni069B.fina" unicode="&#x69b;" horiz-adv-x="1022" 
d="M1022 112v-112q-86 2 -116 54h-4q-42 -64 -132 -64q-93 0 -139 67h-5q-45 -57 -129 -57h-30v-10q0 -88 -58 -142q-59 -54 -147 -54q-95 0 -148.5 51t-53.5 138v302h103v-250q0 -64 22 -96.5t78 -32.5q47 0 74 30t27 76v378h103v-278h30q42 0 65 28t23 77v173h102v-188
q0 -49 20.5 -76t57.5 -27q76 0 76 104q0 57 -26 127q-25 69 -63 110l84 63q42 -49 76 -128q34 -78 34 -165v-5q0 -92 76 -93zM645 -173v91h91v-91h-91zM524 -173v91h90v-91h-90zM584 -300v90h91v-90h-91z" />
    <glyph glyph-name="uni069C.init" unicode="&#x69c;" horiz-adv-x="801" 
d="M294 0h-294q-24 0 -40.5 16t-16.5 40t16 40t41 16h154v278h103v-278h37q43 0 65.5 27.5t22.5 77.5v173h102v-188q0 -49 20.5 -76t57.5 -27q74 0 74 104q0 57 -26 127q-25 69 -63 110l84 63q41 -47 77 -131q35 -81 35 -171q0 -91 -43 -152q-42 -60 -133 -60q-96 0 -140 68
h-4q-41 -57 -129 -57zM445 -173v91h91v-91h-91zM324 -173v91h90v-91h-90zM384 -300v90h91v-90h-91zM538 621v-91h-91v91h91zM416 621v-91h-90v91h90zM477 749v-92h-91v92h91z" />
    <glyph glyph-name="uni069C.medi" unicode="&#x69c;" horiz-adv-x="819" 
d="M567 -10q-93 0 -139 66h-5q-45 -56 -129 -56h-294q-23 0 -39.5 16t-16.5 40q0 56 79 56h131v278h103v-278h37q43 0 65.5 27.5t22.5 77.5v173h102v-188q0 -49 20.5 -76t57.5 -27q76 0 76 104q0 57 -26 127q-25 69 -63 110l84 63q42 -49 76 -128q34 -78 34 -165v-5
q0 -92 76 -93v-112q-86 2 -116 54h-4q-42 -64 -132 -64zM445 -173v91h91v-91h-91zM324 -173v91h90v-91h-90zM384 -300v90h91v-90h-91zM538 621v-91h-91v91h91zM416 621v-91h-90v91h90zM477 749v-92h-91v92h91z" />
    <glyph glyph-name="uni069C.fina" unicode="&#x69c;" horiz-adv-x="1022" 
d="M1022 112v-112q-86 2 -116 54h-4q-42 -64 -132 -64q-93 0 -139 67h-5q-45 -57 -129 -57h-30v-10q0 -88 -58 -142q-59 -54 -147 -54q-95 0 -148.5 51t-53.5 138v302h103v-250q0 -64 22 -96.5t78 -32.5q47 0 74 30t27 76v378h103v-278h30q42 0 65 28t23 77v173h102v-188
q0 -49 20.5 -76t57.5 -27q76 0 76 104q0 57 -26 127q-25 69 -63 110l84 63q42 -49 76 -128q34 -78 34 -165v-5q0 -92 76 -93zM733 621v-91h-91v91h91zM611 621v-91h-90v91h90zM672 749v-92h-91v92h91zM645 -173v91h91v-91h-91zM524 -173v91h90v-91h-90zM584 -300v90h91v-90
h-91z" />
    <glyph glyph-name="uni069D.init" unicode="&#x69d;" horiz-adv-x="653" 
d="M595 0h-595q-24 0 -40.5 15.5t-16.5 39.5t16.5 40.5t40.5 16.5h58v345h103v-88h6q46 51 107 80t123 29q95 0 146.5 -49.5t51.5 -138.5v-290zM161 143v-31h330v137q0 115 -114 115q-96 0 -156 -69q-60 -67 -60 -152zM432 -82v-91h-91v91h91zM310 -82v-91h-90v91h90z" />
    <glyph glyph-name="uni069D.medi" unicode="&#x69d;" horiz-adv-x="652" 
d="M652 0h-652q-24 0 -40.5 15.5t-16.5 39.5t16.5 40.5t40.5 16.5h58v345h103v-88h6q46 51 107 80t123 29q95 0 146.5 -49.5t51.5 -138.5v-178h57v-112zM161 143v-31h330v137q0 115 -114 115q-96 0 -156 -69q-60 -67 -60 -152zM432 -82v-91h-91v91h91zM310 -82v-91h-90v91
h90z" />
    <glyph glyph-name="uni069D.fina" unicode="&#x69d;" horiz-adv-x="962" 
d="M369 17v440h102v-88h7q45 51 106 80t123 29q95 0 146.5 -49.5t51.5 -138.5v-178h57v-112h-490v-9q0 -85 -57 -141q-58 -56 -152 -56q-99 0 -152 52.5t-53 142.5v296h103v-268q0 -50 24.5 -80.5t78.5 -30.5q22 0 36 9q69 15 69 102zM471 143v-31h330v137q0 115 -113 115
q-96 0 -157 -69q-60 -67 -60 -152zM786 -82v-91h-91v91h91zM664 -82v-91h-90v91h90z" />
    <glyph glyph-name="uni069E.init" unicode="&#x69e;" horiz-adv-x="653" 
d="M595 0h-595q-24 0 -40.5 15.5t-16.5 39.5t16.5 40.5t40.5 16.5h58v345h103v-88h6q46 51 107 80t123 29q95 0 146.5 -49.5t51.5 -138.5v-290zM161 143v-31h330v137q0 115 -114 115q-96 0 -156 -69q-60 -67 -60 -152zM451 646v-91h-91v91h91zM329 646v-91h-90v91h90z
M390 774v-92h-91v92h91z" />
    <glyph glyph-name="uni069E.medi" unicode="&#x69e;" horiz-adv-x="652" 
d="M652 0h-652q-24 0 -40.5 15.5t-16.5 39.5t16.5 40.5t40.5 16.5h58v345h103v-88h6q46 51 107 80t123 29q95 0 146.5 -49.5t51.5 -138.5v-178h57v-112zM161 143v-31h330v137q0 115 -114 115q-96 0 -156 -69q-60 -67 -60 -152zM451 646v-91h-91v91h91zM329 646v-91h-90v91
h90zM390 774v-92h-91v92h91z" />
    <glyph glyph-name="uni069E.fina" unicode="&#x69e;" horiz-adv-x="962" 
d="M369 17v440h102v-88h7q45 51 106 80t123 29q95 0 146.5 -49.5t51.5 -138.5v-178h57v-112h-490v-9q0 -85 -57 -141q-58 -56 -152 -56q-99 0 -152 52.5t-53 142.5v296h103v-268q0 -50 24.5 -80.5t78.5 -30.5q22 0 36 9q69 15 69 102zM471 143v-31h330v137q0 115 -113 115
q-96 0 -157 -69q-60 -67 -60 -152zM786 646v-91h-91v91h91zM664 646v-91h-90v91h90zM725 774v-92h-91v92h91z" />
    <glyph glyph-name="uni069F.medi" unicode="&#x69f;" horiz-adv-x="652" 
d="M652 0h-652q-24 0 -40.5 15.5t-16.5 39.5t16.5 40.5t40.5 16.5h58v614h103v-357h6q46 51 107 80t123 29q95 0 146.5 -49.5t51.5 -138.5v-178h57v-112zM161 143v-31h330v137q0 115 -114 115q-96 0 -156 -69q-60 -67 -60 -152zM481 646v-91h-91v91h91zM359 646v-91h-90v91
h90zM420 774v-92h-91v92h91z" />
    <glyph glyph-name="uni069F.fina" unicode="&#x69f;" horiz-adv-x="770" 
d="M770 0h-720v112h126v614h103v-357h6q46 51 107 80t123 29q95 0 146.5 -49.5t51.5 -138.5v-178h57v-112zM279 143v-31h330v137q0 115 -114 115q-96 0 -156 -69q-60 -67 -60 -152zM591 646v-91h-91v91h91zM469 646v-91h-90v91h90zM530 774v-92h-91v92h91z" />
    <glyph glyph-name="uni06A0.init" unicode="&#x6a0;" horiz-adv-x="535" 
d="M174 232q0 -46 29 -84q29 -36 97 -36h159v-112h-459q-24 0 -40.5 15.5t-16.5 39.5t16.5 40.5t40.5 16.5h87l5 6q-34 34 -34 119q0 114 65 177q64 64 161 64q107 0 193 -71l-61 -94q-56 48 -126 48q-52 0 -84 -33t-32 -96zM373 646v-91h-91v91h91zM251 646v-91h-90v91h90z
M312 774v-92h-91v92h91z" />
    <glyph glyph-name="uni06A0.medi" unicode="&#x6a0;" horiz-adv-x="569" 
d="M0 112h52q72 0 105 15q-49 38 -74 84t-25 88q0 85 66 131q66 48 168 48q89 0 154 -44t65 -130q0 -46 -27 -94.5t-71 -80.5q48 -17 119 -17h37v-112h-44q-155 0 -238 56q-89 -56 -246 -56h-41q-24 0 -40.5 15.5t-16.5 39.5t16.5 40.5t40.5 16.5zM168 288q0 -31 31.5 -68
t91.5 -65q114 59 114 137q0 34 -28 56t-87 22q-60 0 -91 -23.5t-31 -58.5zM390 646v-91h-91v91h91zM268 646v-91h-90v91h90zM329 774v-92h-91v92h91z" />
    <glyph glyph-name="uni06A0.fina" unicode="&#x6a0;" horiz-adv-x="611" 
d="M58 -97q0 65 44 124q43 56 101 92q-53 42 -79 92t-26 95q0 86 63 129q62 43 159 43q93 0 163 -43t70 -128q0 -48 -36 -94t-96 -76q51 -25 150 -25h40v-112h-40q-77 0 -160 18q-84 20 -121 44q-125 -77 -125 -151q0 -40 36.5 -61t97.5 -21q30 0 62 5l15 -101
q-41 -11 -92 -11q-105 0 -165.5 47.5t-60.5 133.5zM209 303q0 -29 27.5 -63t81.5 -65q68 32 96.5 59t28.5 57q0 36 -35 58t-93 22q-49 0 -77.5 -18t-28.5 -50zM411 646v-91h-91v91h91zM289 646v-91h-90v91h90zM350 774v-92h-91v92h91z" />
    <glyph glyph-name="uni06A1.init" unicode="&#x6a1;" horiz-adv-x="535" 
d="M251 0h-251q-24 0 -40 15.5t-16 40.5q0 24 15.5 40t40.5 16h75q41 0 62 -4q0 2 1 3v2q-80 41 -80 150q0 94 56 155q56 60 152 60q103 0 157 -61.5t54 -175.5q0 -117 -59.5 -179t-166.5 -62zM371 248q0 57 -26 88t-76 31t-77 -31.5t-27 -79.5q0 -55 41.5 -89t113.5 -42
q51 35 51 123z" />
    <glyph glyph-name="uni06A1.medi" unicode="&#x6a1;" horiz-adv-x="539" 
d="M-56 56q0 24 15.5 40t40.5 16h67q43 0 58 -3q0 1 0.5 3t0.5 3q-31 22 -49.5 64t-18.5 87q0 94 56 153t153 59q100 0 157 -60t57 -162q0 -37 -12.5 -75.5t-32.5 -62.5l2 -6h101v-112h-539q-24 0 -40 15.5t-16 40.5zM269 368q-49 0 -76.5 -29.5t-27.5 -75.5q0 -55 39 -95
t105 -53q66 43 66 133q0 54 -28.5 87t-77.5 33z" />
    <glyph glyph-name="uni06A1.fina" unicode="&#x6a1;" horiz-adv-x="858" 
d="M164 355v-72q0 -87 35.5 -129t117.5 -42h69q43 0 58 -3q0 1 0.5 3t0.5 3q-31 22 -49.5 64t-18.5 87q0 94 56 153t153 59q100 0 157 -60t57 -162q0 -37 -12.5 -75.5t-32.5 -62.5l2 -6h101v-112h-529q-189 0 -246 129q-25 53 -25 199v27h106zM588 368q-49 0 -76.5 -29.5
t-27.5 -75.5q0 -55 39 -95t105 -53q66 43 66 133q0 54 -29 87t-77 33z" />
    <glyph glyph-name="uni06A2.init" unicode="&#x6a2;" horiz-adv-x="535" 
d="M251 0h-251q-24 0 -40 15.5t-16 40.5q0 24 15.5 40t40.5 16h75q41 0 62 -4q0 2 1 3v2q-80 41 -80 150q0 94 56 155q56 60 152 60q103 0 157 -61.5t54 -175.5q0 -117 -59.5 -179t-166.5 -62zM371 248q0 57 -26 88t-76 31t-77 -31.5t-27 -79.5q0 -55 41.5 -89t113.5 -42
q51 35 51 123zM313 -82v-91h-91v91h91z" />
    <glyph glyph-name="uni06A2.medi" unicode="&#x6a2;" horiz-adv-x="539" 
d="M-56 56q0 24 15.5 40t40.5 16h67q43 0 58 -3q0 1 0.5 3t0.5 3q-31 22 -49.5 64t-18.5 87q0 94 56 153t153 59q100 0 157 -60t57 -162q0 -37 -12.5 -75.5t-32.5 -62.5l2 -6h101v-112h-539q-24 0 -40 15.5t-16 40.5zM269 368q-49 0 -76.5 -29.5t-27.5 -75.5q0 -55 39 -95
t105 -53q66 43 66 133q0 54 -28.5 87t-77.5 33zM315 -82v-91h-91v91h91z" />
    <glyph glyph-name="uni06A2.fina" unicode="&#x6a2;" horiz-adv-x="858" 
d="M164 355v-72q0 -87 35.5 -129t117.5 -42h69q43 0 58 -3q0 1 0.5 3t0.5 3q-31 22 -49.5 64t-18.5 87q0 94 56 153t153 59q100 0 157 -60t57 -162q0 -37 -12.5 -75.5t-32.5 -62.5l2 -6h101v-112h-529q-189 0 -246 129q-25 53 -25 199v27h106zM588 368q-49 0 -76.5 -29.5
t-27.5 -75.5q0 -55 39 -95t105 -53q66 43 66 133q0 54 -29 87t-77 33zM630 -82v-91h-91v91h91z" />
    <glyph glyph-name="uni06A3.init" unicode="&#x6a3;" horiz-adv-x="535" 
d="M251 0h-251q-24 0 -40 15.5t-16 40.5q0 24 15.5 40t40.5 16h75q41 0 62 -4q0 2 1 3v2q-80 41 -80 150q0 94 56 155q56 60 152 60q103 0 157 -61.5t54 -175.5q0 -117 -59.5 -179t-166.5 -62zM371 248q0 57 -26 88t-76 31t-77 -31.5t-27 -79.5q0 -55 41.5 -89t113.5 -42
q51 35 51 123zM313 -83v-91h-91v91h91zM313 646v-91h-91v91h91z" />
    <glyph glyph-name="uni06A3.medi" unicode="&#x6a3;" horiz-adv-x="539" 
d="M-56 56q0 24 15.5 40t40.5 16h67q43 0 58 -3q0 1 0.5 3t0.5 3q-31 22 -49.5 64t-18.5 87q0 94 56 153t153 59q100 0 157 -60t57 -162q0 -37 -12.5 -75.5t-32.5 -62.5l2 -6h101v-112h-539q-24 0 -40 15.5t-16 40.5zM269 368q-49 0 -76.5 -29.5t-27.5 -75.5q0 -55 39 -95
t105 -53q66 43 66 133q0 54 -28.5 87t-77.5 33zM315 646v-91h-91v91h91zM315 -83v-91h-91v91h91z" />
    <glyph glyph-name="uni06A3.fina" unicode="&#x6a3;" horiz-adv-x="858" 
d="M164 355v-72q0 -87 35.5 -129t117.5 -42h69q43 0 58 -3q0 1 0.5 3t0.5 3q-31 22 -49.5 64t-18.5 87q0 94 56 153t153 59q100 0 157 -60t57 -162q0 -37 -12.5 -75.5t-32.5 -62.5l2 -6h101v-112h-529q-189 0 -246 129q-25 53 -25 199v27h106zM588 368q-49 0 -76.5 -29.5
t-27.5 -75.5q0 -55 39 -95t105 -53q66 43 66 133q0 54 -29 87t-77 33zM630 -83v-91h-91v91h91zM630 646v-91h-91v91h91z" />
    <glyph glyph-name="uni06A4" unicode="&#x6a4;" horiz-adv-x="854" arabic-form="isolated" 
d="M164 355v-72q0 -87 35.5 -129t117.5 -42h71q49 0 70 -4v3l1 2q-81 36 -81 156q0 90 56 149q56 60 151 60q103 0 157 -61.5t54 -175.5q0 -117 -59.5 -179t-166.5 -62h-241q-199 0 -252 144q-19 51 -19 175v36h106zM587 367q-49 0 -76 -32t-27 -79q0 -55 42 -89.5
t113 -42.5q51 34 51 124q0 119 -103 119zM691 646v-91h-91v91h91zM569 646v-91h-90v91h90zM630 774v-92h-91v92h91z" />
    <glyph glyph-name="uni06A5.init" unicode="&#x6a5;" horiz-adv-x="535" 
d="M251 0h-251q-24 0 -40 15.5t-16 40.5q0 24 15.5 40t40.5 16h75q41 0 62 -4q0 2 1 3v2q-80 41 -80 150q0 94 56 155q56 60 152 60q103 0 157 -61.5t54 -175.5q0 -117 -59.5 -179t-166.5 -62zM371 248q0 57 -26 88t-76 31t-77 -31.5t-27 -79.5q0 -55 41.5 -89t113.5 -42
q51 35 51 123zM282 -173v91h91v-91h-91zM161 -173v91h90v-91h-90zM221 -300v90h91v-90h-91z" />
    <glyph glyph-name="uni06A5.medi" unicode="&#x6a5;" horiz-adv-x="539" 
d="M-56 56q0 24 15.5 40t40.5 16h67q43 0 58 -3q0 1 0.5 3t0.5 3q-31 22 -49.5 64t-18.5 87q0 94 56 153t153 59q100 0 157 -60t57 -162q0 -37 -12.5 -75.5t-32.5 -62.5l2 -6h101v-112h-539q-24 0 -40 15.5t-16 40.5zM269 368q-49 0 -76.5 -29.5t-27.5 -75.5q0 -55 39 -95
t105 -53q66 43 66 133q0 54 -28.5 87t-77.5 33zM284 -173v91h91v-91h-91zM163 -173v91h90v-91h-90zM223 -300v90h91v-90h-91z" />
    <glyph glyph-name="uni06A5.fina" unicode="&#x6a5;" horiz-adv-x="858" 
d="M164 355v-72q0 -87 35.5 -129t117.5 -42h69q43 0 58 -3q0 1 0.5 3t0.5 3q-31 22 -49.5 64t-18.5 87q0 94 56 153t153 59q100 0 157 -60t57 -162q0 -37 -12.5 -75.5t-32.5 -62.5l2 -6h101v-112h-529q-189 0 -246 129q-25 53 -25 199v27h106zM588 368q-49 0 -76.5 -29.5
t-27.5 -75.5q0 -55 39 -95t105 -53q66 43 66 133q0 54 -29 87t-77 33zM600 -173v91h91v-91h-91zM479 -173v91h90v-91h-90zM539 -300v90h91v-90h-91z" />
    <glyph glyph-name="uni06A6" unicode="&#x6a6;" horiz-adv-x="854" arabic-form="isolated" 
d="M164 355v-72q0 -87 35.5 -129t117.5 -42h71q49 0 70 -4v3l1 2q-81 36 -81 156q0 90 56 149q56 60 151 60q103 0 157 -61.5t54 -175.5q0 -117 -59.5 -179t-166.5 -62h-241q-199 0 -252 144q-19 51 -19 175v36h106zM587 367q-49 0 -76 -32t-27 -79q0 -55 42 -89.5
t113 -42.5q51 34 51 124q0 119 -103 119zM691 646v-91h-91v91h91zM569 646v-91h-90v91h90zM691 774v-92h-91v92h91zM569 774v-92h-90v92h90z" />
    <glyph glyph-name="uni06A7.fina" unicode="&#x6a7;" horiz-adv-x="723" 
d="M462 112h101v120q0 133 -100 133q-54 0 -84 -34.5t-30 -99.5q0 -119 113 -119zM669 243v-131h54v-112h-59q-12 -104 -88 -163t-206 -59q-177 0 -249 91q-63 80 -63 200v216h103v-185q0 -90 39 -146q45 -64 171 -64q75 0 123.5 29t57.5 84h-81q-227 0 -227 229
q0 117 58 181.5t165 64.5q96 0 149 -60.5t53 -174.5zM502 646v-91h-91v91h91z" />
    <glyph glyph-name="uni06A8.fina" unicode="&#x6a8;" horiz-adv-x="723" 
d="M462 112h101v120q0 133 -100 133q-54 0 -84 -34.5t-30 -99.5q0 -119 113 -119zM669 243v-131h54v-112h-59q-12 -104 -88 -163t-206 -59q-177 0 -249 91q-63 80 -63 200v216h103v-185q0 -90 39 -146q45 -64 171 -64q75 0 123.5 29t57.5 84h-81q-227 0 -227 229
q0 117 58 181.5t165 64.5q96 0 149 -60.5t53 -174.5zM563 646v-91h-91v91h91zM441 646v-91h-90v91h90zM502 774v-92h-91v92h91z" />
    <glyph glyph-name="uni06A9" unicode="&#x6a9;" horiz-adv-x="816" arabic-form="isolated" 
d="M597 280l-226 137v75l379 244l50 -77l-305 -196l163 -98q63 -36 79 -90q12 -38 12 -97v-178h-426q-265 0 -265 252v100h103v-69q0 -88 35.5 -129.5t120.5 -41.5h329v60q0 78 -49 108z" />
    <glyph glyph-name="uni06AA.init" unicode="&#x6aa;" horiz-adv-x="1010" 
d="M396 503l-162 -158h501q115 0 166 -43t51 -143v-159h-952q-24 0 -40 15.5t-16 40.5q0 24 16 40t40 16h843v41q0 45 -22 61.5t-77 16.5h-686v91l188 189h150v-8z" />
    <glyph glyph-name="uni06AA.medi" unicode="&#x6aa;" horiz-adv-x="1009" 
d="M396 503l-162 -158h501q115 0 165.5 -43t50.5 -143v-47h58v-112h-1009q-24 0 -40 15.5t-16 40.5q0 24 16 40t40 16h842v41q0 45 -22 61.5t-77 16.5h-685v91l188 189h150v-8z" />
    <glyph glyph-name="uni06AA.fina" unicode="&#x6aa;" horiz-adv-x="1126" 
d="M512 503l-162 -158h501q115 0 166 -43t51 -143v-47h58v-112h-1076v112h909v41q0 45 -22 61.5t-77 16.5h-686v91l188 189h150v-8z" />
    <glyph glyph-name="uni06AB.init" unicode="&#x6ab;" horiz-adv-x="504" 
d="M0 112h333v60q0 41 -10.5 66t-38.5 42l-226 137v75l379 244l51 -77l-79 -51q23 -26 24 -59t-23.5 -60t-61.5 -25q-27 0 -49 15t-31 39l-86 -55l163 -98q63 -36 79 -90q12 -38 12 -97v-178h-437q-26 0 -41.5 15.5t-15.5 40.5t16 40.5t42 15.5zM384 549q0 21 -18 32
l-53 -34q1 -15 10.5 -24.5t24.5 -9.5q17 0 26.5 10t9.5 26z" />
    <glyph glyph-name="uni06AB.medi" unicode="&#x6ab;" horiz-adv-x="504" 
d="M0 112h333v60q0 41 -10.5 66t-38.5 42l-226 137v75l379 244l51 -77l-79 -51q23 -26 24 -59t-23.5 -60t-61.5 -25q-27 0 -49 15t-31 39l-86 -55l163 -98q63 -36 79 -90q12 -38 12 -97v-66h68v-112h-505q-26 0 -41.5 15.5t-15.5 40.5t16 40.5t42 15.5zM384 549q0 21 -18 32
l-53 -34q1 -15 10.5 -24.5t24.5 -9.5q17 0 26.5 10t9.5 26z" />
    <glyph glyph-name="uni06AC.init" unicode="&#x6ac;" horiz-adv-x="504" 
d="M0 112h333v60q0 41 -10.5 66t-38.5 42l-226 137v75l379 244l51 -77l-306 -196l163 -98q63 -36 79 -90q12 -38 12 -97v-178h-437q-26 0 -41.5 15.5t-15.5 40.5t16 40.5t42 15.5zM229 745v-91h-91v91h91z" />
    <glyph glyph-name="uni06AC.medi" unicode="&#x6ac;" horiz-adv-x="504" 
d="M0 112h333v60q0 41 -10.5 66t-38.5 42l-226 137v75l379 244l51 -77l-306 -196l163 -98q63 -36 79 -90q12 -38 12 -97v-66h68v-112h-505q-26 0 -41.5 15.5t-15.5 40.5t16 40.5t42 15.5zM229 745v-91h-91v91h91z" />
    <glyph glyph-name="uni06AC.fina" unicode="&#x6ac;" horiz-adv-x="778" 
d="M600 199v527h103v-528q0 -44 16.5 -64.5t58.5 -21.5v-112q-93 0 -122 56q-24 -32 -52.5 -44t-77.5 -12h-202q-264 0 -264 252v103h103v-72q0 -89 35 -130t120 -41h207q42 0 58.5 21t16.5 66zM416 496q49 0 87 -26l-26 -51q-30 18 -63 18q-21 0 -34 -11t-13 -27
q0 -35 41 -35h94v-58h-229v58h37l2 2q-10 13 -10 35q0 38 30 66.5t84 28.5zM446 621v-91h-91v91h91z" />
    <glyph glyph-name="uni06AD" unicode="&#x6ad;" horiz-adv-x="768" arabic-form="isolated" 
d="M608 198v528h102v-548q0 -87 -45 -132.5t-130 -45.5h-204q-138 0 -205.5 65.5t-67.5 186.5v103h103v-72q0 -90 36.5 -130.5t127.5 -40.5h210q40 0 56.5 22t16.5 64zM414 496q49 0 87 -26l-26 -51q-30 18 -63 18q-21 0 -34 -11t-13 -27q0 -35 41 -35h94v-58h-229v58h37
l2 2q-10 13 -10 35q0 38 30 66.5t84 28.5zM510 621v-91h-91v91h91zM388 621v-91h-90v91h90zM449 749v-92h-91v92h91z" />
    <glyph glyph-name="uni06AE.init" unicode="&#x6ae;" horiz-adv-x="504" 
d="M0 112h333v60q0 41 -10.5 66t-38.5 42l-226 137v75l379 244l51 -77l-306 -196l163 -98q63 -36 79 -90q12 -38 12 -97v-178h-437q-26 0 -41.5 15.5t-15.5 40.5t16 40.5t42 15.5zM269 -173v91h91v-91h-91zM148 -173v91h90v-91h-90zM208 -300v90h91v-90h-91z" />
    <glyph glyph-name="uni06AE.medi" unicode="&#x6ae;" horiz-adv-x="504" 
d="M0 112h333v60q0 41 -10.5 66t-38.5 42l-226 137v75l379 244l51 -77l-306 -196l163 -98q63 -36 79 -90q12 -38 12 -97v-66h68v-112h-505q-26 0 -41.5 15.5t-15.5 40.5t16 40.5t42 15.5zM269 -173v91h91v-91h-91zM148 -173v91h90v-91h-90zM208 -300v90h91v-90h-91z" />
    <glyph glyph-name="uni06AE.fina" unicode="&#x6ae;" horiz-adv-x="778" 
d="M600 199v527h103v-528q0 -44 16.5 -64.5t58.5 -21.5v-112q-93 0 -122 56q-24 -32 -52.5 -44t-77.5 -12h-202q-264 0 -264 252v103h103v-72q0 -89 35 -130t120 -41h207q42 0 58.5 21t16.5 66zM416 496q49 0 87 -26l-26 -51q-30 18 -63 18q-21 0 -34 -11t-13 -27
q0 -35 41 -35h94v-58h-229v58h37l2 2q-10 13 -10 35q0 38 30 66.5t84 28.5zM434 -173v91h91v-91h-91zM313 -173v91h90v-91h-90zM373 -300v90h91v-90h-91z" />
    <glyph glyph-name="uni06AF" unicode="&#x6af;" horiz-adv-x="816" arabic-form="isolated" 
d="M597 280l-226 137v75l379 244l50 -77l-305 -196l163 -98q63 -36 79 -90q12 -38 12 -97v-178h-426q-265 0 -265 252v100h103v-69q0 -88 35.5 -129.5t120.5 -41.5h329v60q0 78 -49 108zM283 593l377 242l31 -51l-376 -242z" />
    <glyph glyph-name="uni06B0.init" unicode="&#x6b0;" horiz-adv-x="504" 
d="M0 112h333v60q0 41 -10.5 66t-38.5 42l-226 137v75l379 244l51 -77l-79 -51q23 -26 24 -59t-23.5 -60t-61.5 -25q-27 0 -49 15t-31 39l-86 -55l163 -98q63 -36 79 -90q12 -38 12 -97v-178h-437q-26 0 -41.5 15.5t-15.5 40.5t16 40.5t42 15.5zM-7 598l377 242l31 -51
l-376 -242zM384 549q0 21 -18 32l-53 -34q1 -15 10.5 -24.5t24.5 -9.5q17 0 26.5 10t9.5 26z" />
    <glyph glyph-name="uni06B0.medi" unicode="&#x6b0;" horiz-adv-x="504" 
d="M0 112h333v60q0 41 -10.5 66t-38.5 42l-226 137v75l379 244l51 -77l-79 -51q23 -26 24 -59t-23.5 -60t-61.5 -25q-27 0 -49 15t-31 39l-86 -55l163 -98q63 -36 79 -90q12 -38 12 -97v-66h68v-112h-505q-26 0 -41.5 15.5t-15.5 40.5t16 40.5t42 15.5zM-7 598l377 242
l31 -51l-376 -242zM384 549q0 21 -18 32l-53 -34q1 -15 10.5 -24.5t24.5 -9.5q17 0 26.5 10t9.5 26z" />
    <glyph glyph-name="uni06B0.fina" unicode="&#x6b0;" horiz-adv-x="806" 
d="M597 280l-226 137v75l379 244l50 -77l-88 -56q19 -23 19 -54q0 -36 -23.5 -60.5t-61.5 -24.5q-53 0 -76 47l-75 -48l163 -98q63 -36 79 -90q12 -38 12 -97v-66h57v-112h-483q-265 0 -265 252v100h103v-69q0 -88 35.5 -129.5t120.5 -41.5h329v60q0 80 -49 108zM283 593
l377 242l31 -51l-376 -242zM682 549q0 17 -12 27l-58 -38q7 -25 34 -25q17 0 26.5 10t9.5 26z" />
    <glyph glyph-name="uni06B1" unicode="&#x6b1;" horiz-adv-x="816" arabic-form="isolated" 
d="M597 280l-226 137v75l379 244l50 -77l-305 -196l163 -98q63 -36 79 -90q12 -38 12 -97v-178h-426q-265 0 -265 252v100h103v-69q0 -88 35.5 -129.5t120.5 -41.5h329v60q0 78 -49 108zM283 593l377 242l31 -51l-376 -242zM464 843v-64h-61v64h61zM376 779v-64h-61v64h61z
" />
    <glyph glyph-name="uni06B2.init" unicode="&#x6b2;" horiz-adv-x="504" 
d="M0 112h333v60q0 41 -10.5 66t-38.5 42l-226 137v75l379 244l51 -77l-306 -196l163 -98q63 -36 79 -90q12 -38 12 -97v-178h-437q-26 0 -41.5 15.5t-15.5 40.5t16 40.5t42 15.5zM-7 598l377 242l31 -51l-376 -242zM328 -82v-91h-91v91h91zM206 -82v-91h-90v91h90z" />
    <glyph glyph-name="uni06B2.medi" unicode="&#x6b2;" horiz-adv-x="504" 
d="M0 112h333v60q0 41 -10.5 66t-38.5 42l-226 137v75l379 244l51 -77l-306 -196l163 -98q63 -36 79 -90q12 -38 12 -97v-66h68v-112h-505q-26 0 -41.5 15.5t-15.5 40.5t16 40.5t42 15.5zM-7 598l377 242l31 -51l-376 -242zM328 -82v-91h-91v91h91zM206 -82v-91h-90v91h90z
" />
    <glyph glyph-name="uni06B2.fina" unicode="&#x6b2;" horiz-adv-x="806" 
d="M597 280l-226 137v75l379 244l50 -77l-305 -196l163 -98q63 -36 79 -90q12 -38 12 -97v-66h57v-112h-483q-265 0 -265 252v100h103v-69q0 -88 35.5 -129.5t120.5 -41.5h329v60q0 80 -49 108zM283 593l377 242l31 -51l-376 -242zM544 -82v-91h-91v91h91zM422 -82v-91h-90
v91h90z" />
    <glyph glyph-name="uni06B3" unicode="&#x6b3;" horiz-adv-x="816" arabic-form="isolated" 
d="M597 280l-226 137v75l379 244l50 -77l-305 -196l163 -98q63 -36 79 -90q12 -38 12 -97v-178h-426q-265 0 -265 252v100h103v-69q0 -88 35.5 -129.5t120.5 -41.5h329v60q0 78 -49 108zM283 593l377 242l31 -51l-376 -242zM493 -210v-91h-91v91h91zM493 -82v-92h-91v92h91z
" />
    <glyph glyph-name="uni06B4.init" unicode="&#x6b4;" horiz-adv-x="504" 
d="M0 112h333v60q0 41 -10.5 66t-38.5 42l-226 137v75l379 244l51 -77l-306 -196l163 -98q63 -36 79 -90q12 -38 12 -97v-178h-437q-26 0 -41.5 15.5t-15.5 40.5t16 40.5t42 15.5zM-7 598l377 242l31 -51l-376 -242zM197 843v-64h-61v64h61zM109 870v-64h-61v64h61zM109 779
v-64h-61v64h61z" />
    <glyph glyph-name="uni06B4.medi" unicode="&#x6b4;" horiz-adv-x="504" 
d="M0 112h333v60q0 41 -10.5 66t-38.5 42l-226 137v75l379 244l51 -77l-306 -196l163 -98q63 -36 79 -90q12 -38 12 -97v-66h68v-112h-505q-26 0 -41.5 15.5t-15.5 40.5t16 40.5t42 15.5zM-7 598l377 242l31 -51l-376 -242zM197 843v-64h-61v64h61zM109 870v-64h-61v64h61z
M109 779v-64h-61v64h61z" />
    <glyph glyph-name="uni06B4.fina" unicode="&#x6b4;" horiz-adv-x="806" 
d="M597 280l-226 137v75l379 244l50 -77l-305 -196l163 -98q63 -36 79 -90q12 -38 12 -97v-66h57v-112h-483q-265 0 -265 252v100h103v-69q0 -88 35.5 -129.5t120.5 -41.5h329v60q0 80 -49 108zM283 593l377 242l31 -51l-376 -242zM464 843v-64h-61v64h61zM376 779v-64h-61
v64h61zM376 870v-64h-61v64h61z" />
    <glyph glyph-name="uni06B5.init" unicode="&#x6b5;" horiz-adv-x="229" 
d="M68 211v515h103v-523q0 -203 -171 -203q-24 0 -40.5 15.5t-16.5 39.5t16.5 40t40.5 17q40 1 54 23.5t14 75.5zM144 780h-58l-86 172l42 21l71 -121l74 121l42 -22z" />
    <glyph glyph-name="uni06B5.medi" unicode="&#x6b5;" horiz-adv-x="249" 
d="M-57 55q0 22 16.5 39.5t40.5 17.5q37 0 54 22t17 70v522h103v-528q0 -45 17 -65t58 -21v-112q-92 0 -121 56q-41 -56 -128 -56q-24 0 -40.5 15.5t-16.5 39.5zM154 780h-58l-86 172l42 21l71 -121l74 121l42 -22z" />
    <glyph glyph-name="uni06B5.fina" unicode="&#x6b5;" horiz-adv-x="530" 
d="M369 726h103v-614h58v-112h-58q0 -23 -8 -47q-12 -72 -65.5 -115.5t-135.5 -43.5q-98 0 -151.5 53t-53.5 143v295h103v-266q0 -43 23 -78q24 -35 80 -35q54 0 79.5 30.5t25.5 82.5v707zM448 780h-58l-86 172l42 21l71 -121l74 121l42 -22z" />
    <glyph glyph-name="uni06B6.init" unicode="&#x6b6;" horiz-adv-x="229" 
d="M68 211v515h103v-523q0 -203 -171 -203q-24 0 -40.5 15.5t-16.5 39.5t16.5 40t40.5 17q40 1 54 23.5t14 75.5zM160 871v-91h-91v91h91z" />
    <glyph glyph-name="uni06B6.medi" unicode="&#x6b6;" horiz-adv-x="249" 
d="M-57 55q0 22 16.5 39.5t40.5 17.5q37 0 54 22t17 70v522h103v-528q0 -45 17 -65t58 -21v-112q-92 0 -121 56q-41 -56 -128 -56q-24 0 -40.5 15.5t-16.5 39.5zM170 871v-91h-91v91h91z" />
    <glyph glyph-name="uni06B6.fina" unicode="&#x6b6;" horiz-adv-x="530" 
d="M369 726h103v-614h58v-112h-58q0 -23 -8 -47q-12 -72 -65.5 -115.5t-135.5 -43.5q-98 0 -151.5 53t-53.5 143v295h103v-266q0 -43 23 -78q24 -35 80 -35q54 0 79.5 30.5t25.5 82.5v707zM466 871v-91h-91v91h91z" />
    <glyph glyph-name="uni06B7.init" unicode="&#x6b7;" horiz-adv-x="229" 
d="M184 844v-64h-61v64h61zM107 844v-64h-62v64h62zM145 927v-66h-61v66h61zM68 211v515h103v-523q0 -203 -171 -203q-24 0 -40.5 15.5t-16.5 39.5t16.5 40t40.5 17q40 1 54 23.5t14 75.5z" />
    <glyph glyph-name="uni06B7.medi" unicode="&#x6b7;" horiz-adv-x="249" 
d="M-57 55q0 22 16.5 39.5t40.5 17.5q37 0 54 22t17 70v522h103v-528q0 -45 17 -65t58 -21v-112q-92 0 -121 56q-41 -56 -128 -56q-24 0 -40.5 15.5t-16.5 39.5zM194 844v-64h-61v64h61zM117 844v-64h-62v64h62zM155 927v-66h-61v66h61z" />
    <glyph glyph-name="uni06B7.fina" unicode="&#x6b7;" horiz-adv-x="530" 
d="M369 726h103v-614h58v-112h-58q0 -23 -8 -47q-12 -72 -65.5 -115.5t-135.5 -43.5q-98 0 -151.5 53t-53.5 143v295h103v-266q0 -43 23 -78q24 -35 80 -35q54 0 79.5 30.5t25.5 82.5v707zM489 844v-64h-61v64h61zM412 844v-64h-62v64h62zM450 927v-66h-61v66h61z" />
    <glyph glyph-name="uni06B8.init" unicode="&#x6b8;" horiz-adv-x="229" 
d="M129 -173v91h91v-91h-91zM8 -173v91h90v-91h-90zM68 -300v90h91v-90h-91zM68 211v515h103v-523q0 -203 -171 -203q-24 0 -40.5 15.5t-16.5 39.5t16.5 40t40.5 17q40 1 54 23.5t14 75.5z" />
    <glyph glyph-name="uni06B8.medi" unicode="&#x6b8;" horiz-adv-x="249" 
d="M-57 55q0 22 16.5 39.5t40.5 17.5q37 0 54 22t17 70v522h103v-528q0 -45 17 -65t58 -21v-112q-92 0 -121 56q-41 -56 -128 -56q-24 0 -40.5 15.5t-16.5 39.5zM139 -173v91h91v-91h-91zM18 -173v91h90v-91h-90zM78 -300v90h91v-90h-91z" />
    <glyph glyph-name="uni06B8.fina" unicode="&#x6b8;" horiz-adv-x="530" 
d="M369 726h103v-614h58v-112h-58q0 -23 -8 -47q-12 -72 -65.5 -115.5t-135.5 -43.5q-98 0 -151.5 53t-53.5 143v295h103v-266q0 -43 23 -78q24 -35 80 -35q54 0 79.5 30.5t25.5 82.5v707zM278 -325v65h61v-65h-61zM200 -325v65h62v-65h-62zM239 -407v65h61v-65h-61z" />
    <glyph glyph-name="uni06B9.init" unicode="&#x6b9;" horiz-adv-x="229" 
d="M68 211v244h103v-252q0 -203 -171 -203q-24 0 -40.5 15.5t-16.5 39.5t16.5 40t40.5 17q40 1 54 23.5t14 75.5zM160 621v-91h-91v91h91zM140 -82v-91h-91v91h91z" />
    <glyph glyph-name="uni06B9.medi" unicode="&#x6b9;" horiz-adv-x="249" 
d="M-57 55q0 22 16.5 39.5t40.5 17.5q37 0 54 22t17 70v186h103v-192q0 -45 17 -65t58 -21v-112q-92 0 -121 56q-41 -56 -128 -56q-24 0 -40.5 15.5t-16.5 39.5zM170 561v-91h-91v91h91zM170 -82v-91h-91v91h91z" />
    <glyph glyph-name="uni06B9.fina" unicode="&#x6b9;" horiz-adv-x="530" 
d="M369 389h103v-277h58v-112h-58q0 -88 -57 -147q-56 -59 -152 -59q-98 0 -151.5 53t-53.5 143v295h103v-266q0 -52 25.5 -82.5t77.5 -30.5q105 0 105 113v370zM312 -259v-91h-91v91h91zM312 541v-91h-91v91h91z" />
    <glyph glyph-name="uni06BA" unicode="&#x6ba;" horiz-adv-x="530" arabic-form="isolated" 
d="M369 390h103v-393q0 -88 -56 -146q-56 -57 -153 -57q-98 0 -151.5 53t-53.5 143v295h103v-266q0 -52 25.5 -83t77.5 -31q105 0 105 114v371z" />
    <glyph glyph-name="uni06BB" unicode="&#x6bb;" horiz-adv-x="530" arabic-form="isolated" 
d="M369 390h103v-393q0 -88 -56 -146q-56 -57 -153 -57q-98 0 -151.5 53t-53.5 143v295h103v-266q0 -52 25.5 -83t77.5 -31q105 0 105 114v371zM299 560q-22 0 -38 -14.5t-22 -38.5h95v15q0 38 -35 38zM393 547v-97h-252v58h37v137h61v-59h1l2 -1q30 32 76 32q33 0 54 -18.5
t21 -51.5z" />
    <glyph glyph-name="uni06BC.init" unicode="&#x6bc;" horiz-adv-x="229" 
d="M15 -19q0 11 2 19h-17q-24 0 -40.5 15.5t-16.5 39.5t16.5 40t40.5 17q40 1 54 23.5t14 75.5v244h103v-252q0 -95 -35 -144q49 -24 49 -78q0 -36 -23.5 -60.5t-61.5 -24.5q-35 0 -60 25.5t-25 59.5zM151 621v-91h-91v91h91zM65 -19q0 -15 10 -25.5t25 -10.5q23 0 31.5 18
t-0.5 36t-31 18q-15 0 -25 -10.5t-10 -25.5z" />
    <glyph glyph-name="uni06BC.medi" unicode="&#x6bc;" horiz-adv-x="249" 
d="M41 -2v5q-19 -3 -41 -3q-24 0 -40.5 15.5t-16.5 39.5q0 22 16.5 39.5t40.5 17.5q37 0 54 22t17 70v186h103v-192q0 -45 17 -65t58 -21v-112q-20 0 -38 3v-5q0 -36 -23.5 -60.5t-61.5 -24.5q-35 0 -60 25.5t-25 59.5zM170 562v-91h-91v91h91zM91 -2q0 -15 10 -25.5
t25 -10.5q23 0 31.5 18t-0.5 36t-31 18q-15 0 -25 -10.5t-10 -25.5z" />
    <glyph glyph-name="uni06BC.fina" unicode="&#x6bc;" horiz-adv-x="530" 
d="M181 -228q0 17 6 32q-63 18 -96 67t-33 119v295h103v-266q0 -52 25.5 -82.5t77.5 -30.5q105 0 105 113v370h103v-277h58v-112h-58q0 -67 -34.5 -119t-94.5 -74q8 -18 8 -35q0 -36 -23.5 -60.5t-61.5 -24.5q-35 0 -60 25.5t-25 59.5zM312 541v-91h-91v91h91zM231 -228
q0 -15 10 -25.5t25 -10.5q17 0 26.5 10t9.5 26q0 14 -9 24q-24 -2 -30 -2q-4 0 -13.5 0.5t-11.5 0.5q-7 -7 -7 -23z" />
    <glyph glyph-name="uni06BD.init" unicode="&#x6bd;" horiz-adv-x="229" 
d="M68 211v244h103v-252q0 -203 -171 -203q-24 0 -40.5 15.5t-16.5 39.5t16.5 40t40.5 17q40 1 54 23.5t14 75.5zM129 -173v91h91v-91h-91zM8 -173v91h90v-91h-90zM68 -300v90h91v-90h-91z" />
    <glyph glyph-name="uni06BD.medi" unicode="&#x6bd;" horiz-adv-x="249" 
d="M-57 55q0 22 16.5 39.5t40.5 17.5q37 0 54 22t17 70v186h103v-192q0 -45 17 -65t58 -21v-112q-92 0 -121 56q-41 -56 -128 -56q-24 0 -40.5 15.5t-16.5 39.5zM139 -173v91h91v-91h-91zM18 -173v91h90v-91h-90zM78 -300v90h91v-90h-91z" />
    <glyph glyph-name="uni06BD.fina" unicode="&#x6bd;" horiz-adv-x="530" 
d="M369 389h103v-277h58v-112h-58q0 -88 -57 -147q-56 -59 -152 -59q-98 0 -151.5 53t-53.5 143v295h103v-266q0 -52 25.5 -82.5t77.5 -30.5q105 0 105 113v370zM373 541v-91h-91v91h91zM251 541v-91h-90v91h90zM312 669v-92h-91v92h91z" />
    <glyph glyph-name="uni06BE" unicode="&#x6be;" horiz-adv-x="809" arabic-form="isolated" 
d="M176 232q0 70 42 120q41 48 112 56l-20 42q40 26 98.5 43t110.5 17q103 0 167 -61q65 -62 65 -204q0 -125 -65 -185q-64 -60 -163 -60h-473v112h109q49 0 66 -4l2 4q-24 16 -37.5 48.5t-13.5 71.5zM499 115v-5q77 0 110.5 33.5t33.5 105.5q0 150 -130 150q-33 0 -71 -15
q92 -36 92 -157v-9q-1 -62 -35 -103zM354 313q-35 0 -55 -24.5t-20 -61.5q0 -40 25.5 -69.5t72.5 -38.5q51 29 51 103q0 41 -18.5 66t-55.5 25z" />
    <glyph glyph-name="uni06BF.init" unicode="&#x6bf;" horiz-adv-x="505" 
d="M480 0h-480q-24 0 -40 15.5t-16 40.5q0 24 16 40t40 16h355l3 6q-15 13 -22 40q-7 34 -11 71q-5 46 -9 67q-15 70 -88 70q-64 0 -125 -35l-45 90q82 57 176 57q172 0 193 -185q4 -34 4 -38l8 -65q13 -63 41 -76v-114zM298 646v-91h-91v91h91zM235 -173v91h91v-91h-91z
M114 -173v91h90v-91h-90zM174 -300v90h91v-90h-91z" />
    <glyph glyph-name="uni06BF.medi" unicode="&#x6bf;" horiz-adv-x="508" 
d="M234 478q174 0 194 -201q10 -105 26 -135t47 -30h7v-112h-508q-24 0 -40 15.5t-16 40.5q0 24 16 40t40 16h354l4 6q-20 18 -27 64l-6 49l-5 48q-10 87 -92 87q-64 0 -126 -35l-44 90q82 57 176 57zM300 646v-91h-91v91h91zM235 -173v91h91v-91h-91zM114 -173v91h90v-91
h-90zM174 -300v90h91v-90h-91z" />
    <glyph glyph-name="uni06BF.fina" unicode="&#x6bf;" horiz-adv-x="558" 
d="M282 112h122l4 6q-20 18 -27 64l-6 49l-5 48q-10 87 -92 87q-64 0 -126 -35l-44 90q82 57 176 57q174 0 194 -201q10 -105 26 -135t47 -30h7v-112h-293q-49 0 -75 -24t-26 -64q0 -82 119 -82q38 0 70 7l15 -102q-40 -12 -104 -12q-96 0 -151 48t-55 137q0 99 64 151
q65 53 160 53zM451 -130v65h61v-65h-61zM373 -130v65h62v-65h-62zM412 -212v65h61v-65h-61zM340 648v-91h-91v91h91z" />
    <glyph glyph-name="uni06C0" unicode="&#x6c0;" horiz-adv-x="545" arabic-form="isolated" 
d="M298 745q49 0 87 -26l-26 -51q-30 18 -63 18q-21 0 -34 -11t-13 -27q0 -35 41 -35h94v-58h-229v58h37l2 2q-10 13 -10 35q0 38 30 66.5t84 28.5zM279 477q82 0 145 -76q63 -75 63 -189q0 -103 -56 -160.5t-158 -57.5q-112 0 -163.5 53.5t-51.5 162.5q0 110 65 189
q66 78 156 78zM277 367q-45 0 -77 -45q-32 -44 -32 -104q0 -58 26 -85t82 -27q52 0 78.5 31t26.5 82q0 63 -33 105q-33 43 -71 43z" />
    <glyph glyph-name="uni06C1" unicode="&#x6c1;" horiz-adv-x="545" arabic-form="isolated" 
d="M279 477q82 0 145 -76q63 -75 63 -189q0 -103 -56 -160.5t-158 -57.5q-112 0 -163.5 53.5t-51.5 162.5q0 110 65 189q66 78 156 78zM277 367q-45 0 -77 -45q-32 -44 -32 -104q0 -58 26 -85t82 -27q52 0 78.5 31t26.5 82q0 63 -33 105q-33 43 -71 43z" />
    <glyph glyph-name="uni06C2.fina" unicode="&#x6c2;" horiz-adv-x="518" 
d="M441 237v-21q0 -56 16.5 -80t60.5 -24v-112q-95 0 -138.5 41.5t-43.5 134.5v46q0 48 -22.5 73.5t-64.5 25.5q-40 0 -63 -26t-23 -76q0 -56 21.5 -81.5t74.5 -25.5h28v-112h-51q-178 0 -178 207q0 109 51 167.5t145 58.5q88 0 137.5 -50.5t49.5 -145.5zM276 695
q49 0 87 -26l-26 -51q-30 18 -63 18q-21 0 -34 -11t-13 -27q0 -35 41 -35h94v-58h-229v58h37l2 2q-10 13 -10 35q0 38 30 66.5t84 28.5z" />
    <glyph glyph-name="uni06C3.fina" unicode="&#x6c3;" horiz-adv-x="518" 
d="M441 237v-21q0 -56 16.5 -80t60.5 -24v-112q-95 0 -138.5 41.5t-43.5 134.5v46q0 48 -22.5 73.5t-64.5 25.5q-40 0 -63 -26t-23 -76q0 -56 21.5 -81.5t74.5 -25.5h28v-112h-51q-178 0 -178 207q0 109 51 167.5t145 58.5q88 0 137.5 -50.5t49.5 -145.5zM355 596v-91h-91
v91h91zM233 596v-91h-90v91h90z" />
    <glyph glyph-name="uni06C4.fina" unicode="&#x6c4;" horiz-adv-x="541" 
d="M280 478q98 0 150.5 -60t52.5 -175v-131h58v-112h-58q-3 -106 -63 -164t-167 -58h-152v113h39q0 35 25 60t60 25q33 0 56.5 -21t27.5 -53q32 14 48 41.5t16 59.5h-89q-226 0 -226 229q0 117 57.5 181.5t164.5 64.5zM275 112h102v120q0 133 -101 133q-53 0 -83 -34.5
t-30 -99.5q0 -119 112 -119zM190 -109h60l4 1h7q0 20 -18 29t-36 0.5t-17 -30.5z" />
    <glyph glyph-name="uni06C5" unicode="&#x6c5;" horiz-adv-x="541" arabic-form="isolated" 
d="M483 242v-225q0 -117 -61 -178t-175 -61h-146v113h140q66 0 101 32h-171v44h196q5 22 5 38v23q-3 1 -6 4q-39 -30 -98 -30q-102 0 -156 59t-54 173t58 179t163 65q97 0 150.5 -60.5t53.5 -175.5zM274 365q-53 0 -81.5 -34.5t-28.5 -95.5q0 -58 27 -91.5t77 -33.5
q109 0 109 132q0 59 -27.5 91t-75.5 32z" />
    <glyph glyph-name="uni06C6" unicode="&#x6c6;" horiz-adv-x="541" arabic-form="isolated" 
d="M483 242v-225q0 -117 -61 -178t-175 -61h-146v113h140q131 0 131 114v23q-3 1 -6 4q-39 -30 -98 -30q-102 0 -156 59t-54 173t58 179t163 65q97 0 150.5 -60.5t53.5 -175.5zM274 365q-53 0 -81.5 -34.5t-28.5 -95.5q0 -58 27 -91.5t77 -33.5q109 0 109 132q0 59 -27.5 91
t-75.5 32zM296 555h-58l-86 172l42 21l71 -121l74 121l42 -22z" />
    <glyph glyph-name="uni06C7" unicode="&#x6c7;" horiz-adv-x="541" arabic-form="isolated" 
d="M483 242v-225q0 -117 -61 -178t-175 -61h-146v113h140q131 0 131 114v23q-3 1 -6 4q-39 -30 -98 -30q-102 0 -156 59t-54 173t58 179t163 65q97 0 150.5 -60.5t53.5 -175.5zM274 365q-53 0 -81.5 -34.5t-28.5 -95.5q0 -58 27 -91.5t77 -33.5q109 0 109 132q0 59 -27.5 91
t-75.5 32zM161 605l90 27l1 3q-22 16 -22 47q0 28 19.5 48.5t49.5 20.5q34 0 55 -22.5t21 -55.5q0 -29 -18 -52.5t-51 -32.5l-145 -40v57z" />
    <glyph glyph-name="uni06C8" unicode="&#x6c8;" horiz-adv-x="541" arabic-form="isolated" 
d="M483 242v-225q0 -117 -61 -178t-175 -61h-146v113h140q131 0 131 114v23q-3 1 -6 4q-39 -30 -98 -30q-102 0 -156 59t-54 173t58 179t163 65q97 0 150.5 -60.5t53.5 -175.5zM274 365q-53 0 -81.5 -34.5t-28.5 -95.5q0 -58 27 -91.5t77 -33.5q109 0 109 132q0 59 -27.5 91
t-75.5 32zM236 728h63v-173h-63v173z" />
    <glyph glyph-name="uni06C9" unicode="&#x6c9;" horiz-adv-x="541" arabic-form="isolated" 
d="M483 242v-225q0 -117 -61 -178t-175 -61h-146v113h140q131 0 131 114v23q-3 1 -6 4q-39 -30 -98 -30q-102 0 -156 59t-54 173t58 179t163 65q97 0 150.5 -60.5t53.5 -175.5zM274 365q-53 0 -81.5 -34.5t-28.5 -95.5q0 -58 27 -91.5t77 -33.5q109 0 109 132q0 59 -27.5 91
t-75.5 32zM195 555l-42 21l86 172h58l85 -171l-42 -22l-74 121z" />
    <glyph glyph-name="uni06CA.fina" unicode="&#x6ca;" horiz-adv-x="541" 
d="M280 478q98 0 150.5 -60t52.5 -175v-131h58v-112h-58q-3 -106 -63 -164t-167 -58h-152v113h149q64 0 93 35q30 34 30 77h-89q-226 0 -226 229q0 117 57.5 181.5t164.5 64.5zM275 112h102v120q0 133 -101 133q-53 0 -83 -34.5t-30 -99.5q0 -119 112 -119zM374 646v-91h-91
v91h91zM252 646v-91h-90v91h90z" />
    <glyph glyph-name="uni06CB" unicode="&#x6cb;" horiz-adv-x="541" arabic-form="isolated" 
d="M483 242v-225q0 -117 -61 -178t-175 -61h-146v113h140q131 0 131 114v23q-3 1 -6 4q-39 -30 -98 -30q-102 0 -156 59t-54 173t58 179t163 65q97 0 150.5 -60.5t53.5 -175.5zM274 365q-53 0 -81.5 -34.5t-28.5 -95.5q0 -58 27 -91.5t77 -33.5q109 0 109 132q0 59 -27.5 91
t-75.5 32zM374 646v-91h-91v91h91zM252 646v-91h-90v91h90zM313 774v-92h-91v92h91z" />
    <glyph glyph-name="uni06CC" unicode="&#x6cc;" horiz-adv-x="864" arabic-form="isolated" 
d="M806 478v-396h-104v282h-55q-36 0 -51.5 -20.5t-15.5 -62.5v-281h-257q-265 0 -265 252v103h103v-72q0 -91 39 -131t144 -40h132v187q0 86 47 132.5t129 46.5h154z" />
    <glyph glyph-name="uni06CD.fina" unicode="&#x6cd;" horiz-adv-x="988" 
d="M988 0h-163v364h-52q-36 0 -51.5 -20.5t-15.5 -62.5v-281h-258q-127 0 -189.5 56.5t-72.5 167.5l-77 -61l-59 77l134 115h102v-72q0 -88 35.5 -129.5t120.5 -41.5h159v187q0 86 47 132.5t129 46.5h154v-366h57v-112z" />
    <glyph glyph-name="uni06CE.init" unicode="&#x6ce;" horiz-adv-x="229" 
d="M68 211v244h103v-252q0 -203 -171 -203q-24 0 -40.5 15.5t-16.5 39.5t16.5 40t40.5 17q40 1 54 23.5t14 75.5zM220 -82v-91h-91v91h91zM98 -82v-91h-90v91h90zM144 530h-58l-86 172l42 21l71 -121l74 121l42 -22z" />
    <glyph glyph-name="uni06CE.fina" unicode="&#x6ce;" horiz-adv-x="864" 
d="M580 281v-281h-257q-265 0 -265 252v103h103v-72q0 -88 35.5 -129.5t120.5 -41.5h159v187q0 86 47 132.5t129 46.5h154v-366h58v-112h-162v364h-55q-36 0 -51.5 -20.5t-15.5 -62.5zM189 429h-58l-86 172l42 21l71 -121l74 121l42 -22z" />
    <glyph glyph-name="uni06CF.fina" unicode="&#x6cf;" horiz-adv-x="541" 
d="M280 478q98 0 150.5 -60t52.5 -175v-131h58v-112h-58q-3 -106 -63 -164t-167 -58h-152v113h149q64 0 93 35q30 34 30 77h-89q-226 0 -226 229q0 117 57.5 181.5t164.5 64.5zM275 112h102v120q0 133 -101 133q-53 0 -83 -34.5t-30 -99.5q0 -119 112 -119zM313 646v-91h-91
v91h91z" />
    <glyph glyph-name="uni06D0" unicode="&#x6d0;" horiz-adv-x="864" arabic-form="isolated" 
d="M806 478v-396h-104v282h-55q-36 0 -51.5 -20.5t-15.5 -62.5v-281h-257q-265 0 -265 252v103h103v-72q0 -91 39 -131t144 -40h132v187q0 86 47 132.5t129 46.5h154zM435 -210v-91h-91v91h91zM435 -82v-92h-91v92h91z" />
    <glyph glyph-name="uni06D1.init" unicode="&#x6d1;" horiz-adv-x="229" 
d="M68 211v244h103v-252q0 -203 -171 -203q-24 0 -40.5 15.5t-16.5 39.5t16.5 40t40.5 17q40 1 54 23.5t14 75.5zM129 -173v91h91v-91h-91zM8 -173v91h90v-91h-90zM68 -300v90h91v-90h-91z" />
    <glyph glyph-name="uni06D1.medi" unicode="&#x6d1;" horiz-adv-x="249" 
d="M-57 55q0 22 16.5 39.5t40.5 17.5q37 0 54 22t17 70v186h103v-192q0 -45 17 -65t58 -21v-112q-92 0 -121 56q-41 -56 -128 -56q-24 0 -40.5 15.5t-16.5 39.5zM139 -173v91h91v-91h-91zM18 -173v91h90v-91h-90zM78 -300v90h91v-90h-91z" />
    <glyph glyph-name="uni06D1.fina" unicode="&#x6d1;" horiz-adv-x="864" 
d="M580 281v-281h-257q-265 0 -265 252v103h103v-72q0 -88 35.5 -129.5t120.5 -41.5h159v187q0 86 47 132.5t129 46.5h154v-366h58v-112h-162v364h-55q-36 0 -51.5 -20.5t-15.5 -62.5zM425 -158v91h91v-91h-91zM304 -158v91h90v-91h-90zM364 -285v90h91v-90h-91z" />
    <glyph glyph-name="uni06D2" unicode="&#x6d2;" horiz-adv-x="800" arabic-form="isolated" 
d="M742 -98v-113h-684v150q0 86 46 129.5t130 43.5h76q35 0 48.5 22t13.5 69v67h103v-100q0 -82 -44.5 -126t-120.5 -44h-72q-74 0 -74 -74v-24h578z" />
    <glyph glyph-name="uni06D3" unicode="&#x6d3;" horiz-adv-x="800" arabic-form="isolated" 
d="M313 541q49 0 87 -26l-26 -51q-30 18 -63 18q-21 0 -34 -11t-13 -27q0 -35 41 -35h94v-58h-229v58h37l2 2q-10 13 -10 35q0 38 30 66.5t84 28.5zM742 -98v-113h-684v150q0 86 46 129.5t130 43.5h76q35 0 48.5 22t13.5 69v67h103v-100q0 -82 -44.5 -126t-120.5 -44h-72
q-74 0 -74 -74v-24h578z" />
    <glyph glyph-name="uni06D5.fina" unicode="&#x6d5;" horiz-adv-x="541" 
d="M364 435v43h105v-272q0 -48 15.5 -70.5t56.5 -23.5v-112h-11q-55 0 -92 24.5t-49 63.5q-29 -26 -70.5 -41.5t-80.5 -15.5q-88 0 -134 42t-46 118q0 37 13.5 71.5t44.5 70.5t95 63.5t153 38.5zM245 139q120 0 120 127v66q-113 -13 -157 -51q-42 -37 -42 -76q0 -30 21 -48
t58 -18z" />
    <glyph glyph-name="uni06EE.fina" unicode="&#x6ee;" horiz-adv-x="506" 
d="M58 112h287v156q0 99 -96 99q-74 0 -125 -39l-55 88q73 61 185 61q195 0 195 -184v-181h57v-112h-448v112zM175 555l-42 21l86 172h58l85 -171l-42 -22l-74 121z" />
    <glyph glyph-name="uni06EF.fina" unicode="&#x6ef;" horiz-adv-x="228" 
d="M-54 -206v110q65 1 93 28.5t28 85.5v372h103v-278h58v-112h-58q-2 -104 -55.5 -154.5t-168.5 -51.5zM42 470l-42 21l86 172h58l85 -171l-42 -22l-74 121z" />
    <glyph glyph-name="uni06FA.init" unicode="&#x6fa;" horiz-adv-x="801" 
d="M294 0h-294q-24 0 -40.5 16t-16.5 40t16 40t41 16h154v278h103v-278h37q43 0 65.5 27.5t22.5 77.5v173h102v-188q0 -49 20.5 -76t57.5 -27q74 0 74 104q0 57 -26 127q-25 69 -63 110l84 63q41 -47 77 -131q35 -81 35 -171q0 -91 -43 -152q-42 -60 -133 -60q-96 0 -140 68
h-4q-41 -57 -129 -57zM538 621v-91h-91v91h91zM416 621v-91h-90v91h90zM477 749v-92h-91v92h91zM475 -82v-91h-91v91h91z" />
    <glyph glyph-name="uni06FA.medi" unicode="&#x6fa;" horiz-adv-x="819" 
d="M567 -10q-93 0 -139 66h-5q-45 -56 -129 -56h-294q-23 0 -39.5 16t-16.5 40q0 56 79 56h131v278h103v-278h37q43 0 65.5 27.5t22.5 77.5v173h102v-188q0 -49 20.5 -76t57.5 -27q76 0 76 104q0 57 -26 127q-25 69 -63 110l84 63q42 -49 76 -128q34 -78 34 -165v-5
q0 -92 76 -93v-112q-86 2 -116 54h-4q-42 -64 -132 -64zM538 621v-91h-91v91h91zM416 621v-91h-90v91h90zM477 749v-92h-91v92h91zM475 -82v-91h-91v91h91z" />
    <glyph glyph-name="uni06FA.fina" unicode="&#x6fa;" horiz-adv-x="1022" 
d="M1022 112v-112q-86 2 -116 54h-4q-42 -64 -132 -64q-93 0 -139 67h-5q-45 -57 -129 -57h-30v-10q0 -88 -58 -142q-59 -54 -147 -54q-95 0 -148.5 51t-53.5 138v302h103v-250q0 -64 22 -96.5t78 -32.5q47 0 74 30t27 76v378h103v-278h30q42 0 65 28t23 77v173h102v-188
q0 -49 20.5 -76t57.5 -27q76 0 76 104q0 57 -26 127q-25 69 -63 110l84 63q42 -49 76 -128q34 -78 34 -165v-5q0 -92 76 -93zM733 621v-91h-91v91h91zM611 621v-91h-90v91h90zM672 749v-92h-91v92h91zM675 -82v-91h-91v91h91z" />
    <glyph glyph-name="uni06FB.init" unicode="&#x6fb;" horiz-adv-x="653" 
d="M595 0h-595q-24 0 -40.5 15.5t-16.5 39.5t16.5 40.5t40.5 16.5h58v345h103v-88h6q46 51 107 80t123 29q95 0 146.5 -49.5t51.5 -138.5v-290zM161 143v-31h330v137q0 115 -114 115q-96 0 -156 -69q-60 -67 -60 -152zM400 -82v-91h-91v91h91zM400 646v-91h-91v91h91z" />
    <glyph glyph-name="uni06FB.medi" unicode="&#x6fb;" horiz-adv-x="652" 
d="M652 0h-652q-24 0 -40.5 15.5t-16.5 39.5t16.5 40.5t40.5 16.5h58v345h103v-88h6q46 51 107 80t123 29q95 0 146.5 -49.5t51.5 -138.5v-178h57v-112zM161 143v-31h330v137q0 115 -114 115q-96 0 -156 -69q-60 -67 -60 -152zM400 -82v-91h-91v91h91zM400 646v-91h-91v91
h91z" />
    <glyph glyph-name="uni06FB.fina" unicode="&#x6fb;" horiz-adv-x="962" 
d="M369 17v440h102v-88h7q45 51 106 80t123 29q95 0 146.5 -49.5t51.5 -138.5v-178h57v-112h-490v-9q0 -85 -57 -141q-58 -56 -152 -56q-99 0 -152 52.5t-53 142.5v296h103v-268q0 -50 24.5 -80.5t78.5 -30.5q22 0 36 9q69 15 69 102zM471 143v-31h330v137q0 115 -113 115
q-96 0 -157 -69q-60 -67 -60 -152zM722 -82v-91h-91v91h91zM722 646v-91h-91v91h91z" />
    <glyph glyph-name="uni06FC.init" unicode="&#x6fc;" horiz-adv-x="535" 
d="M174 232q0 -46 29 -84q29 -36 97 -36h159v-112h-459q-24 0 -40.5 15.5t-16.5 39.5t16.5 40.5t40.5 16.5h87l5 6q-34 34 -34 119q0 114 65 177q64 64 161 64q107 0 193 -71l-61 -94q-56 48 -126 48q-52 0 -84 -33t-32 -96zM313 -82v-91h-91v91h91zM313 646v-91h-91v91h91z
" />
    <glyph glyph-name="uni06FC.medi" unicode="&#x6fc;" horiz-adv-x="569" 
d="M0 112h52q72 0 105 15q-49 38 -74 84t-25 88q0 85 66 131q66 48 168 48q89 0 154 -44t65 -130q0 -46 -27 -94.5t-71 -80.5q48 -17 119 -17h37v-112h-44q-155 0 -238 56q-89 -56 -246 -56h-41q-24 0 -40.5 15.5t-16.5 39.5t16.5 40.5t40.5 16.5zM168 288q0 -31 31.5 -68
t91.5 -65q114 59 114 137q0 34 -28 56t-87 22q-60 0 -91 -23.5t-31 -58.5zM330 -82v-91h-91v91h91zM330 646v-91h-91v91h91z" />
    <glyph glyph-name="uni06FC.fina" unicode="&#x6fc;" horiz-adv-x="611" 
d="M58 -97q0 65 44 124q43 56 101 92q-53 42 -79 92t-26 95q0 86 63 129q62 43 159 43q93 0 163 -43t70 -128q0 -48 -36 -94t-96 -76q51 -25 150 -25h40v-112h-40q-77 0 -160 18q-84 20 -121 44q-125 -77 -125 -151q0 -40 36.5 -61t97.5 -21q30 0 62 5l15 -101
q-41 -11 -92 -11q-105 0 -165.5 47.5t-60.5 133.5zM209 303q0 -29 27.5 -63t81.5 -65q68 32 96.5 59t28.5 57q0 36 -35 58t-93 22q-49 0 -77.5 -18t-28.5 -50zM351 646v-91h-91v91h91zM496 -44v-91h-91v91h91z" />
    <glyph glyph-name="uni06FF.init" unicode="&#x6ff;" horiz-adv-x="691" 
d="M-56 55q0 25 16 41t40 16h48q42 0 59 -4l2 4q-24 16 -37.5 48.5t-13.5 71.5q0 70 42 120q41 48 112 56l-20 42q40 26 98 43t110 17q233 0 233 -264q0 -124 -65 -186q-64 -60 -158 -60h-410q-24 0 -40 15.5t-16 39.5zM381 115v-5q75 0 109.5 34t34.5 105q0 150 -130 150
q-33 0 -71 -15q92 -36 92 -157v-9q-1 -62 -35 -103zM236 313q-35 0 -55 -24.5t-20 -61.5q0 -40 25.5 -69.5t72.5 -38.5q51 29 51 103q0 41 -18.5 66t-55.5 25zM273 555l-42 21l86 172h58l85 -171l-42 -22l-74 121z" />
    <glyph glyph-name="uni06FF.medi" unicode="&#x6ff;" horiz-adv-x="708" 
d="M58 232q0 70 42 120q41 48 112 56l-20 42q40 26 98 43t110 17q234 0 234 -267v-12q0 -66 15.5 -92t58.5 -27v-112q-105 0 -140 62q-59 -62 -158 -62h-410q-25 0 -40.5 15.5t-15.5 40.5q0 24 15.5 40t40.5 16h50q35 0 57 -5q0 2 2 4q-24 17 -37.5 50.5t-13.5 70.5z
M381 115v-5q75 0 110 33.5t35 105.5q0 150 -131 150q-33 0 -71 -15q92 -36 92 -157v-9q-2 -65 -35 -103zM236 313q-35 0 -55 -24.5t-20 -61.5q0 -40 25.5 -69.5t72.5 -38.5q51 27 51 103q0 41 -18.5 66t-55.5 25zM270 555l-42 19l86 174h58l85 -173l-42 -20l-74 116z" />
    <glyph glyph-name="uni06FF.fina" unicode="&#x6ff;" horiz-adv-x="818" 
d="M520 0h-470v112h110q35 0 57 -5q0 2 2 4q-24 17 -37.5 50.5t-13.5 70.5q0 70 42 120q41 48 112 56l-20 42q40 26 98 43t110 17q234 0 234 -267v-12q0 -66 15.5 -92t58.5 -27v-112q-105 0 -140 62q-59 -62 -158 -62zM491 115v-5q75 0 110 33.5t35 105.5q0 150 -131 150
q-33 0 -71 -15q92 -36 92 -157v-9q-2 -65 -35 -103zM346 313q-35 0 -55 -24.5t-20 -61.5q0 -40 25.5 -69.5t72.5 -38.5q51 27 51 103q0 41 -18.5 66t-55.5 25zM411 555l-42 21l86 172h58l85 -171l-42 -22l-74 121z" />
    <glyph glyph-name="uni0671.fina" unicode="&#x671;" horiz-adv-x="231" arabic-form="final" 
d="M231 112v-112h-34q-71 0 -104 32.5t-33 108.5v535h103v-505q0 -32 12 -45.5t43 -13.5h13zM205 854q-24 0 -40 -16.5t-16 -40.5h91v24q0 15 -10 24t-25 9zM299 841v-101h-218q-43 0 -59 34l-37 -35h-4v68l46 46h8q16 -55 46 -55h8v113h60v-31h3q31 31 73 31q32 0 53 -18.5
t21 -51.5z" />
    <glyph glyph-name="uni067B.fina" unicode="&#x67b;" horiz-adv-x="778" arabic-form="final" 
d="M600 199v190h103v-191q0 -44 16.5 -64.5t58.5 -21.5v-112q-93 0 -122 56q-24 -32 -52.5 -44t-77.5 -12h-202q-264 0 -264 252v103h103v-72q0 -89 35 -130t120 -41h207q42 0 58.5 21t16.5 66zM453 -210v-91h-91v91h91zM453 -82v-92h-91v92h91z" />
    <glyph glyph-name="uni067B.init" unicode="&#x67b;" horiz-adv-x="229" arabic-form="initial" 
d="M68 211v244h103v-252q0 -203 -171 -203q-24 0 -40.5 15.5t-16.5 39.5t16.5 40t40.5 17q40 1 54 23.5t14 75.5zM148 -210v-91h-91v91h91zM148 -82v-92h-91v92h91z" />
    <glyph glyph-name="uni067B.medi" unicode="&#x67b;" horiz-adv-x="249" arabic-form="medial" 
d="M-57 55q0 22 16.5 39.5t40.5 17.5q37 0 54 22t17 70v186h103v-192q0 -45 17 -65t58 -21v-112q-92 0 -121 56q-41 -56 -128 -56q-24 0 -40.5 15.5t-16.5 39.5zM170 -210v-91h-91v91h91zM170 -82v-92h-91v92h91z" />
    <glyph glyph-name="uni067E.fina" unicode="&#x67e;" horiz-adv-x="778" arabic-form="final" 
d="M600 199v190h103v-191q0 -44 16.5 -64.5t58.5 -21.5v-112q-93 0 -122 56q-24 -32 -52.5 -44t-77.5 -12h-202q-264 0 -264 252v103h103v-72q0 -89 35 -130t120 -41h207q42 0 58.5 21t16.5 66zM423 -173v91h91v-91h-91zM302 -173v91h90v-91h-90zM362 -300v90h91v-90h-91z
" />
    <glyph glyph-name="uni067E.init" unicode="&#x67e;" horiz-adv-x="229" arabic-form="initial" 
d="M68 211v244h103v-252q0 -203 -171 -203q-24 0 -40.5 15.5t-16.5 39.5t16.5 40t40.5 17q40 1 54 23.5t14 75.5zM129 -173v91h91v-91h-91zM8 -173v91h90v-91h-90zM68 -300v90h91v-90h-91z" />
    <glyph glyph-name="uni067E.medi" unicode="&#x67e;" horiz-adv-x="249" arabic-form="medial" 
d="M-57 55q0 22 16.5 39.5t40.5 17.5q37 0 54 22t17 70v186h103v-192q0 -45 17 -65t58 -21v-112q-92 0 -121 56q-41 -56 -128 -56q-24 0 -40.5 15.5t-16.5 39.5zM139 -173v91h91v-91h-91zM18 -173v91h90v-91h-90zM78 -300v90h91v-90h-91z" />
    <glyph glyph-name="uni0680.fina" unicode="&#x680;" horiz-adv-x="778" arabic-form="final" 
d="M600 199v190h103v-191q0 -44 16.5 -64.5t58.5 -21.5v-112q-93 0 -122 56q-24 -32 -52.5 -44t-77.5 -12h-202q-264 0 -264 252v103h103v-72q0 -89 35 -130t120 -41h207q42 0 58.5 21t16.5 66zM514 -210v-91h-91v91h91zM392 -210v-91h-90v91h90zM514 -82v-92h-91v92h91z
M392 -82v-92h-90v92h90z" />
    <glyph glyph-name="uni0680.init" unicode="&#x680;" horiz-adv-x="229" arabic-form="initial" 
d="M220 -210v-91h-91v91h91zM98 -210v-91h-90v91h90zM220 -82v-92h-91v92h91zM98 -82v-92h-90v92h90zM68 211v244h103v-252q0 -203 -171 -203q-24 0 -40.5 15.5t-16.5 39.5t16.5 40t40.5 17q40 1 54 23.5t14 75.5z" />
    <glyph glyph-name="uni0680.medi" unicode="&#x680;" horiz-adv-x="249" arabic-form="medial" 
d="M-57 55q0 22 16.5 39.5t40.5 17.5q37 0 54 22t17 70v186h103v-192q0 -45 17 -65t58 -21v-112q-92 0 -121 56q-41 -56 -128 -56q-24 0 -40.5 15.5t-16.5 39.5zM230 -210v-91h-91v91h91zM108 -210v-91h-90v91h90zM230 -82v-92h-91v92h91zM108 -82v-92h-90v92h90z" />
    <glyph glyph-name="uni067A.fina" unicode="&#x67a;" horiz-adv-x="778" arabic-form="final" 
d="M600 199v190h103v-191q0 -44 16.5 -64.5t58.5 -21.5v-112q-93 0 -122 56q-24 -32 -52.5 -44t-77.5 -12h-202q-264 0 -264 252v103h103v-72q0 -89 35 -130t120 -41h207q42 0 58.5 21t16.5 66zM453 541v-91h-91v91h91zM453 669v-92h-91v92h91z" />
    <glyph glyph-name="uni067A.init" unicode="&#x67a;" horiz-adv-x="229" arabic-form="initial" 
d="M68 211v244h103v-252q0 -203 -171 -203q-24 0 -40.5 15.5t-16.5 39.5t16.5 40t40.5 17q40 1 54 23.5t14 75.5zM160 621v-91h-91v91h91zM160 749v-92h-91v92h91z" />
    <glyph glyph-name="uni067A.medi" unicode="&#x67a;" horiz-adv-x="249" arabic-form="medial" 
d="M-57 55q0 22 16.5 39.5t40.5 17.5q37 0 54 22t17 70v186h103v-192q0 -45 17 -65t58 -21v-112q-92 0 -121 56q-41 -56 -128 -56q-24 0 -40.5 15.5t-16.5 39.5zM170 561v-91h-91v91h91zM170 689v-92h-91v92h91z" />
    <glyph glyph-name="uni067F.fina" unicode="&#x67f;" horiz-adv-x="778" arabic-form="final" 
d="M600 199v190h103v-191q0 -44 16.5 -64.5t58.5 -21.5v-112q-93 0 -122 56q-24 -32 -52.5 -44t-77.5 -12h-202q-264 0 -264 252v103h103v-72q0 -89 35 -130t120 -41h207q42 0 58.5 21t16.5 66zM514 541v-91h-91v91h91zM392 541v-91h-90v91h90zM514 669v-92h-91v92h91z
M392 669v-92h-90v92h90z" />
    <glyph glyph-name="uni067F.init" unicode="&#x67f;" horiz-adv-x="229" arabic-form="initial" 
d="M68 211v244h103v-252q0 -203 -171 -203q-24 0 -40.5 15.5t-16.5 39.5t16.5 40t40.5 17q40 1 54 23.5t14 75.5zM220 621v-91h-91v91h91zM98 621v-91h-90v91h90zM220 749v-92h-91v92h91zM98 749v-92h-90v92h90z" />
    <glyph glyph-name="uni067F.medi" unicode="&#x67f;" horiz-adv-x="249" arabic-form="medial" 
d="M-57 55q0 22 16.5 39.5t40.5 17.5q37 0 54 22t17 70v186h103v-192q0 -45 17 -65t58 -21v-112q-92 0 -121 56q-41 -56 -128 -56q-24 0 -40.5 15.5t-16.5 39.5zM230 561v-91h-91v91h91zM108 561v-91h-90v91h90zM230 689v-92h-91v92h91zM108 689v-92h-90v92h90z" />
    <glyph glyph-name="uni0679.fina" unicode="&#x679;" horiz-adv-x="778" arabic-form="final" 
d="M600 199v190h103v-191q0 -44 16.5 -64.5t58.5 -21.5v-112q-93 0 -122 56q-24 -32 -52.5 -44t-77.5 -12h-202q-264 0 -264 252v103h103v-72q0 -89 35 -130t120 -41h207q42 0 58.5 21t16.5 66zM435 560q-22 0 -38 -14.5t-22 -38.5h95v15q0 38 -35 38zM529 547v-97h-252v58
h37v137h61v-59h1l2 -1q30 32 76 32q33 0 54 -18.5t21 -51.5z" />
    <glyph glyph-name="uni0679.init" unicode="&#x679;" horiz-adv-x="229" arabic-form="initial" 
d="M68 211v244h103v-252q0 -203 -171 -203q-24 0 -40.5 15.5t-16.5 39.5t16.5 40t40.5 17q40 1 54 23.5t14 75.5zM146 640q-22 0 -38 -14.5t-22 -38.5h95v15q0 38 -35 38zM240 627v-97h-252v58h37v137h61v-59h1q1 -1 2 -1q30 32 76 32q33 0 54 -18.5t21 -51.5z" />
    <glyph glyph-name="uni0679.medi" unicode="&#x679;" horiz-adv-x="249" arabic-form="medial" 
d="M-57 55q0 22 16.5 39.5t40.5 17.5q37 0 54 22t17 70v186h103v-192q0 -45 17 -65t58 -21v-112q-92 0 -121 56q-41 -56 -128 -56q-24 0 -40.5 15.5t-16.5 39.5zM156 580q-22 0 -38 -14.5t-22 -38.5h95v15q0 38 -35 38zM250 567v-97h-252v58h37v137h61v-59h1q1 -1 2 -1
q30 32 76 32q33 0 54 -18.5t21 -51.5z" />
    <glyph glyph-name="uni06A4.fina" unicode="&#x6a4;" horiz-adv-x="858" arabic-form="final" 
d="M164 355v-72q0 -87 35.5 -129t117.5 -42h69q43 0 58 -3q0 1 0.5 3t0.5 3q-31 22 -49.5 64t-18.5 87q0 94 56 153t153 59q100 0 157 -60t57 -162q0 -37 -12.5 -75.5t-32.5 -62.5l2 -6h101v-112h-529q-189 0 -246 129q-25 53 -25 199v27h106zM588 368q-49 0 -76.5 -29.5
t-27.5 -75.5q0 -55 39 -95t105 -53q66 43 66 133q0 54 -29 87t-77 33zM691 646v-91h-91v91h91zM569 646v-91h-90v91h90zM630 774v-92h-91v92h91z" />
    <glyph glyph-name="uni06A4.init" unicode="&#x6a4;" horiz-adv-x="535" arabic-form="initial" 
d="M251 0h-251q-24 0 -40 15.5t-16 40.5q0 24 15.5 40t40.5 16h75q41 0 62 -4q0 2 1 3v2q-80 41 -80 150q0 94 56 155q56 60 152 60q103 0 157 -61.5t54 -175.5q0 -117 -59.5 -179t-166.5 -62zM371 248q0 57 -26 88t-76 31t-77 -31.5t-27 -79.5q0 -55 41.5 -89t113.5 -42
q51 35 51 123zM373 646v-91h-91v91h91zM251 646v-91h-90v91h90zM312 774v-92h-91v92h91z" />
    <glyph glyph-name="uni06A4.medi" unicode="&#x6a4;" horiz-adv-x="539" arabic-form="medial" 
d="M-56 56q0 24 15.5 40t40.5 16h67q43 0 58 -3q0 1 0.5 3t0.5 3q-31 22 -49.5 64t-18.5 87q0 94 56 153t153 59q100 0 157 -60t57 -162q0 -37 -12.5 -75.5t-32.5 -62.5l2 -6h101v-112h-539q-24 0 -40 15.5t-16 40.5zM269 368q-49 0 -76.5 -29.5t-27.5 -75.5q0 -55 39 -95
t105 -53q66 43 66 133q0 54 -28.5 87t-77.5 33zM375 646v-91h-91v91h91zM253 646v-91h-90v91h90zM314 774v-92h-91v92h91z" />
    <glyph glyph-name="uni06A6.fina" unicode="&#x6a6;" horiz-adv-x="858" arabic-form="final" 
d="M164 355v-72q0 -87 35.5 -129t117.5 -42h69q43 0 58 -3q0 1 0.5 3t0.5 3q-31 22 -49.5 64t-18.5 87q0 94 56 153t153 59q100 0 157 -60t57 -162q0 -37 -12.5 -75.5t-32.5 -62.5l2 -6h101v-112h-529q-189 0 -246 129q-25 53 -25 199v27h106zM588 368q-49 0 -76.5 -29.5
t-27.5 -75.5q0 -55 39 -95t105 -53q66 43 66 133q0 54 -29 87t-77 33zM691 646v-91h-91v91h91zM569 646v-91h-90v91h90zM691 774v-92h-91v92h91zM569 774v-92h-90v92h90z" />
    <glyph glyph-name="uni06A6.init" unicode="&#x6a6;" horiz-adv-x="535" arabic-form="initial" 
d="M251 0h-251q-24 0 -40 15.5t-16 40.5q0 24 15.5 40t40.5 16h75q41 0 62 -4q0 2 1 3v2q-80 41 -80 150q0 94 56 155q56 60 152 60q103 0 157 -61.5t54 -175.5q0 -117 -59.5 -179t-166.5 -62zM371 248q0 57 -26 88t-76 31t-77 -31.5t-27 -79.5q0 -55 41.5 -89t113.5 -42
q51 35 51 123zM373 646v-91h-91v91h91zM251 646v-91h-90v91h90zM373 774v-92h-91v92h91zM251 774v-92h-90v92h90z" />
    <glyph glyph-name="uni06A6.medi" unicode="&#x6a6;" horiz-adv-x="539" arabic-form="medial" 
d="M-56 56q0 24 15.5 40t40.5 16h67q43 0 58 -3q0 1 0.5 3t0.5 3q-31 22 -49.5 64t-18.5 87q0 94 56 153t153 59q100 0 157 -60t57 -162q0 -37 -12.5 -75.5t-32.5 -62.5l2 -6h101v-112h-539q-24 0 -40 15.5t-16 40.5zM269 368q-49 0 -76.5 -29.5t-27.5 -75.5q0 -55 39 -95
t105 -53q66 43 66 133q0 54 -28.5 87t-77.5 33zM375 646v-91h-91v91h91zM253 646v-91h-90v91h90zM375 774v-92h-91v92h91zM253 774v-92h-90v92h90z" />
    <glyph glyph-name="uni0684.fina" unicode="&#x684;" horiz-adv-x="558" arabic-form="final" 
d="M282 112h122l4 6q-20 18 -27 64l-6 49l-5 48q-10 87 -92 87q-64 0 -126 -35l-44 90q82 57 176 57q174 0 194 -201q10 -105 26 -135t47 -30h7v-112h-293q-49 0 -75 -24t-26 -64q0 -82 119 -82q38 0 70 7l15 -102q-40 -12 -104 -12q-96 0 -151 48t-55 137q0 99 64 151
q65 53 160 53zM465 -137v-64h-61v64h61zM465 -54v-66h-61v66h61z" />
    <glyph glyph-name="uni0684.init" unicode="&#x684;" horiz-adv-x="505" arabic-form="initial" 
d="M480 0h-480q-24 0 -40 15.5t-16 40.5q0 24 16 40t40 16h355l3 6q-15 13 -22 40q-7 34 -11 71q-5 46 -9 67q-15 70 -88 70q-64 0 -125 -35l-45 90q82 57 176 57q172 0 193 -185q4 -34 4 -38l8 -65q13 -63 41 -76v-114zM270 -210v-91h-91v91h91zM270 -82v-92h-91v92h91z
" />
    <glyph glyph-name="uni0684.medi" unicode="&#x684;" horiz-adv-x="508" arabic-form="medial" 
d="M234 478q174 0 194 -201q10 -105 26 -135t47 -30h7v-112h-508q-24 0 -40 15.5t-16 40.5q0 24 16 40t40 16h354l4 6q-20 18 -27 64l-6 49l-5 48q-10 87 -92 87q-64 0 -126 -35l-44 90q82 57 176 57zM270 -210v-91h-91v91h91zM270 -82v-92h-91v92h91z" />
    <glyph glyph-name="uni0683.fina" unicode="&#x683;" horiz-adv-x="558" arabic-form="final" 
d="M282 112h122l4 6q-20 18 -27 64l-6 49l-5 48q-10 87 -92 87q-64 0 -126 -35l-44 90q82 57 176 57q174 0 194 -201q10 -105 26 -135t47 -30h7v-112h-293q-49 0 -75 -24t-26 -64q0 -82 119 -82q38 0 70 7l15 -102q-40 -12 -104 -12q-96 0 -151 48t-55 137q0 99 64 151
q65 53 160 53zM475 -51v-64h-61v64h61zM398 -51v-64h-62v64h62z" />
    <glyph glyph-name="uni0683.init" unicode="&#x683;" horiz-adv-x="505" arabic-form="initial" 
d="M480 0h-480q-24 0 -40 15.5t-16 40.5q0 24 16 40t40 16h355l3 6q-15 13 -22 40q-7 34 -11 71q-5 46 -9 67q-15 70 -88 70q-64 0 -125 -35l-45 90q82 57 176 57q172 0 193 -185q4 -34 4 -38l8 -65q13 -63 41 -76v-114zM341 -82v-91h-91v91h91zM219 -82v-91h-90v91h90z" />
    <glyph glyph-name="uni0683.medi" unicode="&#x683;" horiz-adv-x="508" arabic-form="medial" 
d="M234 478q174 0 194 -201q10 -105 26 -135t47 -30h7v-112h-508q-24 0 -40 15.5t-16 40.5q0 24 16 40t40 16h354l4 6q-20 18 -27 64l-6 49l-5 48q-10 87 -92 87q-64 0 -126 -35l-44 90q82 57 176 57zM341 -82v-91h-91v91h91zM219 -82v-91h-90v91h90z" />
    <glyph glyph-name="uni0686.fina" unicode="&#x686;" horiz-adv-x="558" arabic-form="final" 
d="M282 112h122l4 6q-20 18 -27 64l-6 49l-5 48q-10 87 -92 87q-64 0 -126 -35l-44 90q82 57 176 57q174 0 194 -201q10 -105 26 -135t47 -30h7v-112h-293q-49 0 -75 -24t-26 -64q0 -82 119 -82q38 0 70 7l15 -102q-40 -12 -104 -12q-96 0 -151 48t-55 137q0 99 64 151
q65 53 160 53zM439 -131v65h61v-65h-61zM361 -131v65h62v-65h-62zM400 -213v65h61v-65h-61z" />
    <glyph glyph-name="uni0686.init" unicode="&#x686;" horiz-adv-x="505" arabic-form="initial" 
d="M480 0h-480q-24 0 -40 15.5t-16 40.5q0 24 16 40t40 16h355l3 6q-15 13 -22 40q-7 34 -11 71q-5 46 -9 67q-15 70 -88 70q-64 0 -125 -35l-45 90q82 57 176 57q172 0 193 -185q4 -34 4 -38l8 -65q13 -63 41 -76v-114zM267 -173v91h91v-91h-91zM146 -173v91h90v-91h-90z
M206 -300v90h91v-90h-91z" />
    <glyph glyph-name="uni0686.medi" unicode="&#x686;" horiz-adv-x="508" arabic-form="medial" 
d="M234 478q174 0 194 -201q10 -105 26 -135t47 -30h7v-112h-508q-24 0 -40 15.5t-16 40.5q0 24 16 40t40 16h354l4 6q-20 18 -27 64l-6 49l-5 48q-10 87 -92 87q-64 0 -126 -35l-44 90q82 57 176 57zM269 -173v91h91v-91h-91zM148 -173v91h90v-91h-90zM208 -300v90h91v-90
h-91z" />
    <glyph glyph-name="uni0687.fina" unicode="&#x687;" horiz-adv-x="558" arabic-form="final" 
d="M282 112h122l4 6q-20 18 -27 64l-6 49l-5 48q-10 87 -92 87q-64 0 -126 -35l-44 90q82 57 176 57q174 0 194 -201q10 -105 26 -135t47 -30h7v-112h-293q-49 0 -75 -24t-26 -64q0 -82 119 -82q38 0 70 7l15 -102q-40 -12 -104 -12q-96 0 -151 48t-55 137q0 99 64 151
q65 53 160 53zM511 -116v-64h-61v64h61zM434 -116v-64h-62v64h62zM511 -33v-66h-61v66h61zM434 -33v-66h-62v66h62z" />
    <glyph glyph-name="uni0687.init" unicode="&#x687;" horiz-adv-x="505" arabic-form="initial" 
d="M480 0h-480q-24 0 -40 15.5t-16 40.5q0 24 16 40t40 16h355l3 6q-15 13 -22 40q-7 34 -11 71q-5 46 -9 67q-15 70 -88 70q-64 0 -125 -35l-45 90q82 57 176 57q172 0 193 -185q4 -34 4 -38l8 -65q13 -63 41 -76v-114zM346 -210v-91h-91v91h91zM224 -210v-91h-90v91h90z
M346 -82v-92h-91v92h91zM224 -82v-92h-90v92h90z" />
    <glyph glyph-name="uni0687.medi" unicode="&#x687;" horiz-adv-x="508" arabic-form="medial" 
d="M234 478q174 0 194 -201q10 -105 26 -135t47 -30h7v-112h-508q-24 0 -40 15.5t-16 40.5q0 24 16 40t40 16h354l4 6q-20 18 -27 64l-6 49l-5 48q-10 87 -92 87q-64 0 -126 -35l-44 90q82 57 176 57zM346 -210v-91h-91v91h91zM224 -210v-91h-90v91h90zM346 -82v-92h-91v92
h91zM224 -82v-92h-90v92h90z" />
    <glyph glyph-name="uni068D.fina" unicode="&#x68d;" horiz-adv-x="506" arabic-form="final" 
d="M58 112h287v156q0 99 -96 99q-74 0 -125 -39l-55 88q73 61 185 61q195 0 195 -184v-181h57v-112h-448v112zM351 -82v-91h-91v91h91zM229 -82v-91h-90v91h90z" />
    <glyph glyph-name="uni068C.fina" unicode="&#x68c;" horiz-adv-x="506" arabic-form="final" 
d="M58 112h287v156q0 99 -96 99q-74 0 -125 -39l-55 88q73 61 185 61q195 0 195 -184v-181h57v-112h-448v112zM351 646v-91h-91v91h91zM229 646v-91h-90v91h90z" />
    <glyph glyph-name="uni068E.fina" unicode="&#x68e;" horiz-adv-x="506" arabic-form="final" 
d="M58 112h287v156q0 99 -96 99q-74 0 -125 -39l-55 88q73 61 185 61q195 0 195 -184v-181h57v-112h-448v112zM351 646v-91h-91v91h91zM229 646v-91h-90v91h90zM290 774v-92h-91v92h91z" />
    <glyph glyph-name="uni0688.fina" unicode="&#x688;" horiz-adv-x="506" arabic-form="final" 
d="M58 112h287v156q0 99 -96 99q-74 0 -125 -39l-55 88q73 61 185 61q195 0 195 -184v-181h57v-112h-448v112zM280 665q-22 0 -38 -14.5t-22 -38.5h95v15q0 38 -35 38zM374 652v-97h-252v58h37v137h61v-59l1 -1h2q30 32 76 32q33 0 54 -18.5t21 -51.5z" />
    <glyph glyph-name="uni0698.fina" unicode="&#x698;" horiz-adv-x="228" arabic-form="final" 
d="M-54 -206v110q65 1 93 28.5t28 85.5v372h103v-278h58v-112h-58q-2 -104 -55.5 -154.5t-168.5 -51.5zM220 561v-91h-91v91h91zM98 561v-91h-90v91h90zM159 689v-92h-91v92h91z" />
    <glyph glyph-name="uni06A9.fina" unicode="&#x6a9;" horiz-adv-x="806" arabic-form="final" 
d="M597 280l-226 137v75l379 244l50 -77l-305 -196l163 -98q63 -36 79 -90q12 -38 12 -97v-66h57v-112h-483q-265 0 -265 252v100h103v-69q0 -88 35.5 -129.5t120.5 -41.5h329v60q0 80 -49 108z" />
    <glyph glyph-name="uni06A9.init" unicode="&#x6a9;" horiz-adv-x="504" arabic-form="initial" 
d="M0 112h333v60q0 41 -10.5 66t-38.5 42l-226 137v75l379 244l51 -77l-306 -196l163 -98q63 -36 79 -90q12 -38 12 -97v-178h-437q-26 0 -41.5 15.5t-15.5 40.5t16 40.5t42 15.5z" />
    <glyph glyph-name="uni06A9.medi" unicode="&#x6a9;" horiz-adv-x="504" arabic-form="medial" 
d="M0 112h333v60q0 41 -10.5 66t-38.5 42l-226 137v75l379 244l51 -77l-306 -196l163 -98q63 -36 79 -90q12 -38 12 -97v-66h68v-112h-505q-26 0 -41.5 15.5t-15.5 40.5t16 40.5t42 15.5z" />
    <glyph glyph-name="uni06AF.fina" unicode="&#x6af;" horiz-adv-x="806" arabic-form="final" 
d="M597 280l-226 137v75l379 244l50 -77l-305 -196l163 -98q63 -36 79 -90q12 -38 12 -97v-66h57v-112h-483q-265 0 -265 252v100h103v-69q0 -88 35.5 -129.5t120.5 -41.5h329v60q0 80 -49 108zM283 593l377 242l31 -51l-376 -242z" />
    <glyph glyph-name="uni06AF.init" unicode="&#x6af;" horiz-adv-x="504" arabic-form="initial" 
d="M0 112h333v60q0 41 -10.5 66t-38.5 42l-226 137v75l379 244l51 -77l-306 -196l163 -98q63 -36 79 -90q12 -38 12 -97v-178h-437q-26 0 -41.5 15.5t-15.5 40.5t16 40.5t42 15.5zM-7 598l377 242l31 -51l-376 -242z" />
    <glyph glyph-name="uni06AF.medi" unicode="&#x6af;" horiz-adv-x="504" arabic-form="medial" 
d="M0 112h333v60q0 41 -10.5 66t-38.5 42l-226 137v75l379 244l51 -77l-306 -196l163 -98q63 -36 79 -90q12 -38 12 -97v-66h68v-112h-505q-26 0 -41.5 15.5t-15.5 40.5t16 40.5t42 15.5zM-7 598l377 242l31 -51l-376 -242z" />
    <glyph glyph-name="uni06B3.fina" unicode="&#x6b3;" horiz-adv-x="806" arabic-form="final" 
d="M597 280l-226 137v75l379 244l50 -77l-305 -196l163 -98q63 -36 79 -90q12 -38 12 -97v-66h57v-112h-483q-265 0 -265 252v100h103v-69q0 -88 35.5 -129.5t120.5 -41.5h329v60q0 80 -49 108zM283 593l377 242l31 -51l-376 -242zM493 -210v-91h-91v91h91zM493 -82v-92h-91
v92h91z" />
    <glyph glyph-name="uni06B3.init" unicode="&#x6b3;" horiz-adv-x="504" arabic-form="initial" 
d="M0 112h333v60q0 41 -10.5 66t-38.5 42l-226 137v75l379 244l51 -77l-306 -196l163 -98q63 -36 79 -90q12 -38 12 -97v-178h-437q-26 0 -41.5 15.5t-15.5 40.5t16 40.5t42 15.5zM-7 598l377 242l31 -51l-376 -242zM283 -210v-91h-91v91h91zM283 -82v-92h-91v92h91z" />
    <glyph glyph-name="uni06B3.medi" unicode="&#x6b3;" horiz-adv-x="504" arabic-form="medial" 
d="M0 112h333v60q0 41 -10.5 66t-38.5 42l-226 137v75l379 244l51 -77l-306 -196l163 -98q63 -36 79 -90q12 -38 12 -97v-66h68v-112h-505q-26 0 -41.5 15.5t-15.5 40.5t16 40.5t42 15.5zM-7 598l377 242l31 -51l-376 -242zM283 -210v-91h-91v91h91zM283 -82v-92h-91v92h91z
" />
    <glyph glyph-name="uni06B1.fina" unicode="&#x6b1;" horiz-adv-x="806" arabic-form="final" 
d="M597 280l-226 137v75l379 244l50 -77l-305 -196l163 -98q63 -36 79 -90q12 -38 12 -97v-66h57v-112h-483q-265 0 -265 252v100h103v-69q0 -88 35.5 -129.5t120.5 -41.5h329v60q0 80 -49 108zM283 593l377 242l31 -51l-376 -242zM464 843v-64h-61v64h61zM376 779v-64h-61
v64h61z" />
    <glyph glyph-name="uni06B1.init" unicode="&#x6b1;" horiz-adv-x="504" arabic-form="initial" 
d="M0 112h333v60q0 41 -10.5 66t-38.5 42l-226 137v75l379 244l51 -77l-306 -196l163 -98q63 -36 79 -90q12 -38 12 -97v-178h-437q-26 0 -41.5 15.5t-15.5 40.5t16 40.5t42 15.5zM-7 598l377 242l31 -51l-376 -242zM197 843v-64h-61v64h61zM109 779v-64h-61v64h61z" />
    <glyph glyph-name="uni06B1.medi" unicode="&#x6b1;" horiz-adv-x="504" arabic-form="medial" 
d="M0 112h333v60q0 41 -10.5 66t-38.5 42l-226 137v75l379 244l51 -77l-306 -196l163 -98q63 -36 79 -90q12 -38 12 -97v-66h68v-112h-505q-26 0 -41.5 15.5t-15.5 40.5t16 40.5t42 15.5zM-7 598l377 242l31 -51l-376 -242zM197 843v-64h-61v64h61zM109 779v-64h-61v64h61z
" />
    <glyph glyph-name="uni06C0.fina" unicode="&#x6c0;" horiz-adv-x="541" arabic-form="final" 
d="M364 435v43h105v-272q0 -48 15.5 -70.5t56.5 -23.5v-112h-11q-55 0 -92 24.5t-49 63.5q-29 -26 -70.5 -41.5t-80.5 -15.5q-88 0 -134 42t-46 118q0 37 13.5 71.5t44.5 70.5t95 63.5t153 38.5zM245 139q120 0 120 127v66q-113 -13 -157 -51q-42 -37 -42 -76q0 -30 21 -48
t58 -18zM273 720q49 0 87 -26l-26 -51q-30 18 -63 18q-21 0 -34 -11t-13 -27q0 -35 41 -35h94v-58h-229v58h37l2 2q-10 13 -10 35q0 38 30 66.5t84 28.5z" />
    <glyph glyph-name="uni06C1.fina" unicode="&#x6c1;" horiz-adv-x="518" arabic-form="final" 
d="M441 237v-21q0 -56 16.5 -80t60.5 -24v-112q-95 0 -138.5 41.5t-43.5 134.5v46q0 48 -22.5 73.5t-64.5 25.5q-40 0 -63 -26t-23 -76q0 -56 21.5 -81.5t74.5 -25.5h28v-112h-51q-178 0 -178 207q0 109 51 167.5t145 58.5q88 0 137.5 -50.5t49.5 -145.5z" />
    <glyph glyph-name="uni06C1.init" unicode="&#x6c1;" horiz-adv-x="229" arabic-form="initial" 
d="M68 211v244h103v-252q0 -203 -171 -203q-24 0 -40.5 15.5t-16.5 39.5t16.5 40t40.5 17q40 1 54 23.5t14 75.5zM131 -119l48 -29q-46 -85 -108 -85q-29 0 -46.5 16t-17.5 44q0 13 5 33l39 122h66l-41 -130q-1 -4 -2 -9v-3q0 -8 7 -8q16 0 50 49z" />
    <glyph glyph-name="uni06C1.medi" unicode="&#x6c1;" horiz-adv-x="417" arabic-form="medial" 
d="M0 112q41 0 56 22.5t15 74.5v79h103v-204q0 -79 29 -119h4q23 147 162 147h48v-112h-44q-85 0 -85 -117q6 -4 58 -21l-31 -92q-115 26 -172 87t-65 159l-5 5q-27 -21 -73 -21q-24 0 -40.5 15.5t-16.5 39.5t16.5 40.5t40.5 16.5zM126 -256l48 -29q-46 -85 -108 -85
q-29 0 -46.5 16t-17.5 44q0 13 5 33l39 122h66l-41 -130q-1 -4 -2 -9v-3q0 -8 7 -8q16 0 50 49z" />
    <glyph glyph-name="uni06BE.fina" unicode="&#x6be;" horiz-adv-x="818" arabic-form="final" 
d="M520 0h-470v112h110q35 0 57 -5q0 2 2 4q-24 17 -37.5 50.5t-13.5 70.5q0 70 42 120q41 48 112 56l-20 42q40 26 98 43t110 17q234 0 234 -267v-12q0 -66 15.5 -92t58.5 -27v-112q-105 0 -140 62q-59 -62 -158 -62zM491 115v-5q75 0 110 33.5t35 105.5q0 150 -131 150
q-33 0 -71 -15q92 -36 92 -157v-9q-2 -65 -35 -103zM346 313q-35 0 -55 -24.5t-20 -61.5q0 -40 25.5 -69.5t72.5 -38.5q51 27 51 103q0 41 -18.5 66t-55.5 25z" />
    <glyph glyph-name="uni06BE.init" unicode="&#x6be;" horiz-adv-x="691" arabic-form="initial" 
d="M-56 55q0 25 16 41t40 16h48q42 0 59 -4l2 4q-24 16 -37.5 48.5t-13.5 71.5q0 70 42 120q41 48 112 56l-20 42q40 26 98 43t110 17q233 0 233 -264q0 -124 -65 -186q-64 -60 -158 -60h-410q-24 0 -40 15.5t-16 39.5zM381 115v-5q75 0 109.5 34t34.5 105q0 150 -130 150
q-33 0 -71 -15q92 -36 92 -157v-9q-1 -62 -35 -103zM236 313q-35 0 -55 -24.5t-20 -61.5q0 -40 25.5 -69.5t72.5 -38.5q51 29 51 103q0 41 -18.5 66t-55.5 25z" />
    <glyph glyph-name="uni06BE.medi" unicode="&#x6be;" horiz-adv-x="708" arabic-form="medial" 
d="M58 232q0 70 42 120q41 48 112 56l-20 42q40 26 98 43t110 17q234 0 234 -267v-12q0 -66 15.5 -92t58.5 -27v-112q-105 0 -140 62q-59 -62 -158 -62h-410q-25 0 -40.5 15.5t-15.5 40.5q0 24 15.5 40t40.5 16h50q35 0 57 -5q0 2 2 4q-24 17 -37.5 50.5t-13.5 70.5z
M381 115v-5q75 0 110 33.5t35 105.5q0 150 -131 150q-33 0 -71 -15q92 -36 92 -157v-9q-2 -65 -35 -103zM236 313q-35 0 -55 -24.5t-20 -61.5q0 -40 25.5 -69.5t72.5 -38.5q51 27 51 103q0 41 -18.5 66t-55.5 25z" />
    <glyph glyph-name="uni06D2.fina" unicode="&#x6d2;" horiz-adv-x="298" arabic-form="final" 
d="M727 -98v-113h-669v150q0 86 46 129.5t130 43.5h64v-112h-59q-74 0 -74 -75v-23h562z" />
    <glyph glyph-name="uni06D3.fina" unicode="&#x6d3;" horiz-adv-x="463" arabic-form="final" 
d="M839 -98v-113h-781v381q0 83 46.5 130.5t122.5 47.5h179v-236h57v-112h-163v229h-57q-79 0 -79 -95v-232h675zM278 626q49 0 87 -26l-26 -51q-30 18 -63 18q-21 0 -34 -11t-13 -27q0 -35 41 -35h94v-58h-229v58h37l2 2q-10 13 -10 35q0 38 30 66.5t84 28.5z" />
    <glyph glyph-name="uni06AD.fina" unicode="&#x6ad;" horiz-adv-x="778" arabic-form="final" 
d="M600 199v527h103v-528q0 -44 16.5 -64.5t58.5 -21.5v-112q-93 0 -122 56q-24 -32 -52.5 -44t-77.5 -12h-202q-264 0 -264 252v103h103v-72q0 -89 35 -130t120 -41h207q42 0 58.5 21t16.5 66zM416 496q49 0 87 -26l-26 -51q-30 18 -63 18q-21 0 -34 -11t-13 -27
q0 -35 41 -35h94v-58h-229v58h37l2 2q-10 13 -10 35q0 38 30 66.5t84 28.5zM510 621v-91h-91v91h91zM388 621v-91h-90v91h90zM449 749v-92h-91v92h91z" />
    <glyph glyph-name="uni06AD.init" unicode="&#x6ad;" horiz-adv-x="504" arabic-form="initial" 
d="M0 112h333v60q0 41 -10.5 66t-38.5 42l-226 137v75l379 244l51 -77l-306 -196l163 -98q63 -36 79 -90q12 -38 12 -97v-178h-437q-26 0 -41.5 15.5t-15.5 40.5t16 40.5t42 15.5zM238 723v-64h-61v64h61zM161 723v-64h-62v64h62zM199 806v-66h-61v66h61z" />
    <glyph glyph-name="uni06AD.medi" unicode="&#x6ad;" horiz-adv-x="504" arabic-form="medial" 
d="M0 112h333v60q0 41 -10.5 66t-38.5 42l-226 137v75l379 244l51 -77l-306 -196l163 -98q63 -36 79 -90q12 -38 12 -97v-66h68v-112h-505q-26 0 -41.5 15.5t-15.5 40.5t16 40.5t42 15.5zM238 723v-64h-61v64h61zM161 723v-64h-62v64h62zM199 806v-66h-61v66h61z" />
    <glyph glyph-name="uni06C7.fina" unicode="&#x6c7;" horiz-adv-x="541" arabic-form="final" 
d="M280 478q98 0 150.5 -60t52.5 -175v-131h58v-112h-58q-3 -106 -63 -164t-167 -58h-152v113h149q64 0 93 35q30 34 30 77h-89q-226 0 -226 229q0 117 57.5 181.5t164.5 64.5zM275 112h102v120q0 133 -101 133q-53 0 -83 -34.5t-30 -99.5q0 -119 112 -119zM161 605l90 27
l1 3q-22 16 -22 47q0 28 19.5 48.5t49.5 20.5q34 0 55 -22.5t21 -55.5q0 -29 -18 -52.5t-51 -32.5l-145 -40v57z" />
    <glyph glyph-name="uni06C6.fina" unicode="&#x6c6;" horiz-adv-x="541" arabic-form="final" 
d="M280 478q98 0 150.5 -60t52.5 -175v-131h58v-112h-58q-3 -106 -63 -164t-167 -58h-152v113h149q64 0 93 35q30 34 30 77h-89q-226 0 -226 229q0 117 57.5 181.5t164.5 64.5zM275 112h102v120q0 133 -101 133q-53 0 -83 -34.5t-30 -99.5q0 -119 112 -119zM296 555h-58
l-86 172l42 21l71 -121l74 121l42 -22z" />
    <glyph glyph-name="uni06C8.fina" unicode="&#x6c8;" horiz-adv-x="541" arabic-form="final" 
d="M280 478q98 0 150.5 -60t52.5 -175v-131h58v-112h-58q-3 -106 -63 -164t-167 -58h-152v113h149q64 0 93 35q30 34 30 77h-89q-226 0 -226 229q0 117 57.5 181.5t164.5 64.5zM275 112h102v120q0 133 -101 133q-53 0 -83 -34.5t-30 -99.5q0 -119 112 -119zM236 728h63v-173
h-63v173z" />
    <glyph glyph-name="uni06CB.fina" unicode="&#x6cb;" horiz-adv-x="541" arabic-form="final" 
d="M280 478q98 0 150.5 -60t52.5 -175v-131h58v-112h-58q-3 -106 -63 -164t-167 -58h-152v113h149q64 0 93 35q30 34 30 77h-89q-226 0 -226 229q0 117 57.5 181.5t164.5 64.5zM275 112h102v120q0 133 -101 133q-53 0 -83 -34.5t-30 -99.5q0 -119 112 -119zM374 646v-91h-91
v91h91zM252 646v-91h-90v91h90zM313 774v-92h-91v92h91z" />
    <glyph glyph-name="uni06C5.fina" unicode="&#x6c5;" horiz-adv-x="541" arabic-form="final" 
d="M280 478q98 0 150.5 -60t52.5 -175v-131h58v-112h-58q-3 -106 -63 -164t-167 -58h-152v113h149q59 0 91 32h-170v44h196q6 19 6 36h-89q-226 0 -226 229q0 117 57.5 181.5t164.5 64.5zM275 112h102v120q0 133 -101 133q-53 0 -83 -34.5t-30 -99.5q0 -119 112 -119z" />
    <glyph glyph-name="uni06C9.fina" unicode="&#x6c9;" horiz-adv-x="541" arabic-form="final" 
d="M280 478q98 0 150.5 -60t52.5 -175v-131h58v-112h-58q-3 -106 -63 -164t-167 -58h-152v113h149q64 0 93 35q30 34 30 77h-89q-226 0 -226 229q0 117 57.5 181.5t164.5 64.5zM275 112h102v120q0 133 -101 133q-53 0 -83 -34.5t-30 -99.5q0 -119 112 -119zM195 555l-42 21
l86 172h58l85 -171l-42 -22l-74 121z" />
    <glyph glyph-name="uni06D0.fina" unicode="&#x6d0;" horiz-adv-x="864" arabic-form="final" 
d="M580 281v-281h-257q-265 0 -265 252v103h103v-72q0 -88 35.5 -129.5t120.5 -41.5h159v187q0 86 47 132.5t129 46.5h154v-366h58v-112h-162v364h-55q-36 0 -51.5 -20.5t-15.5 -62.5zM455 -210v-91h-91v91h91zM455 -82v-92h-91v92h91z" />
    <glyph glyph-name="uni06D0.init" unicode="&#x6d0;" horiz-adv-x="229" arabic-form="initial" 
d="M68 211v244h103v-252q0 -203 -171 -203q-24 0 -40.5 15.5t-16.5 39.5t16.5 40t40.5 17q40 1 54 23.5t14 75.5zM148 -210v-91h-91v91h91zM148 -82v-92h-91v92h91z" />
    <glyph glyph-name="uni06D0.medi" unicode="&#x6d0;" horiz-adv-x="249" arabic-form="medial" 
d="M-57 55q0 22 16.5 39.5t40.5 17.5q37 0 54 22t17 70v186h103v-192q0 -45 17 -65t58 -21v-112q-92 0 -121 56q-41 -56 -128 -56q-24 0 -40.5 15.5t-16.5 39.5zM170 -210v-91h-91v91h91zM170 -82v-92h-91v92h91z" />
    <glyph glyph-name="uni0649.init" unicode="&#x649;" horiz-adv-x="229" arabic-form="initial" 
d="M68 211v244h103v-252q0 -203 -171 -203q-24 0 -40.5 15.5t-16.5 39.5t16.5 40t40.5 17q40 1 54 23.5t14 75.5z" />
    <glyph glyph-name="uni0649.medi" unicode="&#x649;" horiz-adv-x="249" arabic-form="medial" 
d="M-57 55q0 22 16.5 39.5t40.5 17.5q37 0 54 22t17 70v186h103v-192q0 -45 17 -65t58 -21v-112q-92 0 -121 56q-41 -56 -128 -56q-24 0 -40.5 15.5t-16.5 39.5z" />
    <glyph glyph-name="uni06CC.fina" unicode="&#x6cc;" horiz-adv-x="864" arabic-form="final" 
d="M580 281v-281h-257q-265 0 -265 252v103h103v-72q0 -88 35.5 -129.5t120.5 -41.5h159v187q0 86 47 132.5t129 46.5h154v-366h58v-112h-162v364h-55q-36 0 -51.5 -20.5t-15.5 -62.5z" />
    <glyph glyph-name="uni06CC.init" unicode="&#x6cc;" horiz-adv-x="229" arabic-form="initial" 
d="M68 211v244h103v-252q0 -203 -171 -203q-24 0 -40.5 15.5t-16.5 39.5t16.5 40t40.5 17q40 1 54 23.5t14 75.5zM220 -82v-91h-91v91h91zM98 -82v-91h-90v91h90z" />
    <glyph glyph-name="uni06CC.medi" unicode="&#x6cc;" horiz-adv-x="249" arabic-form="medial" 
d="M-57 55q0 22 16.5 39.5t40.5 17.5q37 0 54 22t17 70v186h103v-192q0 -45 17 -65t58 -21v-112q-92 0 -121 56q-41 -56 -128 -56q-24 0 -40.5 15.5t-16.5 39.5zM230 -82v-91h-91v91h91zM108 -82v-91h-90v91h90z" />
    <glyph glyph-name="uni0651064C" unicode="&#xfc5e;" horiz-adv-x="0" arabic-form="isolated" 
d="M61 157l-123 -34q-1 0 -8 2.5t-9 2.5v56q0 28 -27 28q-2 0 -9.5 -0.5t-9.5 -0.5v42q12 3 31 3q60 0 60 -57v-15l43 11q0 2 1 3q-18 14 -18 47q0 24 18.5 42.5t46.5 18.5q32 0 50.5 -20.5t18.5 -53.5q0 -26 -17 -46.5t-48 -28.5zM77 235q0 25 -19 25q-22 0 -22 -22
q0 -24 26 -27q15 5 15 24zM11 23l-3 -1q-4 -21 -20.5 -33t-39.5 -12q-61 0 -61 74v18l53 16v-36q0 -20 16 -20q7 0 12.5 6t5.5 14v45l50 15v-35q0 -20 18 -20t18 20v47l52 15v-55q0 -77 -63 -77q-29 0 -38 19z" />
    <glyph glyph-name="uni0651064D" unicode="&#xfc5f;" horiz-adv-x="0" arabic-form="isolated" 
d="M-105 105l210 53v-53l-210 -51v51zM-105 25l210 51v-51l-210 -51v51zM11 201l-3 -1q-4 -21 -20 -33.5t-40 -12.5q-61 0 -61 75v18l53 15v-36q0 -20 16 -20q7 0 12.5 6t5.5 14v46l50 14v-35q0 -20 18 -20t18 20v47l52 15v-55q0 -77 -63 -77q-29 0 -38 20z" />
    <glyph glyph-name="uni0651064E" unicode="&#xfc60;" horiz-adv-x="0" arabic-form="isolated" 
d="M-105 163l210 52v-54l-210 -50v52zM11 22l-3 -1q-4 -21 -20 -33.5t-40 -12.5q-61 0 -61 74v18l53 16v-36q0 -20 16 -20q7 0 12.5 6t5.5 14v46l50 14v-35q0 -20 18 -20t18 20v47l52 15v-55q0 -77 -63 -77q-29 0 -38 20z" />
    <glyph glyph-name="uni0651064F" unicode="&#xfc61;" horiz-adv-x="0" arabic-form="isolated" 
d="M-104 157l92 25v2q-19 16 -19 45q0 25 18 44t47 19q31 0 50.5 -20t19.5 -49q0 -61 -65 -78l-143 -39v51zM56 222q0 25 -20 25q-22 0 -22 -21q0 -23 26 -28q16 6 16 24zM11 21l-3 -1q-4 -21 -20 -33.5t-40 -12.5q-61 0 -61 75v18l53 15v-36q0 -20 16 -20q7 0 12.5 6
t5.5 14v46l50 14v-35q0 -20 18 -20t18 20v47l52 15v-55q0 -77 -63 -77q-29 0 -38 20z" />
    <glyph glyph-name="uni06510650" unicode="&#xfc62;" horiz-adv-x="0" arabic-form="isolated" 
d="M-105 28l210 53v-55l-210 -51v53zM11 132l-3 -1q-4 -21 -21 -33.5t-39 -12.5q-61 0 -61 75v18l53 15v-36q0 -19 16 -19q7 0 12.5 5.5t5.5 13.5v46l50 15v-35q0 -20 18 -20t18 20v46l52 16v-55q0 -78 -63 -78q-27 0 -38 20z" />
    <glyph glyph-name="uni06510670" unicode="&#xfc63;" horiz-adv-x="0" arabic-form="isolated" 
d="M11 21l-3 -1q-4 -21 -20 -33.5t-40 -12.5q-61 0 -61 75v18l53 15v-36q0 -20 16 -20q7 0 12.5 6t5.5 14v46l50 14v-35q0 -20 18 -20t18 20v47l52 15v-55q0 -77 -63 -77q-29 0 -38 20zM33 196v-57h-53v52q0 54 -13 100h56q10 -33 10 -95z" />
    <glyph glyph-name="uniFCF2" unicode="&#xfcf2;" horiz-adv-x="275" arabic-form="medial" 
d="M33 671l210 53v-54l-210 -51v52zM149 512l-3 -1q-4 -21 -20 -33.5t-40 -12.5q-61 0 -61 75v18l53 15v-36q0 -20 16 -20q7 0 12.5 6t5.5 14v46l50 15v-36q0 -19 18 -19t18 19v47l52 16v-55q0 -78 -63 -78q-27 0 -38 20zM0 88h275v-88h-275q-20 0 -33.5 12t-13.5 31
t13.5 32t33.5 13z" />
    <glyph glyph-name="uniFCF3" unicode="&#xfcf3;" horiz-adv-x="275" arabic-form="medial" 
d="M34 666l92 25v3q-19 16 -19 44q0 26 18 45t47 19q31 0 50.5 -20t19.5 -49q0 -61 -65 -79l-143 -38v50zM194 732q0 24 -20 24q-22 0 -22 -21q0 -23 26 -28q16 7 16 25zM149 512l-3 -1q-4 -21 -20 -33.5t-40 -12.5q-61 0 -61 75v18l53 15v-36q0 -20 16 -20q7 0 12.5 6
t5.5 14v46l50 15v-36q0 -19 18 -19t18 19v47l52 16v-55q0 -78 -63 -78q-27 0 -38 20zM0 88h275v-88h-275q-20 0 -33.5 12t-13.5 31t13.5 32t33.5 13z" />
    <glyph glyph-name="uniFCF4" unicode="&#xfcf4;" horiz-adv-x="275" arabic-form="medial" 
d="M33 511l210 53v-55l-210 -51v53zM149 605l-3 -1q-4 -21 -20 -33.5t-40 -12.5q-61 0 -61 75v18l53 15v-36q0 -20 16 -20q7 0 12.5 6t5.5 14v46l50 14v-35q0 -20 18 -20t18 20v47l52 15v-55q0 -77 -63 -77q-27 0 -38 20zM0 88h275v-88h-275q-20 0 -33.5 12t-13.5 31
t13.5 32t33.5 13z" />
    <glyph glyph-name="uniFE70" unicode="&#xfe70;" horiz-adv-x="211" arabic-form="isolated" 
d="M0 807l211 59v-54l-211 -58v53zM0 727l211 58v-54l-211 -57v53z" />
    <glyph glyph-name="uniFE71" unicode="&#xfe71;" horiz-adv-x="261" arabic-form="medial" 
d="M25 600l211 59v-54l-211 -58v53zM25 520l211 58v-54l-211 -57v53zM0 88h261v-88h-261q-20 0 -33.5 12t-13.5 31t13.5 32t33.5 13z" />
    <glyph glyph-name="uniFE72" unicode="&#xfe72;" horiz-adv-x="251" arabic-form="isolated" 
d="M186 712q-52 -15 -123 -33q-2 0 -6 1t-7 2l-4 1v56q0 29 -27 29q-3 0 -19 -2v42q15 4 31 4q60 0 60 -58v-15l43 12q1 1 1 2q-18 13 -18 47q0 25 18.5 43t46.5 18q32 0 50.5 -20.5t18.5 -53.5q0 -26 -17 -46.5t-48 -28.5zM202 790q0 25 -19 25q-22 0 -22 -21q0 -23 26 -28
q15 4 15 24z" />
    <glyph glyph-name="uniFE74" unicode="&#xfe74;" horiz-adv-x="211" arabic-form="isolated" 
d="M0 -238l211 53v-53l-211 -51v51zM0 -318l211 52v-52l-211 -51v51z" />
    <glyph glyph-name="uniFE76" unicode="&#xfe76;" horiz-adv-x="211" arabic-form="isolated" 
d="M0 729l211 52v-54l-211 -50v52z" />
    <glyph glyph-name="uniFE77" unicode="&#xfe77;" horiz-adv-x="261" arabic-form="medial" 
d="M25 522l211 52v-54l-211 -50v52zM0 88h261v-88h-261q-20 0 -33.5 12t-13.5 31t13.5 32t33.5 13z" />
    <glyph glyph-name="uniFE78" unicode="&#xfe78;" horiz-adv-x="209" arabic-form="isolated" 
d="M0 726l93 25v3q-19 16 -19 44q0 26 18 45t47 19q31 0 50.5 -20t19.5 -49q0 -61 -66 -78l-143 -39v50zM160 792q0 24 -20 24q-21 0 -21 -20q0 -25 26 -28q15 4 15 24z" />
    <glyph glyph-name="uniFE79" unicode="&#xfe79;" horiz-adv-x="259" arabic-form="medial" 
d="M25 518l93 26v2q-19 16 -19 44q0 26 18 45t47 19q31 0 50.5 -20t19.5 -49q0 -61 -65 -78l-144 -39v50zM186 584q0 24 -20 24q-22 0 -22 -20q0 -25 26 -28q16 6 16 24zM0 88h259v-88h-259q-20 0 -33.5 12t-13.5 31t13.5 32t33.5 13z" />
    <glyph glyph-name="uniFE7A" unicode="&#xfe7a;" horiz-adv-x="211" arabic-form="isolated" 
d="M0 -238l211 53v-54l-211 -52v53z" />
    <glyph glyph-name="uniFE7B" unicode="&#xfe7b;" horiz-adv-x="261" arabic-form="medial" 
d="M25 -144l211 53v-55l-211 -51v53zM0 88h261v-88h-261q-20 0 -33.5 12t-13.5 31t13.5 32t33.5 13z" />
    <glyph glyph-name="uniFE7C" unicode="&#xfe7c;" horiz-adv-x="225" arabic-form="isolated" 
d="M123 719l-2 -1q-4 -21 -20.5 -33.5t-40.5 -12.5q-60 0 -60 75v18l52 15v-36q0 -20 16 -20q7 0 12.5 6t5.5 14v46l51 15v-36q0 -19 18 -19q8 0 13 6t5 13v47l52 16v-55q0 -78 -63 -78q-28 0 -39 20z" />
    <glyph glyph-name="uniFE7D" unicode="&#xfe7d;" horiz-adv-x="275" arabic-form="medial" 
d="M149 512l-3 -1q-4 -21 -20 -33.5t-40 -12.5q-61 0 -61 75v18l53 15v-36q0 -20 16 -20q7 0 12.5 6t5.5 14v46l50 15v-36q0 -19 18 -19t18 19v47l52 16v-55q0 -78 -63 -78q-27 0 -38 20zM0 88h275v-88h-275q-20 0 -33.5 12t-13.5 31t13.5 32t33.5 13z" />
    <glyph glyph-name="uniFE7E" unicode="&#xfe7e;" horiz-adv-x="160" arabic-form="isolated" 
d="M0 763q0 37 22 59.5t59 22.5q36 0 57.5 -22.5t21.5 -59.5t-22 -61t-57 -24q-36 0 -58.5 24.5t-22.5 60.5zM103 737q14 15 8 34t-22 23.5t-31 -8.5q-9 -10 -9 -24t9 -25q9 -10 23 -10t22 10z" />
    <glyph glyph-name="uniFE7F" unicode="&#xfe7f;" horiz-adv-x="211" arabic-form="medial" 
d="M25 556q0 37 22.5 59.5t58.5 22.5q37 0 58.5 -22.5t21.5 -59.5t-22 -61t-58 -24q-35 0 -58 24.5t-23 60.5zM138 555q2 21 -15 29.5t-34 0t-15 -29.5q0 -13 9 -24t23 -11t23 11t9 24zM0 88h211v-88h-211q-20 0 -33.5 12t-13.5 31t13.5 32t33.5 13z" />
    <glyph glyph-name="uni0622.fina" unicode="&#x622;" horiz-adv-x="231" arabic-form="final" 
d="M77 747l-14 -6l-70 -38v72l91 52h14q11 -27 23.5 -36t39.5 -9h76v-62h-76q-37 0 -54.5 5t-29.5 22zM231 112v-112h-34q-71 0 -104 32.5t-33 108.5v535h103v-505q0 -32 12 -45.5t43 -13.5h13z" />
    <glyph glyph-name="uni0623.fina" unicode="&#x623;" horiz-adv-x="231" arabic-form="final" 
d="M143 930q49 0 87 -26l-26 -51q-30 18 -63 18q-21 0 -34 -11t-13 -27q0 -35 41 -35h94v-58h-229v58h37l2 2q-10 13 -10 35q0 38 30 66.5t84 28.5zM231 112v-112h-34q-71 0 -104 32.5t-33 108.5v535h103v-505q0 -32 12 -45.5t43 -13.5h13z" />
    <glyph glyph-name="uni0624.fina" unicode="&#x624;" horiz-adv-x="541" arabic-form="final" 
d="M280 478q98 0 150.5 -60t52.5 -175v-131h58v-112h-58q-3 -106 -63 -164t-167 -58h-152v113h149q64 0 93 35q30 34 30 77h-89q-226 0 -226 229q0 117 57.5 181.5t164.5 64.5zM275 112h102v120q0 133 -101 133q-53 0 -83 -34.5t-30 -99.5q0 -119 112 -119zM291 745
q49 0 87 -26l-26 -51q-30 18 -63 18q-21 0 -34 -11t-13 -27q0 -35 41 -35h94v-58h-229v58h37l2 2q-10 13 -10 35q0 38 30 66.5t84 28.5z" />
    <glyph glyph-name="uni0625.fina" unicode="&#x625;" horiz-adv-x="231" arabic-form="final" 
d="M143 -82q49 0 87 -26l-26 -51q-30 18 -63 18q-21 0 -34 -11t-13 -27q0 -35 41 -35h94v-58h-229v58h37l2 2q-10 13 -10 35q0 38 30 66.5t84 28.5zM231 112v-112h-34q-71 0 -104 32.5t-33 108.5v585h103v-555q0 -32 12 -45.5t43 -13.5h13z" />
    <glyph glyph-name="uni0626.fina" unicode="&#x626;" horiz-adv-x="864" arabic-form="final" 
d="M202 621q49 0 87 -26l-26 -51q-30 18 -63 18q-21 0 -34 -11t-13 -27q0 -35 41 -35h94v-58h-229v58h37l2 2q-10 13 -10 35q0 38 30 66.5t84 28.5zM580 281v-281h-257q-265 0 -265 252v103h103v-72q0 -88 35.5 -129.5t120.5 -41.5h159v187q0 86 47 132.5t129 46.5h154v-366
h58v-112h-162v364h-55q-36 0 -51.5 -20.5t-15.5 -62.5z" />
    <glyph glyph-name="uni0626.init" unicode="&#x626;" horiz-adv-x="229" arabic-form="initial" 
d="M68 211v244h103v-252q0 -203 -171 -203q-24 0 -40.5 15.5t-16.5 39.5t16.5 40t40.5 17q40 1 54 23.5t14 75.5zM142 720q49 0 87 -26l-26 -51q-30 18 -63 18q-21 0 -34 -11t-13 -27q0 -35 41 -35h94v-58h-229v58h37l2 2q-10 13 -10 35q0 38 30 66.5t84 28.5z" />
    <glyph glyph-name="uni0626.medi" unicode="&#x626;" horiz-adv-x="249" arabic-form="medial" 
d="M-57 55q0 22 16.5 39.5t40.5 17.5q37 0 54 22t17 70v186h103v-192q0 -45 17 -65t58 -21v-112q-92 0 -121 56q-41 -56 -128 -56q-24 0 -40.5 15.5t-16.5 39.5zM152 660q49 0 87 -26l-26 -51q-30 18 -63 18q-21 0 -34 -11t-13 -27q0 -35 41 -35h94v-58h-229v58h37l2 2
q-10 13 -10 35q0 38 30 66.5t84 28.5z" />
    <glyph glyph-name="uni0627.fina" unicode="&#x627;" horiz-adv-x="231" arabic-form="final" 
d="M231 112v-112h-34q-71 0 -104 32.5t-33 108.5v585h103v-555q0 -32 12 -45.5t43 -13.5h13z" />
    <glyph glyph-name="uni0628.fina" unicode="&#x628;" horiz-adv-x="778" arabic-form="final" 
d="M600 199v190h103v-191q0 -44 16.5 -64.5t58.5 -21.5v-112q-93 0 -122 56q-24 -32 -52.5 -44t-77.5 -12h-202q-264 0 -264 252v103h103v-72q0 -89 35 -130t120 -41h207q42 0 58.5 21t16.5 66zM458 -82v-91h-91v91h91z" />
    <glyph glyph-name="uni0628.init" unicode="&#x628;" horiz-adv-x="229" arabic-form="initial" 
d="M68 211v244h103v-252q0 -203 -171 -203q-24 0 -40.5 15.5t-16.5 39.5t16.5 40t40.5 17q40 1 54 23.5t14 75.5zM148 -82v-91h-91v91h91z" />
    <glyph glyph-name="uni0628.medi" unicode="&#x628;" horiz-adv-x="249" arabic-form="medial" 
d="M-57 55q0 22 16.5 39.5t40.5 17.5q37 0 54 22t17 70v186h103v-192q0 -45 17 -65t58 -21v-112q-92 0 -121 56q-41 -56 -128 -56q-24 0 -40.5 15.5t-16.5 39.5zM170 -82v-91h-91v91h91z" />
    <glyph glyph-name="uni0629.fina" unicode="&#x629;" horiz-adv-x="541" arabic-form="final" 
d="M364 435v43h105v-272q0 -48 15.5 -70.5t56.5 -23.5v-112h-11q-55 0 -92 24.5t-49 63.5q-29 -26 -70.5 -41.5t-80.5 -15.5q-88 0 -134 42t-46 118q0 37 13.5 71.5t44.5 70.5t95 63.5t153 38.5zM245 139q120 0 120 127v66q-113 -13 -157 -51q-42 -37 -42 -76q0 -30 21 -48
t58 -18zM359 621v-91h-91v91h91zM237 621v-91h-90v91h90z" />
    <glyph glyph-name="uni062A.fina" unicode="&#x62a;" horiz-adv-x="778" arabic-form="final" 
d="M600 199v190h103v-191q0 -44 16.5 -64.5t58.5 -21.5v-112q-93 0 -122 56q-24 -32 -52.5 -44t-77.5 -12h-202q-264 0 -264 252v103h103v-72q0 -89 35 -130t120 -41h207q42 0 58.5 21t16.5 66zM514 541v-91h-91v91h91zM392 541v-91h-90v91h90z" />
    <glyph glyph-name="uni062A.init" unicode="&#x62a;" horiz-adv-x="229" arabic-form="initial" 
d="M68 211v244h103v-252q0 -203 -171 -203q-24 0 -40.5 15.5t-16.5 39.5t16.5 40t40.5 17q40 1 54 23.5t14 75.5zM220 621v-91h-91v91h91zM98 621v-91h-90v91h90z" />
    <glyph glyph-name="uni062A.medi" unicode="&#x62a;" horiz-adv-x="249" arabic-form="medial" 
d="M-57 55q0 22 16.5 39.5t40.5 17.5q37 0 54 22t17 70v186h103v-192q0 -45 17 -65t58 -21v-112q-92 0 -121 56q-41 -56 -128 -56q-24 0 -40.5 15.5t-16.5 39.5zM230 561v-91h-91v91h91zM108 561v-91h-90v91h90z" />
    <glyph glyph-name="uni062B.fina" unicode="&#x62b;" horiz-adv-x="778" arabic-form="final" 
d="M600 199v190h103v-191q0 -44 16.5 -64.5t58.5 -21.5v-112q-93 0 -122 56q-24 -32 -52.5 -44t-77.5 -12h-202q-264 0 -264 252v103h103v-72q0 -89 35 -130t120 -41h207q42 0 58.5 21t16.5 66zM514 541v-91h-91v91h91zM392 541v-91h-90v91h90zM453 669v-92h-91v92h91z" />
    <glyph glyph-name="uni062B.init" unicode="&#x62b;" horiz-adv-x="229" arabic-form="initial" 
d="M68 211v244h103v-252q0 -203 -171 -203q-24 0 -40.5 15.5t-16.5 39.5t16.5 40t40.5 17q40 1 54 23.5t14 75.5zM220 621v-91h-91v91h91zM98 621v-91h-90v91h90zM159 749v-92h-91v92h91z" />
    <glyph glyph-name="uni062B.medi" unicode="&#x62b;" horiz-adv-x="249" arabic-form="medial" 
d="M-57 55q0 22 16.5 39.5t40.5 17.5q37 0 54 22t17 70v186h103v-192q0 -45 17 -65t58 -21v-112q-92 0 -121 56q-41 -56 -128 -56q-24 0 -40.5 15.5t-16.5 39.5zM230 561v-91h-91v91h91zM108 561v-91h-90v91h90zM169 689v-92h-91v92h91z" />
    <glyph glyph-name="uni062C.fina" unicode="&#x62c;" horiz-adv-x="558" arabic-form="final" 
d="M282 112h122l4 6q-20 18 -27 64l-6 49l-5 48q-10 87 -92 87q-64 0 -126 -35l-44 90q82 57 176 57q174 0 194 -201q10 -105 26 -135t47 -30h7v-112h-293q-49 0 -75 -24t-26 -64q0 -82 119 -82q38 0 70 7l15 -102q-40 -12 -104 -12q-96 0 -151 48t-55 137q0 99 64 151
q65 53 160 53zM430 -26v-91h-91v91h91z" />
    <glyph glyph-name="uni062C.init" unicode="&#x62c;" horiz-adv-x="505" arabic-form="initial" 
d="M480 0h-480q-24 0 -40 15.5t-16 40.5q0 24 16 40t40 16h355l3 6q-15 13 -22 40q-7 34 -11 71q-5 46 -9 67q-15 70 -88 70q-64 0 -125 -35l-45 90q82 57 176 57q172 0 193 -185q4 -34 4 -38l8 -65q13 -63 41 -76v-114zM281 -82v-91h-91v91h91z" />
    <glyph glyph-name="uni062C.medi" unicode="&#x62c;" horiz-adv-x="508" arabic-form="medial" 
d="M234 478q174 0 194 -201q10 -105 26 -135t47 -30h7v-112h-508q-24 0 -40 15.5t-16 40.5q0 24 16 40t40 16h354l4 6q-20 18 -27 64l-6 49l-5 48q-10 87 -92 87q-64 0 -126 -35l-44 90q82 57 176 57zM291 -82v-91h-91v91h91z" />
    <glyph glyph-name="uni062D.fina" unicode="&#x62d;" horiz-adv-x="558" arabic-form="final" 
d="M282 112h122l4 6q-20 18 -27 64l-6 49l-5 48q-10 87 -92 87q-64 0 -126 -35l-44 90q82 57 176 57q174 0 194 -201q10 -105 26 -135t47 -30h7v-112h-293q-49 0 -75 -24t-26 -64q0 -82 119 -82q38 0 70 7l15 -102q-40 -12 -104 -12q-96 0 -151 48t-55 137q0 99 64 151
q65 53 160 53z" />
    <glyph glyph-name="uni062D.init" unicode="&#x62d;" horiz-adv-x="505" arabic-form="initial" 
d="M480 0h-480q-24 0 -40 15.5t-16 40.5q0 24 16 40t40 16h355l3 6q-15 13 -22 40q-7 34 -11 71q-5 46 -9 67q-15 70 -88 70q-64 0 -125 -35l-45 90q82 57 176 57q172 0 193 -185q4 -34 4 -38l8 -65q13 -63 41 -76v-114z" />
    <glyph glyph-name="uni062D.medi" unicode="&#x62d;" horiz-adv-x="508" arabic-form="medial" 
d="M234 478q174 0 194 -201q10 -105 26 -135t47 -30h7v-112h-508q-24 0 -40 15.5t-16 40.5q0 24 16 40t40 16h354l4 6q-20 18 -27 64l-6 49l-5 48q-10 87 -92 87q-64 0 -126 -35l-44 90q82 57 176 57z" />
    <glyph glyph-name="uni062E.fina" unicode="&#x62e;" horiz-adv-x="558" arabic-form="final" 
d="M282 112h122l4 6q-20 18 -27 64l-6 49l-5 48q-10 87 -92 87q-64 0 -126 -35l-44 90q82 57 176 57q174 0 194 -201q10 -105 26 -135t47 -30h7v-112h-293q-49 0 -75 -24t-26 -64q0 -82 119 -82q38 0 70 7l15 -102q-40 -12 -104 -12q-96 0 -151 48t-55 137q0 99 64 151
q65 53 160 53zM340 646v-91h-91v91h91z" />
    <glyph glyph-name="uni062E.init" unicode="&#x62e;" horiz-adv-x="505" arabic-form="initial" 
d="M480 0h-480q-24 0 -40 15.5t-16 40.5q0 24 16 40t40 16h355l3 6q-15 13 -22 40q-7 34 -11 71q-5 46 -9 67q-15 70 -88 70q-64 0 -125 -35l-45 90q82 57 176 57q172 0 193 -185q4 -34 4 -38l8 -65q13 -63 41 -76v-114zM298 646v-91h-91v91h91z" />
    <glyph glyph-name="uni062E.medi" unicode="&#x62e;" horiz-adv-x="508" arabic-form="medial" 
d="M234 478q174 0 194 -201q10 -105 26 -135t47 -30h7v-112h-508q-24 0 -40 15.5t-16 40.5q0 24 16 40t40 16h354l4 6q-20 18 -27 64l-6 49l-5 48q-10 87 -92 87q-64 0 -126 -35l-44 90q82 57 176 57zM300 646v-91h-91v91h91z" />
    <glyph glyph-name="uni062F.fina" unicode="&#x62f;" horiz-adv-x="506" arabic-form="final" 
d="M58 112h287v156q0 99 -96 99q-74 0 -125 -39l-55 88q73 61 185 61q195 0 195 -184v-181h57v-112h-448v112z" />
    <glyph glyph-name="uni0630.fina" unicode="&#x630;" horiz-adv-x="506" arabic-form="final" 
d="M58 112h287v156q0 99 -96 99q-74 0 -125 -39l-55 88q73 61 185 61q195 0 195 -184v-181h57v-112h-448v112zM286 646v-91h-91v91h91z" />
    <glyph glyph-name="uni0631.fina" unicode="&#x631;" horiz-adv-x="228" arabic-form="final" 
d="M-54 -206v110q65 1 93 28.5t28 85.5v372h103v-278h58v-112h-58q-2 -104 -55.5 -154.5t-168.5 -51.5z" />
    <glyph glyph-name="uni0632.fina" unicode="&#x632;" horiz-adv-x="228" arabic-form="final" 
d="M-54 -206v110q65 1 93 28.5t28 85.5v372h103v-278h58v-112h-58q-2 -104 -55.5 -154.5t-168.5 -51.5zM160 561v-91h-91v91h91z" />
    <glyph glyph-name="uni0633.fina" unicode="&#x633;" horiz-adv-x="1022" arabic-form="final" 
d="M1022 112v-112q-86 2 -116 54h-4q-42 -64 -132 -64q-93 0 -139 67h-5q-45 -57 -129 -57h-30v-10q0 -88 -58 -142q-59 -54 -147 -54q-95 0 -148.5 51t-53.5 138v302h103v-250q0 -64 22 -96.5t78 -32.5q47 0 74 30t27 76v378h103v-278h30q42 0 65 28t23 77v173h102v-188
q0 -49 20.5 -76t57.5 -27q76 0 76 104q0 57 -26 127q-25 69 -63 110l84 63q42 -49 76 -128q34 -78 34 -165v-5q0 -92 76 -93z" />
    <glyph glyph-name="uni0633.init" unicode="&#x633;" horiz-adv-x="801" arabic-form="initial" 
d="M294 0h-294q-24 0 -40.5 16t-16.5 40t16 40t41 16h154v278h103v-278h37q43 0 65.5 27.5t22.5 77.5v173h102v-188q0 -49 20.5 -76t57.5 -27q74 0 74 104q0 57 -26 127q-25 69 -63 110l84 63q41 -47 77 -131q35 -81 35 -171q0 -91 -43 -152q-42 -60 -133 -60q-96 0 -140 68
h-4q-41 -57 -129 -57z" />
    <glyph glyph-name="uni0633.medi" unicode="&#x633;" horiz-adv-x="819" arabic-form="medial" 
d="M567 -10q-93 0 -139 66h-5q-45 -56 -129 -56h-294q-23 0 -39.5 16t-16.5 40q0 56 79 56h131v278h103v-278h37q43 0 65.5 27.5t22.5 77.5v173h102v-188q0 -49 20.5 -76t57.5 -27q76 0 76 104q0 57 -26 127q-25 69 -63 110l84 63q42 -49 76 -128q34 -78 34 -165v-5
q0 -92 76 -93v-112q-86 2 -116 54h-4q-42 -64 -132 -64z" />
    <glyph glyph-name="uni0634.fina" unicode="&#x634;" horiz-adv-x="1022" arabic-form="final" 
d="M1022 112v-112q-86 2 -116 54h-4q-42 -64 -132 -64q-93 0 -139 67h-5q-45 -57 -129 -57h-30v-10q0 -88 -58 -142q-59 -54 -147 -54q-95 0 -148.5 51t-53.5 138v302h103v-250q0 -64 22 -96.5t78 -32.5q47 0 74 30t27 76v378h103v-278h30q42 0 65 28t23 77v173h102v-188
q0 -49 20.5 -76t57.5 -27q76 0 76 104q0 57 -26 127q-25 69 -63 110l84 63q42 -49 76 -128q34 -78 34 -165v-5q0 -92 76 -93zM733 621v-91h-91v91h91zM611 621v-91h-90v91h90zM672 749v-92h-91v92h91z" />
    <glyph glyph-name="uni0634.init" unicode="&#x634;" horiz-adv-x="801" arabic-form="initial" 
d="M294 0h-294q-24 0 -40.5 16t-16.5 40t16 40t41 16h154v278h103v-278h37q43 0 65.5 27.5t22.5 77.5v173h102v-188q0 -49 20.5 -76t57.5 -27q74 0 74 104q0 57 -26 127q-25 69 -63 110l84 63q41 -47 77 -131q35 -81 35 -171q0 -91 -43 -152q-42 -60 -133 -60q-96 0 -140 68
h-4q-41 -57 -129 -57zM538 621v-91h-91v91h91zM416 621v-91h-90v91h90zM477 749v-92h-91v92h91z" />
    <glyph glyph-name="uni0634.medi" unicode="&#x634;" horiz-adv-x="819" arabic-form="medial" 
d="M567 -10q-93 0 -139 66h-5q-45 -56 -129 -56h-294q-23 0 -39.5 16t-16.5 40q0 56 79 56h131v278h103v-278h37q43 0 65.5 27.5t22.5 77.5v173h102v-188q0 -49 20.5 -76t57.5 -27q76 0 76 104q0 57 -26 127q-25 69 -63 110l84 63q42 -49 76 -128q34 -78 34 -165v-5
q0 -92 76 -93v-112q-86 2 -116 54h-4q-42 -64 -132 -64zM538 621v-91h-91v91h91zM416 621v-91h-90v91h90zM477 749v-92h-91v92h91z" />
    <glyph glyph-name="uni0635.fina" unicode="&#x635;" horiz-adv-x="962" arabic-form="final" 
d="M369 17v440h102v-88h7q45 51 106 80t123 29q95 0 146.5 -49.5t51.5 -138.5v-178h57v-112h-490v-9q0 -85 -57 -141q-58 -56 -152 -56q-99 0 -152 52.5t-53 142.5v296h103v-268q0 -50 24.5 -80.5t78.5 -30.5q22 0 36 9q69 15 69 102zM471 143v-31h330v137q0 115 -113 115
q-96 0 -157 -69q-60 -67 -60 -152z" />
    <glyph glyph-name="uni0635.init" unicode="&#x635;" horiz-adv-x="653" arabic-form="initial" 
d="M595 0h-595q-24 0 -40.5 15.5t-16.5 39.5t16.5 40.5t40.5 16.5h58v345h103v-88h6q46 51 107 80t123 29q95 0 146.5 -49.5t51.5 -138.5v-290zM161 143v-31h330v137q0 115 -114 115q-96 0 -156 -69q-60 -67 -60 -152z" />
    <glyph glyph-name="uni0635.medi" unicode="&#x635;" horiz-adv-x="652" arabic-form="medial" 
d="M652 0h-652q-24 0 -40.5 15.5t-16.5 39.5t16.5 40.5t40.5 16.5h58v345h103v-88h6q46 51 107 80t123 29q95 0 146.5 -49.5t51.5 -138.5v-178h57v-112zM161 143v-31h330v137q0 115 -114 115q-96 0 -156 -69q-60 -67 -60 -152z" />
    <glyph glyph-name="uni0636.fina" unicode="&#x636;" horiz-adv-x="962" arabic-form="final" 
d="M369 17v440h102v-88h7q45 51 106 80t123 29q95 0 146.5 -49.5t51.5 -138.5v-178h57v-112h-490v-9q0 -85 -57 -141q-58 -56 -152 -56q-99 0 -152 52.5t-53 142.5v296h103v-268q0 -50 24.5 -80.5t78.5 -30.5q22 0 36 9q69 15 69 102zM471 143v-31h330v137q0 115 -113 115
q-96 0 -157 -69q-60 -67 -60 -152zM715 646v-91h-91v91h91z" />
    <glyph glyph-name="uni0636.init" unicode="&#x636;" horiz-adv-x="653" arabic-form="initial" 
d="M595 0h-595q-24 0 -40.5 15.5t-16.5 39.5t16.5 40.5t40.5 16.5h58v345h103v-88h6q46 51 107 80t123 29q95 0 146.5 -49.5t51.5 -138.5v-290zM161 143v-31h330v137q0 115 -114 115q-96 0 -156 -69q-60 -67 -60 -152zM435 646v-91h-91v91h91z" />
    <glyph glyph-name="uni0636.medi" unicode="&#x636;" horiz-adv-x="652" arabic-form="medial" 
d="M652 0h-652q-24 0 -40.5 15.5t-16.5 39.5t16.5 40.5t40.5 16.5h58v345h103v-88h6q46 51 107 80t123 29q95 0 146.5 -49.5t51.5 -138.5v-178h57v-112zM161 143v-31h330v137q0 115 -114 115q-96 0 -156 -69q-60 -67 -60 -152zM435 646v-91h-91v91h91z" />
    <glyph glyph-name="uni0637.fina" unicode="&#x637;" horiz-adv-x="770" arabic-form="final" 
d="M770 0h-720v112h126v614h103v-357h6q46 51 107 80t123 29q95 0 146.5 -49.5t51.5 -138.5v-178h57v-112zM279 143v-31h330v137q0 115 -114 115q-96 0 -156 -69q-60 -67 -60 -152z" />
    <glyph glyph-name="uni0637.init" unicode="&#x637;" horiz-adv-x="653" arabic-form="initial" 
d="M595 0h-595q-24 0 -40.5 15.5t-16.5 39.5t16.5 40.5t40.5 16.5h58v614h103v-357h6q46 51 107 80t123 29q95 0 146.5 -49.5t51.5 -138.5v-290zM161 143v-31h330v137q0 115 -114 115q-96 0 -156 -69q-60 -67 -60 -152z" />
    <glyph glyph-name="uni0637.medi" unicode="&#x637;" horiz-adv-x="652" arabic-form="medial" 
d="M652 0h-652q-24 0 -40.5 15.5t-16.5 39.5t16.5 40.5t40.5 16.5h58v614h103v-357h6q46 51 107 80t123 29q95 0 146.5 -49.5t51.5 -138.5v-178h57v-112zM161 143v-31h330v137q0 115 -114 115q-96 0 -156 -69q-60 -67 -60 -152z" />
    <glyph glyph-name="uni0638.fina" unicode="&#x638;" horiz-adv-x="770" arabic-form="final" 
d="M770 0h-720v112h126v614h103v-357h6q46 51 107 80t123 29q95 0 146.5 -49.5t51.5 -138.5v-178h57v-112zM279 143v-31h330v137q0 115 -114 115q-96 0 -156 -69q-60 -67 -60 -152zM555 646v-91h-91v91h91z" />
    <glyph glyph-name="uni0638.init" unicode="&#x638;" horiz-adv-x="653" arabic-form="initial" 
d="M595 0h-595q-24 0 -40.5 15.5t-16.5 39.5t16.5 40.5t40.5 16.5h58v614h103v-357h6q46 51 107 80t123 29q95 0 146.5 -49.5t51.5 -138.5v-290zM161 143v-31h330v137q0 115 -114 115q-96 0 -156 -69q-60 -67 -60 -152zM435 646v-91h-91v91h91z" />
    <glyph glyph-name="uni0638.medi" unicode="&#x638;" horiz-adv-x="652" arabic-form="medial" 
d="M652 0h-652q-24 0 -40.5 15.5t-16.5 39.5t16.5 40.5t40.5 16.5h58v614h103v-357h6q46 51 107 80t123 29q95 0 146.5 -49.5t51.5 -138.5v-178h57v-112zM161 143v-31h330v137q0 115 -114 115q-96 0 -156 -69q-60 -67 -60 -152zM435 646v-91h-91v91h91z" />
    <glyph glyph-name="uni0639.fina" unicode="&#x639;" horiz-adv-x="611" arabic-form="final" 
d="M58 -97q0 65 44 124q43 56 101 92q-53 42 -79 92t-26 95q0 86 63 129q62 43 159 43q93 0 163 -43t70 -128q0 -48 -36 -94t-96 -76q51 -25 150 -25h40v-112h-40q-77 0 -160 18q-84 20 -121 44q-125 -77 -125 -151q0 -40 36.5 -61t97.5 -21q30 0 62 5l15 -101
q-41 -11 -92 -11q-105 0 -165.5 47.5t-60.5 133.5zM209 303q0 -29 27.5 -63t81.5 -65q68 32 96.5 59t28.5 57q0 36 -35 58t-93 22q-49 0 -77.5 -18t-28.5 -50z" />
    <glyph glyph-name="uni0639.init" unicode="&#x639;" horiz-adv-x="535" arabic-form="initial" 
d="M174 232q0 -46 29 -84q29 -36 97 -36h159v-112h-459q-24 0 -40.5 15.5t-16.5 39.5t16.5 40.5t40.5 16.5h87l5 6q-34 34 -34 119q0 114 65 177q64 64 161 64q107 0 193 -71l-61 -94q-56 48 -126 48q-52 0 -84 -33t-32 -96z" />
    <glyph glyph-name="uni0639.medi" unicode="&#x639;" horiz-adv-x="569" arabic-form="medial" 
d="M0 112h52q72 0 105 15q-49 38 -74 84t-25 88q0 85 66 131q66 48 168 48q89 0 154 -44t65 -130q0 -46 -27 -94.5t-71 -80.5q48 -17 119 -17h37v-112h-44q-155 0 -238 56q-89 -56 -246 -56h-41q-24 0 -40.5 15.5t-16.5 39.5t16.5 40.5t40.5 16.5zM168 288q0 -31 31.5 -68
t91.5 -65q114 59 114 137q0 34 -28 56t-87 22q-60 0 -91 -23.5t-31 -58.5z" />
    <glyph glyph-name="uni063A.fina" unicode="&#x63a;" horiz-adv-x="611" arabic-form="final" 
d="M58 -97q0 65 44 124q43 56 101 92q-53 42 -79 92t-26 95q0 86 63 129q62 43 159 43q93 0 163 -43t70 -128q0 -48 -36 -94t-96 -76q51 -25 150 -25h40v-112h-40q-77 0 -160 18q-84 20 -121 44q-125 -77 -125 -151q0 -40 36.5 -61t97.5 -21q30 0 62 5l15 -101
q-41 -11 -92 -11q-105 0 -165.5 47.5t-60.5 133.5zM209 303q0 -29 27.5 -63t81.5 -65q68 32 96.5 59t28.5 57q0 36 -35 58t-93 22q-49 0 -77.5 -18t-28.5 -50zM359 646v-91h-91v91h91z" />
    <glyph glyph-name="uni063A.init" unicode="&#x63a;" horiz-adv-x="535" arabic-form="initial" 
d="M174 232q0 -46 29 -84q29 -36 97 -36h159v-112h-459q-24 0 -40.5 15.5t-16.5 39.5t16.5 40.5t40.5 16.5h87l5 6q-34 34 -34 119q0 114 65 177q64 64 161 64q107 0 193 -71l-61 -94q-56 48 -126 48q-52 0 -84 -33t-32 -96zM313 646v-91h-91v91h91z" />
    <glyph glyph-name="uni063A.medi" unicode="&#x63a;" horiz-adv-x="569" arabic-form="medial" 
d="M0 112h52q72 0 105 15q-49 38 -74 84t-25 88q0 85 66 131q66 48 168 48q89 0 154 -44t65 -130q0 -46 -27 -94.5t-71 -80.5q48 -17 119 -17h37v-112h-44q-155 0 -238 56q-89 -56 -246 -56h-41q-24 0 -40.5 15.5t-16.5 39.5t16.5 40.5t40.5 16.5zM168 288q0 -31 31.5 -68
t91.5 -65q114 59 114 137q0 34 -28 56t-87 22q-60 0 -91 -23.5t-31 -58.5zM330 646v-91h-91v91h91z" />
    <glyph glyph-name="uni0641.fina" unicode="&#x641;" horiz-adv-x="858" arabic-form="final" 
d="M164 355v-72q0 -87 35.5 -129t117.5 -42h69q43 0 58 -3q0 1 0.5 3t0.5 3q-31 22 -49.5 64t-18.5 87q0 94 56 153t153 59q100 0 157 -60t57 -162q0 -37 -12.5 -75.5t-32.5 -62.5l2 -6h101v-112h-529q-189 0 -246 129q-25 53 -25 199v27h106zM588 368q-49 0 -76.5 -29.5
t-27.5 -75.5q0 -55 39 -95t105 -53q66 43 66 133q0 54 -29 87t-77 33zM630 646v-91h-91v91h91z" />
    <glyph glyph-name="uni0641.init" unicode="&#x641;" horiz-adv-x="535" arabic-form="initial" 
d="M251 0h-251q-24 0 -40 15.5t-16 40.5q0 24 15.5 40t40.5 16h75q41 0 62 -4q0 2 1 3v2q-80 41 -80 150q0 94 56 155q56 60 152 60q103 0 157 -61.5t54 -175.5q0 -117 -59.5 -179t-166.5 -62zM371 248q0 57 -26 88t-76 31t-77 -31.5t-27 -79.5q0 -55 41.5 -89t113.5 -42
q51 35 51 123zM313 646v-91h-91v91h91z" />
    <glyph glyph-name="uni0641.medi" unicode="&#x641;" horiz-adv-x="539" arabic-form="medial" 
d="M-56 56q0 24 15.5 40t40.5 16h67q43 0 58 -3q0 1 0.5 3t0.5 3q-31 22 -49.5 64t-18.5 87q0 94 56 153t153 59q100 0 157 -60t57 -162q0 -37 -12.5 -75.5t-32.5 -62.5l2 -6h101v-112h-539q-24 0 -40 15.5t-16 40.5zM269 368q-49 0 -76.5 -29.5t-27.5 -75.5q0 -55 39 -95
t105 -53q66 43 66 133q0 54 -28.5 87t-77.5 33zM315 646v-91h-91v91h91z" />
    <glyph glyph-name="uni0642.fina" unicode="&#x642;" horiz-adv-x="723" arabic-form="final" 
d="M462 112h101v120q0 133 -100 133q-54 0 -84 -34.5t-30 -99.5q0 -119 113 -119zM669 243v-131h54v-112h-59q-12 -104 -88 -163t-206 -59q-177 0 -249 91q-63 80 -63 200v216h103v-185q0 -90 39 -146q45 -64 171 -64q75 0 123.5 29t57.5 84h-81q-227 0 -227 229
q0 117 58 181.5t165 64.5q96 0 149 -60.5t53 -174.5zM563 646v-91h-91v91h91zM441 646v-91h-90v91h90z" />
    <glyph glyph-name="uni0642.init" unicode="&#x642;" horiz-adv-x="535" arabic-form="initial" 
d="M251 0h-251q-24 0 -40 15.5t-16 40.5q0 24 15.5 40t40.5 16h75q41 0 62 -4q0 2 1 3v2q-80 41 -80 150q0 94 56 155q56 60 152 60q103 0 157 -61.5t54 -175.5q0 -117 -59.5 -179t-166.5 -62zM371 248q0 57 -26 88t-76 31t-77 -31.5t-27 -79.5q0 -55 41.5 -89t113.5 -42
q51 35 51 123zM373 646v-91h-91v91h91zM251 646v-91h-90v91h90z" />
    <glyph glyph-name="uni0642.medi" unicode="&#x642;" horiz-adv-x="539" arabic-form="medial" 
d="M-56 56q0 24 15.5 40t40.5 16h67q43 0 58 -3q0 1 0.5 3t0.5 3q-31 22 -49.5 64t-18.5 87q0 94 56 153t153 59q100 0 157 -60t57 -162q0 -37 -12.5 -75.5t-32.5 -62.5l2 -6h101v-112h-539q-24 0 -40 15.5t-16 40.5zM269 368q-49 0 -76.5 -29.5t-27.5 -75.5q0 -55 39 -95
t105 -53q66 43 66 133q0 54 -28.5 87t-77.5 33zM375 646v-91h-91v91h91zM253 646v-91h-90v91h90z" />
    <glyph glyph-name="uni0643.fina" unicode="&#x643;" horiz-adv-x="778" arabic-form="final" 
d="M600 199v527h103v-528q0 -44 16.5 -64.5t58.5 -21.5v-112q-93 0 -122 56q-24 -32 -52.5 -44t-77.5 -12h-202q-264 0 -264 252v103h103v-72q0 -89 35 -130t120 -41h207q42 0 58.5 21t16.5 66zM416 496q49 0 87 -26l-26 -51q-30 18 -63 18q-21 0 -34 -11t-13 -27
q0 -35 41 -35h94v-58h-229v58h37l2 2q-10 13 -10 35q0 38 30 66.5t84 28.5z" />
    <glyph glyph-name="uni0643.init" unicode="&#x643;" horiz-adv-x="504" arabic-form="initial" 
d="M0 112h333v60q0 41 -10.5 66t-38.5 42l-226 137v75l379 244l51 -77l-306 -196l163 -98q63 -36 79 -90q12 -38 12 -97v-178h-437q-26 0 -41.5 15.5t-15.5 40.5t16 40.5t42 15.5z" />
    <glyph glyph-name="uni0643.medi" unicode="&#x643;" horiz-adv-x="504" arabic-form="medial" 
d="M0 112h333v60q0 41 -10.5 66t-38.5 42l-226 137v75l379 244l51 -77l-306 -196l163 -98q63 -36 79 -90q12 -38 12 -97v-66h68v-112h-505q-26 0 -41.5 15.5t-15.5 40.5t16 40.5t42 15.5z" />
    <glyph glyph-name="uni0644.fina" unicode="&#x644;" horiz-adv-x="530" arabic-form="final" 
d="M369 726h103v-614h58v-112h-58q0 -23 -8 -47q-12 -72 -65.5 -115.5t-135.5 -43.5q-98 0 -151.5 53t-53.5 143v295h103v-266q0 -43 23 -78q24 -35 80 -35q54 0 79.5 30.5t25.5 82.5v707z" />
    <glyph glyph-name="uni0644.init" unicode="&#x644;" horiz-adv-x="229" arabic-form="initial" 
d="M68 211v515h103v-523q0 -203 -171 -203q-24 0 -40.5 15.5t-16.5 39.5t16.5 40t40.5 17q40 1 54 23.5t14 75.5z" />
    <glyph glyph-name="uni0644.medi" unicode="&#x644;" horiz-adv-x="249" arabic-form="medial" 
d="M-57 55q0 22 16.5 39.5t40.5 17.5q37 0 54 22t17 70v522h103v-528q0 -45 17 -65t58 -21v-112q-92 0 -121 56q-41 -56 -128 -56q-24 0 -40.5 15.5t-16.5 39.5z" />
    <glyph glyph-name="uni0645.fina" unicode="&#x645;" horiz-adv-x="757" arabic-form="final" 
d="M757 112v-112q-101 0 -134 54q-33 -33 -70 -43q-41 -11 -117 -11h-177q-50 0 -73 -21t-23 -64v-187h-103v190q0 194 206 194v129q0 114 55.5 175.5t153.5 61.5q103 0 156.5 -63t53.5 -181q0 -4 -0.5 -15t-0.5 -14q0 -49 16 -70.5t57 -22.5zM369 233v-124h103
q109 0 109 124q0 132 -105 132q-107 0 -107 -132z" />
    <glyph glyph-name="uni0645.init" unicode="&#x645;" horiz-adv-x="558" arabic-form="initial" 
d="M285 105q110 0 110 136q0 60 -28 92.5t-77 32.5q-53 0 -82 -36t-29 -96q0 -61 26.5 -95t79.5 -34zM282 -6q-109 0 -154 62q-42 -56 -128 -56q-24 0 -40 15.5t-16 40.5q0 24 16.5 40t39.5 16q71 0 71 90v31q0 115 58.5 180t162.5 65q99 0 154 -64t55 -178
q0 -119 -57 -180.5t-162 -61.5z" />
    <glyph glyph-name="uni0645.medi" unicode="&#x645;" horiz-adv-x="570" arabic-form="medial" 
d="M0 0q-24 0 -40 15.5t-16 40.5q0 24 16.5 40t39.5 16q71 0 71 90v31q0 115 58.5 180t162.5 65q99 0 153 -63.5t54 -181.5q0 -2 -1 -16.5t-1 -16.5q0 -46 16.5 -66.5t56.5 -21.5v-112q-99 0 -132 52q-54 -58 -156 -58q-109 0 -154 62q-42 -56 -128 -56zM288 366
q-53 0 -81.5 -35.5t-28.5 -96.5q0 -129 105 -129q110 0 110 135q0 60 -28 93t-77 33z" />
    <glyph glyph-name="uni0646.fina" unicode="&#x646;" horiz-adv-x="530" arabic-form="final" 
d="M369 389h103v-277h58v-112h-58q0 -88 -57 -147q-56 -59 -152 -59q-98 0 -151.5 53t-53.5 143v295h103v-266q0 -52 25.5 -82.5t77.5 -30.5q105 0 105 113v370zM312 541v-91h-91v91h91z" />
    <glyph glyph-name="uni0646.init" unicode="&#x646;" horiz-adv-x="229" arabic-form="initial" 
d="M68 211v244h103v-252q0 -203 -171 -203q-24 0 -40.5 15.5t-16.5 39.5t16.5 40t40.5 17q40 1 54 23.5t14 75.5zM160 621v-91h-91v91h91z" />
    <glyph glyph-name="uni0646.medi" unicode="&#x646;" horiz-adv-x="249" arabic-form="medial" 
d="M-57 55q0 22 16.5 39.5t40.5 17.5q37 0 54 22t17 70v186h103v-192q0 -45 17 -65t58 -21v-112q-92 0 -121 56q-41 -56 -128 -56q-24 0 -40.5 15.5t-16.5 39.5zM170 561v-91h-91v91h91z" />
    <glyph glyph-name="uniFEE9" unicode="&#x647;" horiz-adv-x="545" arabic-form="isolated" 
d="M279 477q82 0 145 -76q63 -75 63 -189q0 -103 -56 -160.5t-158 -57.5q-112 0 -163.5 53.5t-51.5 162.5q0 110 65 189q66 78 156 78zM277 367q-45 0 -77 -45q-32 -44 -32 -104q0 -58 26 -85t82 -27q52 0 78.5 31t26.5 82q0 63 -33 105q-33 43 -71 43z" />
    <glyph glyph-name="uni0647.fina" unicode="&#x647;" horiz-adv-x="541" arabic-form="final" 
d="M364 435v43h105v-272q0 -48 15.5 -70.5t56.5 -23.5v-112h-11q-55 0 -92 24.5t-49 63.5q-29 -26 -70.5 -41.5t-80.5 -15.5q-88 0 -134 42t-46 118q0 37 13.5 71.5t44.5 70.5t95 63.5t153 38.5zM245 139q120 0 120 127v66q-113 -13 -157 -51q-42 -37 -42 -76q0 -30 21 -48
t58 -18z" />
    <glyph glyph-name="uni0647.init" unicode="&#x647;" horiz-adv-x="691" arabic-form="initial" 
d="M-56 55q0 25 16 41t40 16h48q42 0 59 -4l2 4q-24 16 -37.5 48.5t-13.5 71.5q0 70 42 120q41 48 112 56l-20 42q40 26 98 43t110 17q233 0 233 -264q0 -124 -65 -186q-64 -60 -158 -60h-410q-24 0 -40 15.5t-16 39.5zM381 115v-5q75 0 109.5 34t34.5 105q0 150 -130 150
q-33 0 -71 -15q92 -36 92 -157v-9q-1 -62 -35 -103zM236 313q-35 0 -55 -24.5t-20 -61.5q0 -40 25.5 -69.5t72.5 -38.5q51 29 51 103q0 41 -18.5 66t-55.5 25z" />
    <glyph glyph-name="uni0647.medi" unicode="&#x647;" horiz-adv-x="708" arabic-form="medial" 
d="M58 232q0 70 42 120q41 48 112 56l-20 42q40 26 98 43t110 17q234 0 234 -267v-12q0 -66 15.5 -92t58.5 -27v-112q-105 0 -140 62q-59 -62 -158 -62h-410q-25 0 -40.5 15.5t-15.5 40.5q0 24 15.5 40t40.5 16h50q35 0 57 -5q0 2 2 4q-24 17 -37.5 50.5t-13.5 70.5z
M381 115v-5q75 0 110 33.5t35 105.5q0 150 -131 150q-33 0 -71 -15q92 -36 92 -157v-9q-2 -65 -35 -103zM236 313q-35 0 -55 -24.5t-20 -61.5q0 -40 25.5 -69.5t72.5 -38.5q51 27 51 103q0 41 -18.5 66t-55.5 25z" />
    <glyph glyph-name="uni0648.fina" unicode="&#x648;" horiz-adv-x="541" arabic-form="final" 
d="M280 478q98 0 150.5 -60t52.5 -175v-131h58v-112h-58q-3 -106 -63 -164t-167 -58h-152v113h149q64 0 93 35q30 34 30 77h-89q-226 0 -226 229q0 117 57.5 181.5t164.5 64.5zM275 112h102v120q0 133 -101 133q-53 0 -83 -34.5t-30 -99.5q0 -119 112 -119z" />
    <glyph glyph-name="uni0649.fina" unicode="&#x649;" horiz-adv-x="864" arabic-form="final" 
d="M580 281v-281h-257q-265 0 -265 252v103h103v-72q0 -88 35.5 -129.5t120.5 -41.5h159v187q0 86 47 132.5t129 46.5h154v-366h58v-112h-162v364h-55q-36 0 -51.5 -20.5t-15.5 -62.5z" />
    <glyph glyph-name="uni064A.fina" unicode="&#x64a;" horiz-adv-x="864" arabic-form="final" 
d="M580 281v-281h-257q-265 0 -265 252v103h103v-72q0 -88 35.5 -129.5t120.5 -41.5h159v187q0 86 47 132.5t129 46.5h154v-366h58v-112h-162v364h-55q-36 0 -51.5 -20.5t-15.5 -62.5zM516 -82v-91h-91v91h91zM394 -82v-91h-90v91h90z" />
    <glyph glyph-name="uni064A.init" unicode="&#x64a;" horiz-adv-x="229" arabic-form="initial" 
d="M68 211v244h103v-252q0 -203 -171 -203q-24 0 -40.5 15.5t-16.5 39.5t16.5 40t40.5 17q40 1 54 23.5t14 75.5zM220 -82v-91h-91v91h91zM98 -82v-91h-90v91h90z" />
    <glyph glyph-name="uni064A.medi" unicode="&#x64a;" horiz-adv-x="249" arabic-form="medial" 
d="M-57 55q0 22 16.5 39.5t40.5 17.5q37 0 54 22t17 70v186h103v-192q0 -45 17 -65t58 -21v-112q-92 0 -121 56q-41 -56 -128 -56q-24 0 -40.5 15.5t-16.5 39.5zM230 -82v-91h-91v91h91zM108 -82v-91h-90v91h90z" />
    <glyph glyph-name=".notdef" horiz-adv-x="450" 
d="M450 0h-450v700h450v-700zM225 283l-116 -210h232zM108 627l117 -209l116 209h-233zM184 351l-111 203v-407zM377 554l-111 -205l111 -202v407z" />
    <glyph glyph-name=".null" horiz-adv-x="0" 
 />
    <glyph glyph-name="nonmarkingreturn" horiz-adv-x="333" 
 />
    <glyph glyph-name="NULL" horiz-adv-x="0" 
 />
    <glyph glyph-name="NULL" horiz-adv-x="0" 
 />
    <glyph glyph-name="CR.001" unicode="&#xd;" horiz-adv-x="0" 
 />
    <glyph glyph-name="space" unicode=" " horiz-adv-x="252" 
 />
    <glyph glyph-name="space" unicode="&#xa0;" horiz-adv-x="252" 
 />
    <glyph glyph-name="exclam" unicode="!" horiz-adv-x="268" 
d="M78 696h112l-10 -512h-92zM194 113v-113h-119v113h119z" />
    <glyph glyph-name="quotedbl" unicode="&#x22;" horiz-adv-x="359" 
d="M297 696v-215h-94v215h94zM151 696v-215h-94v215h94z" />
    <glyph glyph-name="numbersign" unicode="#" horiz-adv-x="546" 
d="M523 410h-106l-18 -123h95v-78h-106l-29 -209h-91l29 209h-98l-29 -209h-92l30 209h-89v78h101l17 123h-89v79h101l29 206h90l-29 -206h99l29 206h90l-29 -206h95v-79zM327 410h-99l-18 -123h99z" />
    <glyph glyph-name="dollar" unicode="$" horiz-adv-x="525" 
d="M292 -111h-52v107q-122 7 -214 92l68 88q71 -62 146 -69v187q-94 31 -142.5 77t-48.5 121q0 85 52 140q53 56 139 63v74h52v-74q101 -6 184 -65q-2 -2 -29 -49t-29 -49q-68 44 -126 52v-179q109 -34 158 -80.5t49 -127.5q0 -89 -58 -143t-149 -58v-107zM369 191
q0 33 -18.5 53t-58.5 35v-171q77 12 77 83zM170 497q0 -47 70 -74v160q-70 -13 -70 -86z" />
    <glyph glyph-name="percent" unicode="%" horiz-adv-x="860" 
d="M795 295v-174q0 -56 -40.5 -90t-99.5 -34t-99 34t-40 90v174q0 56 40 90.5t99 34.5t99 -34q41 -35 41 -91zM707 124v169q0 24 -14 37t-38 13t-37.5 -13t-13.5 -37v-169q0 -24 13.5 -37t37.5 -13t38 13t14 37zM344 574v-174q0 -56 -40.5 -90t-99.5 -34t-99 34t-40 90v174
q0 56 40 90.5t99 34.5t99 -34q41 -35 41 -91zM256 403v169q0 24 -14 37t-38 13t-37.5 -13t-13.5 -37v-169q0 -24 13.5 -37t37.5 -13t38 13t14 37zM598 713h90l-426 -730h-89z" />
    <glyph glyph-name="ampersand" unicode="&#x26;" horiz-adv-x="649" 
d="M627 0h-132l-51 66q-80 -72 -174 -72q-98 0 -151 51q-51 53 -51 129q0 123 130 211l-35 47q-35 51 -35 102q0 79 48 124t139 45q102 0 179 -65l-64 -83q-34 28 -59.5 37.5t-61.5 9.5q-34 0 -53.5 -18.5t-19.5 -47.5q0 -30 30 -70l180 -237q24 47 36 108l102 -22
q-19 -101 -70 -173zM382 145l-125 162q-82 -54 -82 -128q0 -38 26 -60.5t72 -22.5q57 0 109 49z" />
    <glyph glyph-name="quotesingle" unicode="'" horiz-adv-x="251" 
d="M170 696v-215h-94v215h94z" />
    <glyph glyph-name="parenleft" unicode="(" horiz-adv-x="332" 
d="M316 -83l-62 -48q-87 94 -142 206q-55 111 -55 230q0 225 193 434l66 -42q-66 -86 -102 -188.5t-36 -198.5q0 -99 37 -202.5t101 -190.5z" />
    <glyph glyph-name="parenright" unicode=")" horiz-adv-x="332" 
d="M296 305q0 -119 -55 -230q-55 -112 -142 -206l-63 48q66 87 102.5 189.5t36.5 203.5q0 96 -36 198.5t-102 188.5l65 42q194 -209 194 -434z" />
    <glyph glyph-name="asterisk" unicode="*" horiz-adv-x="413" 
d="M379 540l-115 -28l79 -89q-17 -15 -73 -54l-61 103l-63 -104l-73 54l80 90q-85 22 -113 28l12 42l13 42l111 -47l-6 60q-5 57 -5 60h90l-12 -120l111 47z" />
    <glyph glyph-name="plus" unicode="+" horiz-adv-x="525" 
d="M501 341v-90h-191v-189h-95v189h-191v90h191v187h95v-187h191z" />
    <glyph glyph-name="comma" unicode="," horiz-adv-x="276" 
d="M203 5l-77 -137h-63l36 131h-33v139h137v-133z" />
    <glyph glyph-name="hyphen" unicode="-" horiz-adv-x="416" 
d="M367 314v-103h-318v103h318z" />
    <glyph glyph-name="period" unicode="." horiz-adv-x="270" 
d="M203 138v-138h-136v138h136z" />
    <glyph glyph-name="slash" unicode="/" horiz-adv-x="343" 
d="M243 725h93l-252 -767h-93z" />
    <glyph glyph-name="zero" unicode="0" horiz-adv-x="525" 
d="M475 498v-301q0 -93 -61 -148q-62 -54 -147 -54t-146 54q-61 55 -61 148v301q0 93 61 148t146 55q86 0 147 -55t61 -148zM360 201v294q0 47 -25 73t-68 26t-67.5 -26t-24.5 -73v-294q0 -47 24.5 -73t67.5 -26t68 26t25 73z" />
    <glyph glyph-name="one" unicode="1" horiz-adv-x="525" 
d="M350 696v-696h-115v570l-97 -69v121l105 74h107z" />
    <glyph glyph-name="two" unicode="2" horiz-adv-x="525" 
d="M169 494l-114 18q10 83 70 137q59 52 140 52q94 0 151 -50t57 -138q0 -78 -50 -137l-221 -266h267v-110h-418v103l274 330q29 38 29 74t-24 60.5t-65 24.5q-39 0 -64 -25.5t-32 -72.5z" />
    <glyph glyph-name="three" unicode="3" horiz-adv-x="525" 
d="M48 162l112 16q7 -36 33 -56t64 -20q45 0 73.5 30.5t28.5 78.5t-28 76t-77 28h-55v94h51q48 0 76 26t28 67q0 39 -27.5 65t-67.5 26q-32 0 -58 -21.5t-34 -59.5l-112 18q17 78 74 124q59 47 133 47q104 0 158 -56q54 -55 54 -138q0 -42 -23.5 -82t-65.5 -62
q46 -23 71 -64.5t25 -87.5q0 -96 -62 -156q-61 -60 -161 -60q-77 0 -135 40t-75 127z" />
    <glyph glyph-name="four" unicode="4" horiz-adv-x="525" 
d="M499 207v-106h-57v-101h-115v101h-299v98l241 497h127l-238 -489h169v193h115v-193h57z" />
    <glyph glyph-name="five" unicode="5" horiz-adv-x="525" 
d="M479 265q0 -129 -53.5 -199.5t-162.5 -70.5q-181 0 -211 166l114 20q14 -81 95 -81q101 0 101 145q0 129 -97 129q-55 0 -86 -60h-108v382h389v-107h-280v-151q44 40 115 40q89 0 135.5 -56t48.5 -157z" />
    <glyph glyph-name="six" unicode="6" horiz-adv-x="525" 
d="M479 217q0 -109 -64 -166q-64 -56 -153 -56q-88 0 -147 56q-59 57 -59 157q0 71 33 134l186 354h128l-150 -288l2 -2q21 6 44 6q80 0 130 -56t50 -139zM265 317q-40 0 -67 -29t-27 -78q0 -51 25.5 -80t68.5 -29q41 0 68 29.5t27 79.5t-26.5 78.5t-68.5 28.5z" />
    <glyph glyph-name="seven" unicode="7" horiz-adv-x="525" 
d="M470 696v-104l-245 -592h-124l239 586h-171v-99h-115v209h416z" />
    <glyph glyph-name="eight" unicode="8" horiz-adv-x="525" 
d="M489 204q0 -92 -65 -151q-64 -58 -157 -58t-157 58q-65 59 -65 151q0 50 25.5 93t69.5 61v3q-39 18 -60 55.5t-21 83.5q0 86 59 143q59 58 149 58q98 0 154 -56q55 -55 55 -145q0 -95 -81 -139v-2q44 -17 69 -60.5t25 -94.5zM362 499q0 44 -26.5 71t-68.5 27
q-41 0 -67.5 -27t-26.5 -71q0 -42 27 -66.5t67 -24.5t67.5 25t27.5 66zM375 207q0 43 -32 72q-31 30 -76 30t-76 -30q-32 -29 -32 -72q0 -45 31 -76t77 -31q45 0 76.5 31t31.5 76z" />
    <glyph glyph-name="nine" unicode="9" horiz-adv-x="525" 
d="M57 479q0 109 63 165q64 57 154 57q88 0 147 -57q59 -56 59 -156q0 -71 -33 -134l-186 -354h-128l150 288l-2 2q-21 -6 -44 -6q-82 0 -131 55t-49 140zM271 379q40 0 67 29t27 78q0 51 -25.5 80t-68.5 29q-41 0 -68 -29.5t-27 -79.5t26.5 -78.5t68.5 -28.5z" />
    <glyph glyph-name="colon" unicode=":" horiz-adv-x="271" 
d="M202 138v-138h-136v138h136zM202 415v-139h-136v139h136z" />
    <glyph glyph-name="semicolon" unicode=";" horiz-adv-x="271" 
d="M203 415v-139h-136v139h136zM203 5l-77 -137h-62l35 131h-32v139h136v-133z" />
    <glyph glyph-name="less" unicode="&#x3c;" horiz-adv-x="525" 
d="M490 141v-101l-460 213v87l460 213v-102l-340 -155z" />
    <glyph glyph-name="equal" unicode="=" horiz-adv-x="525" 
d="M501 446v-89h-478v89h478zM501 236v-90h-478v90h478z" />
    <glyph glyph-name="greater" unicode="&#x3e;" horiz-adv-x="525" 
d="M491 340v-87l-460 -213v101l340 155l-340 155v102z" />
    <glyph glyph-name="question" unicode="?" horiz-adv-x="510" 
d="M470 510q0 -70 -76 -152t-76 -133v-36h-117v39q0 37 21 76.5t50 68.5q72 70 72 133q0 35 -24.5 59.5t-66.5 24.5q-43 0 -70 -31t-30 -76l-113 16q16 95 78 148t145 53q95 0 150 -54q57 -52 57 -136zM318 113v-113h-118v113h118z" />
    <glyph glyph-name="at" unicode="@" horiz-adv-x="874" 
d="M585 409l-1 -149q0 -22 13.5 -37.5t34.5 -15.5q97 0 97 176q0 119 -81 190q-81 72 -197 72q-135 0 -223 -91q-89 -91 -89 -221q0 -138 89 -224t231 -86q118 0 220 49l26 -73q-127 -50 -241 -50q-179 0 -294 103t-115 282q0 165 112 274q113 110 283 110q158 0 260 -93
q103 -93 103 -240q0 -120 -50.5 -187.5t-140.5 -67.5q-27 0 -63 17q-33 17 -44 47h-5q-13 -25 -44.5 -41t-68.5 -16q-63 0 -101.5 31t-38.5 88q0 52 36.5 85.5t98.5 33.5h105v28q0 57 -79 57q-47 0 -88 -35l-51 57q62 59 149 59q157 0 157 -132zM497 278v28h-90
q-64 0 -64 -43q0 -20 18 -34t52 -14q39 0 61.5 16.5t22.5 46.5z" />
    <glyph glyph-name="A" unicode="A" horiz-adv-x="629" 
d="M363 696l263 -696h-128l-55 154h-258l-56 -154h-127l263 696h98zM220 257h187l-46 141l-46 143h-3l-45 -140z" />
    <glyph glyph-name="B" unicode="B" horiz-adv-x="618" 
d="M582 200q0 -88 -60 -144q-59 -56 -144 -56h-305v696h278q103 0 160.5 -51.5t57.5 -138.5q0 -100 -96 -143v-4q51 -15 80 -62t29 -97zM335 588h-141v-181h141q52 0 80 25.5t28 66.5t-28 65t-80 24zM349 305h-155v-195h155q69 -4 97.5 46.5t0 101t-97.5 47.5z" />
    <glyph glyph-name="C" unicode="C" horiz-adv-x="572" 
d="M436 204l115 -48q-26 -76 -90.5 -119t-153.5 -43q-125 0 -193 74q-66 74 -66 191v178q0 112 67 188t192 76q88 0 152 -43t91 -119l-114 -45q-13 43 -47 67.5t-82 24.5q-66 0 -102 -43q-35 -43 -35 -101v-185q0 -62 35 -106q36 -43 102 -43q48 0 82 25.5t47 70.5z" />
    <glyph glyph-name="D" unicode="D" horiz-adv-x="638" 
d="M311 586h-117v-476h119q82 0 119 43.5t37 129.5v130q0 90 -39 131.5t-119 41.5zM73 0v696h253q176 0 237 -129q27 -55 27 -207q0 -165 -25 -222q-60 -138 -256 -138h-236z" />
    <glyph glyph-name="E" unicode="E" horiz-adv-x="564" 
d="M539 110v-110h-466v696h466v-110h-345v-182h294v-106h-294v-188h345z" />
    <glyph glyph-name="F" unicode="F" horiz-adv-x="545" 
d="M539 696v-110h-345v-188h294v-105h-294v-293h-121v696h466z" />
    <glyph glyph-name="G" unicode="G" horiz-adv-x="618" 
d="M308 104q58 0 99 42q41 44 41 100v30h-145v104h265v-137q0 -109 -75 -179q-73 -70 -185 -70q-126 0 -192 73t-66 192v178q0 111 66 188q66 76 189 76q89 0 153 -43t91 -119l-114 -45q-13 42 -48 67t-83 25q-63 0 -98 -40.5t-35 -103.5v-188q0 -61 36 -106q36 -44 101 -44
z" />
    <glyph glyph-name="H" unicode="H" horiz-adv-x="655" 
d="M582 696v-696h-120v298h-268v-298h-121v696h121v-292h268v292h120z" />
    <glyph glyph-name="I" unicode="I" horiz-adv-x="268" 
d="M196 696v-696h-122v696h122z" />
    <glyph glyph-name="J" unicode="J" horiz-adv-x="489" 
d="M424 696v-472q0 -121 -64 -175t-165 -54q-113 0 -190 86l86 79q51 -54 101 -54q111 0 111 122v468h121z" />
    <glyph glyph-name="K" unicode="K" horiz-adv-x="638" 
d="M387 418l258 -418h-143l-195 324l-113 -131v-193h-121v696h122v-337l2 -1l117 143l164 195h144z" />
    <glyph glyph-name="L" unicode="L" horiz-adv-x="564" 
d="M539 110v-110h-466v696h121v-586h345z" />
    <glyph glyph-name="M" unicode="M" horiz-adv-x="765" 
d="M702 696v-696h-121v413h-3l-37 -89l-51 -112l-54 -114h-97l-40 85l-66 146l-36 85l-3 -3v-411h-121v696h113l91 -199l109 -250h4l56 133l51 117l89 199h116z" />
    <glyph glyph-name="N" unicode="N" horiz-adv-x="692" 
d="M621 696v-696h-112l-215 324l-97 159l-3 -1v-482h-121v696h112l195 -296l118 -188l2 2v482h121z" />
    <glyph glyph-name="O" unicode="O" horiz-adv-x="610" 
d="M304 701q118 0 189 -74t71 -190v-178q0 -120 -71 -193q-71 -72 -189 -72q-125 0 -192 76t-67 189v178q0 112 67 188t192 76zM304 587q-66 0 -102 -43q-35 -43 -35 -101v-187q0 -62 35 -106q36 -43 102 -43q62 0 99.5 41.5t37.5 107.5v187q0 62 -37.5 103t-99.5 41z" />
    <glyph glyph-name="P" unicode="P" horiz-adv-x="591" 
d="M581 478q0 -86 -65 -149q-65 -62 -163 -62h-159v-267h-121v696h271q102 0 170 -57q67 -57 67 -161zM457 481q0 51 -30.5 78t-85.5 27h-147v-209h151q50 0 81 29.5t31 74.5z" />
    <glyph glyph-name="Q" unicode="Q" horiz-adv-x="618" 
d="M307 701q119 0 190 -74t71 -190v-178q0 -73 -29 -133l86 -69l-66 -77l-85 66q-65 -52 -167 -52q-124 0 -191 76t-67 189v178q0 112 67 188t191 76zM307 586q-69 0 -103 -45t-34 -118v-166q0 -63 36 -106t101 -43q37 0 65 19l-83 66l67 80l81 -65q8 26 8 49v166
q0 73 -35 118t-103 45z" />
    <glyph glyph-name="R" unicode="R" horiz-adv-x="625" 
d="M443 305l137 -305h-136l-121 287h-129v-287h-121v696h296q91 0 152 -55q61 -54 61 -145q0 -66 -36.5 -116.5t-102.5 -74.5zM458 496q0 93 -108 93h-156v-194h152q51 0 81.5 27t30.5 74z" />
    <glyph glyph-name="S" unicode="S" horiz-adv-x="569" 
d="M518 637l-60 -100q-79 52 -172 52q-58 0 -88 -23.5t-30 -64.5t36 -60q40 -19 134 -35q87 -16 139 -53q66 -43 66 -147q0 -98 -76 -155q-75 -57 -186 -57q-168 0 -276 96l73 94q85 -77 209 -77q60 0 94.5 25t34.5 70q0 41 -30 63t-97 32q-85 12 -137 33q-51 22 -76.5 61
t-27.5 106q0 99 69 151q71 54 167 54q142 0 234 -65z" />
    <glyph glyph-name="T" unicode="T" horiz-adv-x="521" 
d="M513 696v-108h-194v-588h-121v588h-193v108h508z" />
    <glyph glyph-name="U" unicode="U" horiz-adv-x="638" 
d="M579 696v-449q0 -113 -73 -183q-74 -69 -187 -69q-117 0 -188 72q-71 74 -71 185v444h120v-435q0 -67 38.5 -110t101.5 -43q64 0 100.5 39t36.5 109v440h122z" />
    <glyph glyph-name="V" unicode="V" horiz-adv-x="575" 
d="M442 696h129l-235 -696h-99l-236 696h129l100 -318l56 -184h5l53 183z" />
    <glyph glyph-name="W" unicode="W" horiz-adv-x="839" 
d="M478 250l-59 223q-2 0 -3 -1l-67 -254l-30 -108l-31 -111h-101l-181 696h129l78 -340l28 -127h4l32 126l95 341h92q63 -219 96 -344l33 -124h4l14 70l11 53q57 260 79 345h128l-181 -696h-100z" />
    <glyph glyph-name="X" unicode="X" horiz-adv-x="576" 
d="M350 356l225 -356h-136l-152 257l-151 -257h-136l225 356l-212 340h137l137 -240l138 240h136z" />
    <glyph glyph-name="Y" unicode="Y" horiz-adv-x="557" 
d="M425 696h128l-217 -410v-286h-115v286l-217 410h129l84 -172l61 -134h2l62 137z" />
    <glyph glyph-name="Z" unicode="Z" horiz-adv-x="527" 
d="M497 111v-111h-467v104l323 485h-310v107h454v-99l-323 -486h323z" />
    <glyph glyph-name="bracketleft" unicode="[" horiz-adv-x="288" 
d="M269 -19v-81h-199v799h199v-82h-93v-636h93z" />
    <glyph glyph-name="backslash" unicode="\" horiz-adv-x="343" 
d="M337 -42h-93l-252 767h93z" />
    <glyph glyph-name="bracketright" unicode="]" horiz-adv-x="288" 
d="M221 699v-799h-199v81h93v636h-93v82h199z" />
    <glyph glyph-name="asciicircum" unicode="^" horiz-adv-x="525" 
d="M308 695l197 -413h-101l-140 298l-140 -299h-100l197 414h87z" />
    <glyph glyph-name="underscore" unicode="_" horiz-adv-x="500" 
d="M500 -69v-76h-500v76h500z" />
    <glyph glyph-name="grave" unicode="`" horiz-adv-x="504" 
d="M260 759l82 -186l-67 -29l-123 179z" />
    <glyph glyph-name="a" unicode="a" horiz-adv-x="499" 
d="M245 500q205 0 205 -164v-336h-113v44q-1 1 -2 1q-38 -50 -129 -50q-81 0 -126 39t-45 110q0 65 45.5 107t122.5 42h134v36q0 71 -98 71q-74 0 -118 -41l-60 76q65 65 184 65zM142 152q0 -28 22 -44.5t66 -16.5q98 0 106 69q1 5 1 47h-115q-80 0 -80 -55z" />
    <glyph glyph-name="b" unicode="b" horiz-adv-x="515" 
d="M473 257q0 -262 -178 -262q-81 0 -122 53l-2 -1v-47h-113v727h113v-279l2 -1q50 53 122 53q177 0 178 -243zM357 248q0 57 -15 96q-17 49 -78 49q-93 0 -93 -145q0 -150 93 -150q48 0 69 34q24 38 24 116z" />
    <glyph glyph-name="c" unicode="c" horiz-adv-x="447" 
d="M356 145l74 -78q-76 -73 -175 -73q-97 0 -162 63q-65 65 -65 190q0 126 67 189q67 64 164 64q99 0 169 -70l-73 -79q-43 46 -94 46q-117 0 -117 -150q0 -149 116 -149q49 0 96 47z" />
    <glyph glyph-name="d" unicode="d" horiz-adv-x="515" 
d="M463 726v-726h-113v46l-2 2q-47 -53 -124 -53q-88 0 -130 54q-19 25 -29 60q-17 54 -17 142q0 93 36 166q44 84 152 84q74 0 112 -48l2 1v272h113zM350 248q0 55 -15 95q-17 50 -76 50q-62 0 -81 -52q-14 -42 -14 -100q0 -54 14 -93q19 -47 79 -47q93 0 93 147z" />
    <glyph glyph-name="e" unicode="e" horiz-adv-x="507" 
d="M466 264v-49h-312q0 -52 27.5 -85.5t77.5 -33.5q27 0 60.5 12.5t56.5 34.5l33 -40l33 -39q-74 -70 -187 -70q-34 0 -63.5 6.5t-58.5 24t-49.5 45t-33.5 73t-13 103.5q0 139 70 199q62 56 146 56q99 0 156 -64t57 -173zM156 295h190q-3 48 -28.5 75.5t-65.5 27.5
q-39 0 -65.5 -28t-30.5 -75z" />
    <glyph glyph-name="f" unicode="f" horiz-adv-x="302" 
d="M293 495v-91h-101v-404h-113v404h-58v91h58v96q0 65 38.5 101t102.5 36h73v-98h-55q-46 0 -46 -52v-83h101z" />
    <glyph glyph-name="g" unicode="g" horiz-adv-x="522" 
d="M345 450v45h111v-475q0 -223 -221 -223q-105 0 -172 60l59 83q55 -40 122 -40q48 0 75 27t27 75v46h-2q-47 -53 -119 -53q-182 0 -182 241q0 264 185 264q74 0 115 -50h2zM158 247q0 -60 14 -99q18 -47 80 -47q93 0 93 146q0 54 -13 93q-17 54 -79 54t-81 -50
q-14 -41 -14 -97z" />
    <glyph glyph-name="h" unicode="h" horiz-adv-x="529" 
d="M485 325v-325h-113v294q0 100 -89 100q-43 0 -70 -27.5t-27 -72.5v-294h-113v726h113v-279h3q23 24 58 38.5t69 14.5q76 0 122.5 -46.5t46.5 -128.5z" />
    <glyph glyph-name="i" unicode="i" horiz-adv-x="247" 
d="M180 696v-104h-113v104h113zM180 495v-495h-113v495h113z" />
    <glyph glyph-name="j" unicode="j" horiz-adv-x="265" 
d="M190 696v-104h-114v104h114zM76 496h114v-555q0 -66 -38 -104t-108 -38h-52v100h28q56 0 56 59v538z" />
    <glyph glyph-name="k" unicode="k" horiz-adv-x="520" 
d="M320 302l203 -302h-132l-145 222l-70 -76v-146h-112v726h112v-435h3l96 110l86 94h138z" />
    <glyph glyph-name="l" unicode="l" horiz-adv-x="265" 
d="M245 100v-100h-43q-138 0 -138 131v595h113v-578q0 -48 48 -48h20z" />
    <glyph glyph-name="m" unicode="m" horiz-adv-x="833" 
d="M772 326v-326h-112v295q0 101 -93 101q-40 0 -66.5 -28.5t-26.5 -72.5v-295h-113v295q0 48 -24 74.5t-69 26.5q-40 0 -67 -28.5t-27 -72.5v-295h-113v495h113v-53h1q1 -1 2 -1q21 27 57 43t75 16q93 0 137 -71q68 71 157 71q78 0 123.5 -46t45.5 -128z" />
    <glyph glyph-name="n" unicode="n" horiz-adv-x="529" 
d="M470 325v-325h-113v294q0 100 -91 100q-42 0 -68.5 -27.5t-26.5 -72.5v-294h-113v496h113v-52h2q50 56 129 56t123.5 -45.5t44.5 -129.5z" />
    <glyph glyph-name="o" unicode="o" horiz-adv-x="515" 
d="M266 501q116 0 172 -83q38 -59 36 -163q0 -110 -34 -168q-27 -45 -76 -69.5t-110 -24.5q-118 0 -171 78q-40 61 -39 176q0 90 25 140q25 54 77 84t120 30zM262 399q-61 0 -87 -56q-16 -34 -17 -97q0 -65 15 -95q24 -55 84 -55q70 0 93 71q9 29 9 88q0 60 -13 87
q-22 57 -84 57z" />
    <glyph glyph-name="p" unicode="p" horiz-adv-x="516" 
d="M60 -200v695h112v-44l3 -1q45 50 121 50q111 0 148 -85q31 -68 31 -169q0 -99 -36 -168q-40 -84 -155 -84q-72 0 -110 47h-2v-241h-112zM172 246q0 -146 92 -146q60 0 79 49q15 39 15 97q0 50 -8 79q-16 69 -84 69q-94 0 -94 -148z" />
    <glyph glyph-name="q" unicode="q" horiz-adv-x="522" 
d="M53 238q0 262 192 262q69 0 109 -51h2v46h113v-697h-113v249h-2q-50 -53 -120 -53q-109 0 -148 79q-33 70 -33 165zM169 246q0 -56 14 -97q19 -48 80 -48q93 0 93 145q0 151 -92 151q-48 0 -71 -35q-24 -38 -24 -116z" />
    <glyph glyph-name="r" unicode="r" horiz-adv-x="388" 
d="M270 395q-43 0 -68 -25.5t-25 -72.5v-298h-113v496h111v-59h4q45 64 120 64q56 0 94 -26l-42 -102q-38 23 -81 23z" />
    <glyph glyph-name="s" unicode="s" horiz-adv-x="463" 
d="M433 151q0 -72 -58 -115q-59 -42 -144 -42q-129 0 -215 75l61 81q65 -59 159 -59q37 0 61.5 15.5t24.5 41.5q0 25 -21 38t-67 18q-62 7 -104 21q-79 26 -84 120q0 73 53 114t132 41q116 0 190 -56l-54 -86q-64 43 -134 43q-38 0 -59 -14.5t-21 -38.5t26.5 -35.5
t91.5 -18.5q162 -18 162 -143z" />
    <glyph glyph-name="t" unicode="t" horiz-adv-x="316" 
d="M285 99v-99h-68q-57 0 -92 33.5t-35 90.5v280h-57v92h58v129h110v-129h76v-92h-75v-249q0 -56 46 -56h37z" />
    <glyph glyph-name="u" unicode="u" horiz-adv-x="533" 
d="M59 170v325h112v-295q0 -52 22 -76.5t70 -24.5q42 0 68.5 28t26.5 73v295h113v-495h-113v49h-3q-45 -55 -126 -55t-125.5 44.5t-44.5 131.5z" />
    <glyph glyph-name="v" unicode="v" horiz-adv-x="480" 
d="M193 293l47 -138h3l43 138l67 202h122l-189 -495h-91l-190 495h122z" />
    <glyph glyph-name="w" unicode="w" horiz-adv-x="736" 
d="M490 252l24 -84h6q12 33 22 85q7 25 11 40q41 150 56 202h121l-164 -495h-99l-70 231l-29 94h-2l-31 -106q-21 -73 -67 -219h-99l-164 495h121q32 -109 40 -140l24 -89q17 -65 27 -95h4l42 139l58 185h95z" />
    <glyph glyph-name="x" unicode="x" horiz-adv-x="501" 
d="M310 252l180 -252h-136l-104 167l-103 -167h-136l180 253l-172 242h135l96 -160l97 160h135z" />
    <glyph glyph-name="y" unicode="y" horiz-adv-x="470" 
d="M351 495h119l-218 -595q-37 -100 -144 -100h-42v95h31q41 0 60 52l25 78l-182 470h122l64 -182l49 -156h4l49 154z" />
    <glyph glyph-name="z" unicode="z" horiz-adv-x="449" 
d="M417 102v-102h-386v94l249 304h-235v97h372v-92l-248 -301h248z" />
    <glyph glyph-name="braceleft" unicode="{" horiz-adv-x="288" 
d="M279 -21v-77h-83q-42 0 -70.5 26.5t-33.5 71.5q-2 30 -2 35v101q0 29 -1 36q-6 84 -76 88v77q77 8 77 110v133q0 51 30 83.5t76 32.5h83v-78h-41q-43 0 -43 -72v-121q0 -47 -22 -79t-54 -46v-2q32 -12 54 -44.5t22 -78.5v-124q0 -72 43 -72h41z" />
    <glyph glyph-name="bar" unicode="|" horiz-adv-x="232" 
d="M163 723v-918h-95v918h95z" />
    <glyph glyph-name="braceright" unicode="}" horiz-adv-x="288" 
d="M276 337v-77q-40 1 -58.5 -32.5t-18.5 -91.5v-101q0 -21 -2 -35q-5 -45 -33.5 -71.5t-69.5 -26.5h-83v77h41q43 0 43 72v124q0 47 22 80t54 43v2q-32 13 -54 45.5t-22 79.5v121q0 72 -43 72h-41v76h82q48 0 77 -31.5t29 -82.5v-133q0 -47 20.5 -78t56.5 -32z" />
    <glyph glyph-name="asciitilde" unicode="~" horiz-adv-x="525" 
d="M427 353l67 -45q-57 -107 -139 -107q-29 0 -90 29q-60 30 -83 30q-24 0 -41.5 -11.5t-40.5 -41.5l-66 43q57 105 144 105q34 -2 90 -31q60 -29 80 -29t37 13t42 45z" />
    <glyph glyph-name="exclamdown" unicode="&#xa1;" horiz-adv-x="268" 
d="M192 -203h-112l8 511h97zM76 379v114h119v-114h-119z" />
    <glyph glyph-name="cent" unicode="&#xa2;" horiz-adv-x="525" 
d="M302 -117h-45v113q-90 10 -143 74t-53 177q0 111 53.5 175t142.5 76v103h45v-101q92 -5 159 -70l-73 -79q-42 42 -86 46v-299q45 5 87 47l74 -78q-70 -67 -161 -72v-112zM177 247q0 -125 80 -145v290q-80 -23 -80 -145z" />
    <glyph glyph-name="sterling" unicode="&#xa3;" horiz-adv-x="525" 
d="M489 592l-96 -66q-47 69 -119 69q-33 0 -57 -24t-24 -63q0 -26 18 -72q17 -44 22 -69h150v-87h-146q-4 -106 -50 -179h295v-101h-443v86q71 95 78 194h-80v87h67q-3 11 -17 46q-23 61 -23 97q0 78 53 134q54 56 154 56q77 0 123 -21q47 -20 95 -87z" />
    <glyph glyph-name="currency" unicode="&#xa4;" horiz-adv-x="556" 
d="M155 320q0 -48 35 -85q37 -35 85 -35q50 0 85 35q36 35 36 85q0 51 -35 85.5t-86 34.5q-50 0 -85 -35t-35 -85zM101 433l-68 67q5 6 61 62l68 -68q56 35 114 35q59 0 114 -34q32 35 67 67l61 -62l-68 -67q70 -111 1 -226q26 -24 67 -66l-61 -62l-67 67q-53 -35 -114 -35
q-58 0 -114 35l-68 -67l-45 45l-16 16l68 67q-34 55 -34 113q0 57 34 113z" />
    <glyph glyph-name="yen" unicode="&#xa5;" horiz-adv-x="525" 
d="M264 386h4l58 146l72 164h123l-161 -333h110v-68h-145l-5 -17v-52h150v-68h-150v-158h-114v158h-148v68h148v52l-5 17h-143v68h108l-163 333h129l81 -186q17 -38 29 -70q20 -50 22 -54z" />
    <glyph glyph-name="brokenbar" unicode="&#xa6;" horiz-adv-x="232" 
d="M163 723v-429h-95v429h95zM68 -195v427h95v-427h-95z" />
    <glyph glyph-name="section" unicode="&#xa7;" horiz-adv-x="488" 
d="M454 292q0 -32 -15.5 -62.5t-37.5 -46.5q44 -42 44 -94q0 -77 -58 -123t-148 -46q-120 0 -200 80l63 73q60 -60 138 -60q99 0 99 71q0 27 -24.5 45t-85.5 36q-90 28 -134 63q-42 36 -42 106q0 29 17 58.5t43 47.5q-48 44 -48 99q0 73 54 116q54 45 135 45q115 0 189 -59
l-57 -78q-61 43 -137 43q-33 0 -57 -17.5t-24 -43.5q0 -30 34 -48q20 -10 32 -14l39 -13l35 -11q60 -18 99 -52q47 -38 47 -115zM185 391q-31 -18 -31 -51q0 -34 53 -57q25 -11 62 -23q47 -15 63 -22q23 17 23 50q0 29 -24.5 46t-91.5 38q-25 7 -54 19z" />
    <glyph glyph-name="dieresis" unicode="&#xa8;" horiz-adv-x="504" 
d="M410 692v-109h-118v109h118zM211 692v-109h-119v109h119z" />
    <glyph glyph-name="copyright" unicode="&#xa9;" horiz-adv-x="812" 
d="M408 -12q-152 0 -252 99q-100 100 -100 255q0 152 101 253q101 102 251 102t251 -101t101 -254q0 -152 -101 -253t-251 -101zM132 342q0 -121 79 -203q79 -81 197 -81t196 81q79 80 79 203q0 125 -79 204q-78 81 -196 81t-197 -82q-79 -80 -79 -203zM488 250l77 -32
q-17 -50 -57.5 -77.5t-97.5 -27.5q-77 0 -120 45.5t-43 121.5v109q0 70 42 118q43 49 121 49q56 0 96 -28t58 -77l-76 -30q-20 58 -78 58q-38 0 -60 -24.5t-22 -61.5v-115q0 -38 22 -63.5t60 -25.5q60 0 78 61z" />
    <glyph glyph-name="ordfeminine" unicode="&#xaa;" horiz-adv-x="348" 
d="M170 610q147 0 147 -111v-220h-87v38q-30 -42 -89 -42q-56 0 -86.5 26.5t-30.5 75.5q0 43 32 70t88 27h86v22q0 40 -61 40q-53 0 -80 -29l-50 53q47 50 131 50zM108 382q0 -34 54 -34q67 0 67 45l1 3v7v11h-73q-49 0 -49 -32z" />
    <glyph glyph-name="guillemotleft" unicode="&#xab;" horiz-adv-x="525" 
d="M358 228l133 -200h-109l-137 200l137 200h109zM157 228l134 -200h-109l-137 200l137 200h109z" />
    <glyph glyph-name="logicalnot" unicode="&#xac;" horiz-adv-x="525" 
d="M24 341h476v-279h-94v189h-382v90z" />
    <glyph glyph-name="sfthyphen" unicode="&#xad;" horiz-adv-x="416" 
d="M367 314v-103h-318v103h318z" />
    <glyph glyph-name="registered" unicode="&#xae;" horiz-adv-x="543" 
d="M373 367h-53l-47 97h-35v-97h-47v243h99q33 0 54 -19.5t21 -51.5q0 -44 -44 -67zM287 567h-49v-59h47q15 0 24.5 8.5t9.5 22.5q0 28 -32 28zM272 277q-92 0 -154 60q-61 60 -61 151q0 90 63 152q62 61 152 61q92 0 153 -61q62 -62 62 -152t-63 -151q-63 -60 -152 -60z
M105 488q0 -70 48 -120q48 -48 119 -48q72 0 118 48q48 50 48 120q0 72 -48 120q-46 49 -118 49q-71 0 -119 -49q-48 -48 -48 -120z" />
    <glyph glyph-name="overscore" unicode="&#xaf;" horiz-adv-x="504" 
d="M410 686v-97h-301v97h301z" />
    <glyph glyph-name="degree" unicode="&#xb0;" horiz-adv-x="409" 
d="M353 558q0 -60 -44 -102q-43 -42 -105 -42t-106 42q-43 42 -43 102q0 59 43 101q44 42 106 42t105 -42q44 -42 44 -101zM204 628q-29 0 -50.5 -20.5t-21.5 -49.5t21.5 -50t50.5 -21q31 0 52 21t21 50t-21 49.5t-52 20.5z" />
    <glyph glyph-name="plusminus" unicode="&#xb1;" horiz-adv-x="525" 
d="M501 396v-90h-189v-174h-95v174h-189v90h189v178h95v-178h189zM503 89v-89h-477v89h477z" />
    <glyph glyph-name="twosuperior" unicode="&#xb2;" horiz-adv-x="327" 
d="M111 653l-88 12q7 55 48 89.5t96 34.5q62 0 100.5 -31t38.5 -85q0 -47 -35 -85l-61 -67q-14 -16 -30 -33t-24.5 -26.5t-12.5 -14.5h159v-78h-280v70l176 193q17 20 17 37q0 18 -13.5 30t-34.5 12t-36.5 -15.5t-19.5 -42.5z" />
    <glyph glyph-name="threesuperior" unicode="&#xb3;" horiz-adv-x="331" 
d="M20 476l86 12q9 -46 56 -46q25 0 41 16t16 40t-16 38.5t-44 14.5h-37v69h35q44 -3 55 32q9 31 -15 50q-14 12 -34 10q-18 0 -33 -13t-21 -35l-85 12q11 51 50.5 82t90.5 31q68 0 104.5 -33t36.5 -87q0 -58 -49 -83q54 -27 54 -88q0 -58 -41.5 -95t-107.5 -37
q-54 0 -92.5 28t-49.5 82z" />
    <glyph glyph-name="acute" unicode="&#xb4;" horiz-adv-x="504" 
d="M374 725l-118 -181l-68 25l79 190z" />
    <glyph glyph-name="mu" unicode="&#xb5;" horiz-adv-x="537" 
d="M476 495v-495h-113v45q-1 1 -3 1q-45 -51 -119 -51q-35 0 -63 16l-1 -1v-210h-113v695h113v-295q0 -46 24 -72.5t69 -26.5q42 0 67.5 27t25.5 72v295h113z" />
    <glyph glyph-name="mu" unicode="&#x3bc;" horiz-adv-x="537" 
d="M476 495v-495h-113v45q-1 1 -3 1q-45 -51 -119 -51q-35 0 -63 16l-1 -1v-210h-113v695h113v-295q0 -46 24 -72.5t69 -26.5q42 0 67.5 27t25.5 72v295h113z" />
    <glyph glyph-name="paragraph" unicode="&#xb6;" horiz-adv-x="563" 
d="M313 -80h-89v397h-32q-73 0 -115 56q-42 55 -42 132q0 81 48 139q48 60 134 60h150q83 1 153 1v-76h-43v-709h-87v709h-77v-709z" />
    <glyph glyph-name="middot" unicode="&#xb7;" horiz-adv-x="271" 
d="M203 343v-138h-136v138h136z" />
    <glyph glyph-name="cedilla" unicode="&#xb8;" horiz-adv-x="447" 
d="M178 -70l36 114q6 0 29 -0.5t30 -0.5q-22 -66 -26 -80q48 -4 73 -28.5t25 -58.5q0 -37 -31 -63t-83 -26q-57 0 -100 24l21 52q33 -16 72 -16q44 0 44 33q0 32 -43 32q-3 0 -17 -2z" />
    <glyph glyph-name="onesuperior" unicode="&#xb9;" horiz-adv-x="278" 
d="M199 786v-417h-89v323l-61 -40v88l72 46h78z" />
    <glyph glyph-name="ordmasculine" unicode="&#xba;" horiz-adv-x="356" 
d="M183 610q83 0 121 -56q26 -37 26 -107q0 -69 -25 -109q-40 -64 -130 -64q-83 0 -121 53q-28 40 -28 116q1 59 18 91q38 76 139 76zM180 534q-38 0 -54 -33q-11 -22 -11 -59q0 -39 10 -58q13 -33 52 -33q41 0 57 42q6 18 6 54t-8 54q-14 33 -52 33z" />
    <glyph glyph-name="guillemotright" unicode="&#xbb;" horiz-adv-x="525" 
d="M291 228l-136 -200h-109l132 200l-132 200h109zM491 228l-136 -200h-109l133 200l-133 200h109z" />
    <glyph glyph-name="onequarter" unicode="&#xbc;" horiz-adv-x="860" 
d="M767 135v-76h-36v-59h-88v59h-190v65l155 293h98l-151 -282h88v95h88v-95h36zM571 713h90l-426 -730h-89zM243 696v-417h-89v323l-61 -40v88l72 46h78z" />
    <glyph glyph-name="onehalf" unicode="&#xbd;" horiz-adv-x="860" 
d="M779 78v-78h-280v70l176 193v-1q17 20 17 38t-13.5 30t-36.5 12q-21 0 -36 -15.5t-19 -42.5l-87 12q7 55 47 89t95 34q63 0 101.5 -30.5t38.5 -84.5q0 -48 -34 -85l-129 -141h160zM553 713h90l-426 -730h-89zM228 696v-417h-89v323l-61 -40v88l72 46h78z" />
    <glyph glyph-name="threequarters" unicode="&#xbe;" horiz-adv-x="860" 
d="M814 135v-76h-36v-59h-88v59h-190v65l155 293h98l-151 -282h88v95h88v-95h36zM45 386l86 12q9 -46 56 -46q25 0 41 16t16 40t-16 38.5t-44 14.5h-37v69h35q44 -3 55 32q9 31 -15 50q-14 12 -34 10q-18 0 -33 -13t-21 -35l-85 12q11 51 50.5 82t90.5 31q68 0 104.5 -33
t36.5 -87q0 -58 -49 -83q54 -27 54 -88q0 -58 -41.5 -95t-107.5 -37q-54 0 -92.5 28t-49.5 82zM619 713h90l-426 -730h-89z" />
    <glyph glyph-name="questiondown" unicode="&#xbf;" horiz-adv-x="472" 
d="M27 -17q0 36 16 68q17 35 28 49l45 49q24 25 31 36q32 40 32 82v36h117v-39q0 -45 -20.5 -84.5t-66.5 -94.5q-56 -62 -56 -99q0 -34 24.5 -59t66.5 -25q43 0 70 31t30 76l58 -8l58 -8q-16 -96 -79 -148q-64 -53 -147 -53q-94 0 -151 54q-56 54 -56 137zM179 379v113h118
v-113h-118z" />
    <glyph glyph-name="Agrave" unicode="&#xc0;" horiz-adv-x="629" 
d="M363 696l263 -696h-128l-55 154h-258l-56 -154h-127l263 696h98zM220 257h187l-46 141l-46 143h-3l-45 -140zM201 916l165 -125l-47 -56l-192 97z" />
    <glyph glyph-name="Aacute" unicode="&#xc1;" horiz-adv-x="629" 
d="M363 696l263 -696h-128l-55 154h-258l-56 -154h-127l263 696h98zM220 257h187l-46 141l-46 143h-3l-45 -140zM474 832l-192 -97l-47 56l165 125z" />
    <glyph glyph-name="Acircumflex" unicode="&#xc2;" horiz-adv-x="629" 
d="M363 696l263 -696h-128l-55 154h-258l-56 -154h-127l263 696h98zM220 257h187l-46 141l-46 143h-3l-45 -140zM500 782l-40 -49l-147 82l-147 -82l-38 48l149 124h76z" />
    <glyph glyph-name="Atilde" unicode="&#xc3;" horiz-adv-x="629" 
d="M363 696l263 -696h-128l-55 154h-258l-56 -154h-127l263 696h98zM220 257h187l-46 141l-46 143h-3l-45 -140zM243 875q27 0 73 -24t60 -24q31 0 64 47l60 -35q-46 -99 -114 -99q-26 0 -74 23t-64 23q-33 0 -69 -45l-57 33q50 101 121 101z" />
    <glyph glyph-name="Adieresis" unicode="&#xc4;" horiz-adv-x="629" 
d="M363 696l263 -696h-128l-55 154h-258l-56 -154h-127l263 696h98zM220 257h187l-46 141l-46 143h-3l-45 -140zM472 868v-111h-120v111h120zM275 868v-111h-121v111h121z" />
    <glyph glyph-name="Aring" unicode="&#xc5;" horiz-adv-x="629" 
d="M363 696l263 -696h-128l-55 154h-258l-56 -154h-127l263 696h98zM220 257h187l-46 141l-46 143h-3l-45 -140zM314 775q19 0 33 13.5t14 32.5t-13.5 32.5t-33.5 13.5t-34 -13.5t-14 -32.5t14 -32.5t34 -13.5zM202 821q0 45 32.5 76.5t79.5 31.5q46 0 78.5 -31.5
t32.5 -76.5t-33 -76q-31 -31 -78 -31t-79 31q-33 31 -33 76z" />
    <glyph glyph-name="AE" unicode="&#xc6;" horiz-adv-x="1034" 
d="M983 109v-109h-466v176h-247l-107 -176h-137l433 696h524v-110h-345v-183h294v-105h-294v-189h345zM517 585h-2l-184 -304h186v304z" />
    <glyph glyph-name="Ccedilla" unicode="&#xc7;" horiz-adv-x="572" 
d="M436 204l115 -48q-26 -75 -86.5 -117t-146.5 -45l-9 -31q48 -4 73 -28.5t25 -58.5q0 -37 -31 -63t-83 -26q-57 0 -100 24l21 52q33 -16 72 -16q44 0 44 33q0 32 -43 32q-3 0 -17 -2l-30 20l21 67q-102 14 -157.5 84.5t-55.5 177.5v178q0 112 67 188t192 76q88 0 152 -43
t91 -119l-114 -45q-13 43 -47 67.5t-82 24.5q-66 0 -102 -43q-35 -43 -35 -101v-185q0 -62 35 -106q36 -43 102 -43q48 0 82 25.5t47 70.5z" />
    <glyph glyph-name="Egrave" unicode="&#xc8;" horiz-adv-x="564" 
d="M539 110v-110h-466v696h466v-110h-345v-182h294v-106h-294v-188h345zM192 916l165 -125l-47 -56l-192 97z" />
    <glyph glyph-name="Eacute" unicode="&#xc9;" horiz-adv-x="564" 
d="M539 110v-110h-466v696h466v-110h-345v-182h294v-106h-294v-188h345zM454 832l-192 -97l-47 56l165 125z" />
    <glyph glyph-name="Ecircumflex" unicode="&#xca;" horiz-adv-x="564" 
d="M539 110v-110h-466v696h466v-110h-345v-182h294v-106h-294v-188h345zM486 782l-40 -49l-147 82l-147 -82l-38 48l149 124h76z" />
    <glyph glyph-name="Edieresis" unicode="&#xcb;" horiz-adv-x="564" 
d="M539 110v-110h-466v696h466v-110h-345v-182h294v-106h-294v-188h345zM460 862v-109h-118v109h118zM261 862v-109h-119v109h119z" />
    <glyph glyph-name="Igrave" unicode="&#xcc;" horiz-adv-x="268" 
d="M196 696v-696h-122v696h122zM8 916l165 -125l-47 -56l-192 97z" />
    <glyph glyph-name="Iacute" unicode="&#xcd;" horiz-adv-x="268" 
d="M196 696v-696h-122v696h122zM312 832l-192 -97l-47 56l165 125z" />
    <glyph glyph-name="Icircumflex" unicode="&#xce;" horiz-adv-x="268" 
d="M323 782l-40 -49l-147 82l-147 -82l-38 48l149 124h76zM196 696v-696h-122v696h122z" />
    <glyph glyph-name="Idieresis" unicode="&#xcf;" horiz-adv-x="268" 
d="M293 862v-109h-118v109h118zM94 862v-109h-119v109h119zM196 696v-696h-122v696h122z" />
    <glyph glyph-name="Eth" unicode="&#xd0;" horiz-adv-x="638" 
d="M73 306h-67v85h67v305h253q176 0 237 -129q27 -55 27 -207q0 -165 -25 -222q-60 -138 -256 -138h-236v306zM311 586h-117v-195h97v-85h-97v-196h119q82 0 119 43.5t37 129.5v130q0 90 -39 131.5t-119 41.5z" />
    <glyph glyph-name="Ntilde" unicode="&#xd1;" horiz-adv-x="692" 
d="M621 696v-696h-112l-215 324l-97 159l-3 -1v-482h-121v696h112l195 -296l118 -188l2 2v482h121zM274 876q27 0 73 -24t60 -24q31 0 64 47l60 -35q-46 -99 -114 -99q-26 0 -74 23t-64 23q-33 0 -69 -45l-57 33q50 101 121 101z" />
    <glyph glyph-name="Ograve" unicode="&#xd2;" horiz-adv-x="610" 
d="M304 701q118 0 189 -74t71 -190v-178q0 -120 -71 -193q-71 -72 -189 -72q-125 0 -192 76t-67 189v178q0 112 67 188t192 76zM304 587q-66 0 -102 -43q-35 -43 -35 -101v-187q0 -62 35 -106q36 -43 102 -43q62 0 99.5 41.5t37.5 107.5v187q0 62 -37.5 103t-99.5 41z
M215 916l165 -125l-47 -56l-192 97z" />
    <glyph glyph-name="Oacute" unicode="&#xd3;" horiz-adv-x="610" 
d="M304 701q118 0 189 -74t71 -190v-178q0 -120 -71 -193q-71 -72 -189 -72q-125 0 -192 76t-67 189v178q0 112 67 188t192 76zM304 587q-66 0 -102 -43q-35 -43 -35 -101v-187q0 -62 35 -106q36 -43 102 -43q62 0 99.5 41.5t37.5 107.5v187q0 62 -37.5 103t-99.5 41z
M482 832l-192 -97l-47 56l165 125z" />
    <glyph glyph-name="Ocircumflex" unicode="&#xd4;" horiz-adv-x="610" 
d="M304 701q118 0 189 -74t71 -190v-178q0 -120 -71 -193q-71 -72 -189 -72q-125 0 -192 76t-67 189v178q0 112 67 188t192 76zM304 587q-66 0 -102 -43q-35 -43 -35 -101v-187q0 -62 35 -106q36 -43 102 -43q62 0 99.5 41.5t37.5 107.5v187q0 62 -37.5 103t-99.5 41z
M491 782l-40 -49l-147 82l-147 -82l-38 48l149 124h76z" />
    <glyph glyph-name="Otilde" unicode="&#xd5;" horiz-adv-x="610" 
d="M304 701q118 0 189 -74t71 -190v-178q0 -120 -71 -193q-71 -72 -189 -72q-125 0 -192 76t-67 189v178q0 112 67 188t192 76zM304 587q-66 0 -102 -43q-35 -43 -35 -101v-187q0 -62 35 -106q36 -43 102 -43q62 0 99.5 41.5t37.5 107.5v187q0 62 -37.5 103t-99.5 41z
M239 875q27 0 73 -24t60 -24q31 0 64 47l60 -35q-46 -99 -114 -99q-26 0 -74 23t-64 23q-33 0 -69 -45l-57 33q50 101 121 101z" />
    <glyph glyph-name="Odieresis" unicode="&#xd6;" horiz-adv-x="610" 
d="M304 701q118 0 189 -74t71 -190v-178q0 -120 -71 -193q-71 -72 -189 -72q-125 0 -192 76t-67 189v178q0 112 67 188t192 76zM304 587q-66 0 -102 -43q-35 -43 -35 -101v-187q0 -62 35 -106q36 -43 102 -43q62 0 99.5 41.5t37.5 107.5v187q0 62 -37.5 103t-99.5 41z
M463 868v-111h-120v111h120zM266 868v-111h-121v111h121z" />
    <glyph glyph-name="multiply" unicode="&#xd7;" horiz-adv-x="525" 
d="M496 120l-63 -64l-165 165l-161 -161l-67 66l161 161l-164 165l64 63l164 -164l159 160l67 -67l-160 -159z" />
    <glyph glyph-name="Oslash" unicode="&#xd8;" horiz-adv-x="610" 
d="M304 701q99 0 169 -56l41 57l47 -34l-47 -66q50 -71 50 -165v-178q0 -120 -71 -193q-71 -72 -189 -72q-110 0 -178 62l-42 -60l-45 33l50 71q-44 67 -44 159v178q0 112 67 188t192 76zM441 256v187q0 27 -7 47l-236 -334q37 -49 106 -49q62 0 99.5 41.5t37.5 107.5z
M304 587q-66 0 -102 -43q-35 -43 -35 -101v-187q0 -25 4 -40l232 330q-38 41 -99 41z" />
    <glyph glyph-name="Ugrave" unicode="&#xd9;" horiz-adv-x="638" 
d="M579 696v-449q0 -113 -73 -183q-74 -69 -187 -69q-117 0 -188 72q-71 74 -71 185v444h120v-435q0 -67 38.5 -110t101.5 -43q64 0 100.5 39t36.5 109v440h122zM210 916l165 -125l-47 -56l-192 97z" />
    <glyph glyph-name="Uacute" unicode="&#xda;" horiz-adv-x="638" 
d="M579 696v-449q0 -113 -73 -183q-74 -69 -187 -69q-117 0 -188 72q-71 74 -71 185v444h120v-435q0 -67 38.5 -110t101.5 -43q64 0 100.5 39t36.5 109v440h122zM483 832l-192 -97l-47 56l165 125z" />
    <glyph glyph-name="Ucircumflex" unicode="&#xdb;" horiz-adv-x="638" 
d="M579 696v-449q0 -113 -73 -183q-74 -69 -187 -69q-117 0 -188 72q-71 74 -71 185v444h120v-435q0 -67 38.5 -110t101.5 -43q64 0 100.5 39t36.5 109v440h122zM505 782l-40 -49l-147 82l-147 -82l-38 48l149 124h76z" />
    <glyph glyph-name="Udieresis" unicode="&#xdc;" horiz-adv-x="638" 
d="M579 696v-449q0 -113 -73 -183q-74 -69 -187 -69q-117 0 -188 72q-71 74 -71 185v444h120v-435q0 -67 38.5 -110t101.5 -43q64 0 100.5 39t36.5 109v440h122zM480 868v-111h-120v111h120zM283 868v-111h-121v111h121z" />
    <glyph glyph-name="Yacute" unicode="&#xdd;" horiz-adv-x="557" 
d="M425 696h128l-217 -410v-286h-115v286l-217 410h129l84 -172l61 -134h2l62 137zM450 832l-192 -97l-47 56l165 125z" />
    <glyph glyph-name="Thorn" unicode="&#xde;" horiz-adv-x="591" 
d="M581 352q0 -86 -65 -149q-65 -62 -163 -62h-159v-141h-121l-1 695h122v-125h145q104 0 173 -57t69 -161zM458 355q0 51 -30.5 78t-84.5 27h-149v-209h153q49 0 80 30t31 74z" />
    <glyph glyph-name="germandbls" unicode="&#xdf;" horiz-adv-x="542" 
d="M493 236q0 -91 -43 -158q-51 -79 -170 -79h-34v94h29q45 0 72.5 39t27.5 101q0 48 -21 87q-21 40 -68 40h-22v92h21q37 0 53 28q17 29 17 57q0 38 -23.5 66t-63.5 28q-46 0 -69.5 -28.5t-23.5 -72.5v-530h-113v527q0 92 56 146t150 54t144 -54q51 -53 51 -124
q0 -39 -21 -79q-20 -40 -54 -57v-1q55 -16 80 -67q25 -49 25 -109z" />
    <glyph glyph-name="agrave" unicode="&#xe0;" horiz-adv-x="499" 
d="M245 500q205 0 205 -164v-336h-113v44q-1 1 -2 1q-38 -50 -129 -50q-81 0 -126 39t-45 110q0 65 45.5 107t122.5 42h134v36q0 71 -98 71q-74 0 -118 -41l-60 76q65 65 184 65zM142 152q0 -28 22 -44.5t66 -16.5q98 0 106 69q1 5 1 47h-115q-80 0 -80 -55zM232 759
l82 -186l-67 -29l-123 179z" />
    <glyph glyph-name="aacute" unicode="&#xe1;" horiz-adv-x="499" 
d="M245 500q205 0 205 -164v-336h-113v44q-1 1 -2 1q-38 -50 -129 -50q-81 0 -126 39t-45 110q0 65 45.5 107t122.5 42h134v36q0 71 -98 71q-74 0 -118 -41l-60 76q65 65 184 65zM142 152q0 -28 22 -44.5t66 -16.5q98 0 106 69q1 5 1 47h-115q-80 0 -80 -55zM399 725
l-118 -181l-68 25l79 190z" />
    <glyph glyph-name="acircumflex" unicode="&#xe2;" horiz-adv-x="499" 
d="M245 500q205 0 205 -164v-336h-113v44q-1 1 -2 1q-38 -50 -129 -50q-81 0 -126 39t-45 110q0 65 45.5 107t122.5 42h134v36q0 71 -98 71q-74 0 -118 -41l-60 76q65 65 184 65zM435 581l-48 -44l-139 105l-68 -52q-65 -48 -72 -53l-46 43l149 154h78zM142 152
q0 -28 22 -44.5t66 -16.5q98 0 106 69q1 5 1 47h-115q-80 0 -80 -55z" />
    <glyph glyph-name="atilde" unicode="&#xe3;" horiz-adv-x="499" 
d="M245 500q205 0 205 -164v-336h-113v44q-1 1 -2 1q-38 -50 -129 -50q-81 0 -126 39t-45 110q0 65 45.5 107t122.5 42h134v36q0 71 -98 71q-74 0 -118 -41l-60 76q65 65 184 65zM187 705q27 0 73 -24t60 -24q31 0 64 47l60 -35q-46 -99 -114 -99q-26 0 -74 23t-64 23
q-33 0 -69 -45l-57 33q50 101 121 101zM142 152q0 -28 22 -44.5t66 -16.5q98 0 106 69q1 5 1 47h-115q-80 0 -80 -55z" />
    <glyph glyph-name="adieresis" unicode="&#xe4;" horiz-adv-x="499" 
d="M245 500q205 0 205 -164v-336h-113v44q-1 1 -2 1q-38 -50 -129 -50q-81 0 -126 39t-45 110q0 65 45.5 107t122.5 42h134v36q0 71 -98 71q-74 0 -118 -41l-60 76q65 65 184 65zM142 152q0 -28 22 -44.5t66 -16.5q98 0 106 69q1 5 1 47h-115q-80 0 -80 -55zM212 692v-109
h-119v109h119zM411 692v-109h-118v109h118z" />
    <glyph glyph-name="aring" unicode="&#xe5;" horiz-adv-x="499" 
d="M245 500q205 0 205 -164v-336h-113v44q-1 1 -2 1q-38 -50 -129 -50q-81 0 -126 39t-45 110q0 65 45.5 107t122.5 42h134v36q0 71 -98 71q-74 0 -118 -41l-60 76q65 65 184 65zM149 643q0 45 32.5 76.5t79.5 31.5q46 0 78.5 -31.5t32.5 -76.5t-33 -76q-31 -31 -78 -31
t-79 31q-33 31 -33 76zM142 152q0 -28 22 -44.5t66 -16.5q98 0 106 69q1 5 1 47h-115q-80 0 -80 -55zM261 597q19 0 33 13.5t14 32.5t-13.5 32.5t-33.5 13.5t-34 -13.5t-14 -32.5t14 -32.5t34 -13.5z" />
    <glyph glyph-name="ae" unicode="&#xe6;" horiz-adv-x="816" 
d="M774 249v-34h-315q2 -40 17 -68q30 -50 97 -50q57 0 107 45l70 -78q-74 -69 -180 -69q-116 0 -175 71q-59 -71 -179 -71q-81 0 -128.5 39.5t-47.5 109.5q0 65 45.5 107t122.5 42h134v36q0 74 -100 74q-80 0 -120 -43l-58 73q58 67 179 67q127 0 173 -57q52 57 141 57
q106 0 161 -70q56 -71 56 -181zM147 152q0 -28 22 -44.5t66 -16.5q107 0 107 94v23h-115q-80 0 -80 -56zM461 295h196q-3 48 -29.5 75.5t-67.5 27.5q-42 0 -68.5 -27.5t-30.5 -75.5z" />
    <glyph glyph-name="ccedilla" unicode="&#xe7;" horiz-adv-x="447" 
d="M356 145l74 -78q-74 -71 -172 -73l-9 -31q48 -4 73 -28.5t25 -58.5q0 -37 -31 -63t-83 -26q-57 0 -100 24l21 52q33 -16 72 -16q44 0 44 33q0 32 -43 32q-3 0 -17 -2l-30 20l22 69q-80 15 -127 79t-47 169q0 126 67 189q67 64 164 64q99 0 169 -70l-73 -79q-43 46 -94 46
q-117 0 -117 -150q0 -149 116 -149q49 0 96 47z" />
    <glyph glyph-name="egrave" unicode="&#xe8;" horiz-adv-x="507" 
d="M466 264v-49h-312q0 -52 27.5 -85.5t77.5 -33.5q27 0 60.5 12.5t56.5 34.5l33 -40l33 -39q-74 -70 -187 -70q-34 0 -63.5 6.5t-58.5 24t-49.5 45t-33.5 73t-13 103.5q0 139 70 199q62 56 146 56q99 0 156 -64t57 -173zM156 295h190q-3 48 -28.5 75.5t-65.5 27.5
q-39 0 -65.5 -28t-30.5 -75zM234 759l82 -186l-67 -29l-123 179z" />
    <glyph glyph-name="eacute" unicode="&#xe9;" horiz-adv-x="507" 
d="M466 264v-49h-312q0 -52 27.5 -85.5t77.5 -33.5q27 0 60.5 12.5t56.5 34.5l33 -40l33 -39q-74 -70 -187 -70q-34 0 -63.5 6.5t-58.5 24t-49.5 45t-33.5 73t-13 103.5q0 139 70 199q62 56 146 56q99 0 156 -64t57 -173zM156 295h190q-3 48 -28.5 75.5t-65.5 27.5
q-39 0 -65.5 -28t-30.5 -75zM384 725l-118 -181l-68 25l79 190z" />
    <glyph glyph-name="ecircumflex" unicode="&#xea;" horiz-adv-x="507" 
d="M466 264v-49h-312q0 -52 27.5 -85.5t77.5 -33.5q27 0 60.5 12.5t56.5 34.5l33 -40l33 -39q-74 -70 -187 -70q-34 0 -63.5 6.5t-58.5 24t-49.5 45t-33.5 73t-13 103.5q0 139 70 199q62 56 146 56q99 0 156 -64t57 -173zM156 295h190q-3 48 -28.5 75.5t-65.5 27.5
q-39 0 -65.5 -28t-30.5 -75zM445 581l-48 -44l-139 105l-68 -52q-65 -48 -72 -53l-46 43l149 154h78z" />
    <glyph glyph-name="edieresis" unicode="&#xeb;" horiz-adv-x="507" 
d="M466 264v-49h-312q0 -52 27.5 -85.5t77.5 -33.5q27 0 60.5 12.5t56.5 34.5l33 -40l33 -39q-74 -70 -187 -70q-34 0 -63.5 6.5t-58.5 24t-49.5 45t-33.5 73t-13 103.5q0 139 70 199q62 56 146 56q99 0 156 -64t57 -173zM156 295h190q-3 48 -28.5 75.5t-65.5 27.5
q-39 0 -65.5 -28t-30.5 -75zM415 692v-109h-118v109h118zM216 692v-109h-119v109h119z" />
    <glyph glyph-name="igrave" unicode="&#xec;" horiz-adv-x="235" 
d="M175 495v-495h-115v495h115zM77 759l82 -186l-67 -29l-123 179z" />
    <glyph glyph-name="iacute" unicode="&#xed;" horiz-adv-x="235" 
d="M175 495v-495h-115v495h115zM258 725l-118 -181l-68 25l79 190z" />
    <glyph glyph-name="icircumflex" unicode="&#xee;" horiz-adv-x="333" 
d="M353 581l-48 -44l-139 105l-68 -52q-65 -48 -72 -53l-46 43l149 154h78zM222 495v-495h-115v495h115z" />
    <glyph glyph-name="idieresis" unicode="&#xef;" horiz-adv-x="278" 
d="M298 692v-109h-118v109h118zM99 692v-109h-119v109h119zM197 495v-495h-115v495h115z" />
    <glyph glyph-name="eth" unicode="&#xf0;" horiz-adv-x="514" 
d="M251 476q35 -1 71 -18.5t53 -44.5l4 1q-1 97 -37 142l-55 -43l-33 44l51 40q-44 39 -132 53l17 89q128 -10 197 -79l69 55l35 -41l-65 -54q36 -51 49 -121t13 -188q0 -163 -70 -245q-63 -73 -174 -73q-54 0 -98.5 22t-69.5 59q-37 56 -38 145q-5 90 29 153
q54 104 184 104zM253 373q-57 0 -84 -51q-14 -29 -16 -101q0 -44 13 -71q26 -54 85 -54q54 0 81 44q21 30 21 102q0 39 -10 66q-21 65 -90 65z" />
    <glyph glyph-name="ntilde" unicode="&#xf1;" horiz-adv-x="529" 
d="M470 325v-325h-113v294q0 100 -91 100q-42 0 -68.5 -27.5t-26.5 -72.5v-294h-113v496h113v-52h2q50 56 129 56t123.5 -45.5t44.5 -129.5zM183 705q27 0 73 -24t60 -24q31 0 64 47l60 -35q-46 -99 -114 -99q-26 0 -74 23t-64 23q-33 0 -69 -45l-57 33q50 101 121 101z" />
    <glyph glyph-name="ograve" unicode="&#xf2;" horiz-adv-x="515" 
d="M266 501q116 0 172 -83q38 -59 36 -163q0 -110 -34 -168q-27 -45 -76 -69.5t-110 -24.5q-118 0 -171 78q-40 61 -39 176q0 90 25 140q25 54 77 84t120 30zM262 399q-61 0 -87 -56q-16 -34 -17 -97q0 -65 15 -95q24 -55 84 -55q70 0 93 71q9 29 9 88q0 60 -13 87
q-22 57 -84 57zM242 759l82 -186l-67 -29l-123 179z" />
    <glyph glyph-name="oacute" unicode="&#xf3;" horiz-adv-x="515" 
d="M266 501q116 0 172 -83q38 -59 36 -163q0 -110 -34 -168q-27 -45 -76 -69.5t-110 -24.5q-118 0 -171 78q-40 61 -39 176q0 90 25 140q25 54 77 84t120 30zM262 399q-61 0 -87 -56q-16 -34 -17 -97q0 -65 15 -95q24 -55 84 -55q70 0 93 71q9 29 9 88q0 60 -13 87
q-22 57 -84 57zM405 725l-118 -181l-68 25l79 190z" />
    <glyph glyph-name="ocircumflex" unicode="&#xf4;" horiz-adv-x="515" 
d="M266 501q116 0 172 -83q38 -59 36 -163q0 -110 -34 -168q-27 -45 -76 -69.5t-110 -24.5q-118 0 -171 78q-40 61 -39 176q0 90 25 140q25 54 77 84t120 30zM262 399q-61 0 -87 -56q-16 -34 -17 -97q0 -65 15 -95q24 -55 84 -55q70 0 93 71q9 29 9 88q0 60 -13 87
q-22 57 -84 57zM447 581l-48 -44l-139 105l-68 -52q-65 -48 -72 -53l-46 43l149 154h78z" />
    <glyph glyph-name="otilde" unicode="&#xf5;" horiz-adv-x="515" 
d="M266 501q116 0 172 -83q38 -59 36 -163q0 -110 -34 -168q-27 -45 -76 -69.5t-110 -24.5q-118 0 -171 78q-40 61 -39 176q0 90 25 140q25 54 77 84t120 30zM262 399q-61 0 -87 -56q-16 -34 -17 -97q0 -65 15 -95q24 -55 84 -55q70 0 93 71q9 29 9 88q0 60 -13 87
q-22 57 -84 57zM196 705q26 0 73 -24t60 -24q31 0 64 47l60 -35q-47 -99 -114 -99q-26 0 -74 23t-64 23q-33 0 -69 -45l-57 33q50 101 121 101z" />
    <glyph glyph-name="odieresis" unicode="&#xf6;" horiz-adv-x="515" 
d="M266 501q116 0 172 -83q38 -59 36 -163q0 -110 -34 -168q-27 -45 -76 -69.5t-110 -24.5q-118 0 -171 78q-40 61 -39 176q0 90 25 140q25 54 77 84t120 30zM262 399q-61 0 -87 -56q-16 -34 -17 -97q0 -65 15 -95q24 -55 84 -55q70 0 93 71q9 29 9 88q0 60 -13 87
q-22 57 -84 57zM417 692v-109h-118v109h118zM218 692v-109h-119v109h119z" />
    <glyph glyph-name="divide" unicode="&#xf7;" horiz-adv-x="525" 
d="M265 419q-31 0 -52.5 20.5t-21.5 49.5t21.5 50t52.5 21q30 0 51.5 -21t21.5 -50t-21.5 -49.5t-51.5 -20.5zM506 341v-90h-483v90h483zM265 28q-31 0 -52.5 20.5t-21.5 49.5t21.5 49.5t52.5 20.5q30 0 51.5 -20.5t21.5 -49.5t-21.5 -49.5t-51.5 -20.5z" />
    <glyph glyph-name="oslash" unicode="&#xf8;" horiz-adv-x="515" 
d="M266 501q79 0 133 -42l42 54l36 -28l-46 -58l7 -9q38 -59 36 -163q0 -110 -34 -168q-27 -45 -76 -69.5t-110 -24.5q-83 0 -135 40l-39 -49l-34 27l42 53q-3 3 -5 7q-40 61 -39 176q0 90 25 140q25 54 77 84t120 30zM262 399q-61 0 -87 -56q-16 -34 -17 -97q0 -56 9 -81
l162 206q-25 28 -67 28zM359 255q0 40 -8 72l-161 -204q27 -27 67 -27q70 0 93 71q9 29 9 88z" />
    <glyph glyph-name="ugrave" unicode="&#xf9;" horiz-adv-x="533" 
d="M59 170v325h112v-295q0 -52 22 -76.5t70 -24.5q42 0 68.5 28t26.5 73v295h113v-495h-113v49h-3q-45 -55 -126 -55t-125.5 44.5t-44.5 131.5zM240 759l82 -186l-67 -29l-123 179z" />
    <glyph glyph-name="uacute" unicode="&#xfa;" horiz-adv-x="533" 
d="M59 170v325h112v-295q0 -52 22 -76.5t70 -24.5q42 0 68.5 28t26.5 73v295h113v-495h-113v49h-3q-45 -55 -126 -55t-125.5 44.5t-44.5 131.5zM401 725l-118 -181l-68 25l79 190z" />
    <glyph glyph-name="ucircumflex" unicode="&#xfb;" horiz-adv-x="533" 
d="M59 170v325h112v-295q0 -52 22 -76.5t70 -24.5q42 0 68.5 28t26.5 73v295h113v-495h-113v49h-3q-45 -55 -126 -55t-125.5 44.5t-44.5 131.5zM450 581l-48 -44l-139 105l-68 -52q-65 -48 -72 -53l-46 43l149 154h78z" />
    <glyph glyph-name="udieresis" unicode="&#xfc;" horiz-adv-x="533" 
d="M59 170v325h112v-295q0 -52 22 -76.5t70 -24.5q42 0 68.5 28t26.5 73v295h113v-495h-113v49h-3q-45 -55 -126 -55t-125.5 44.5t-44.5 131.5zM416 692v-109h-118v109h118zM217 692v-109h-119v109h119z" />
    <glyph glyph-name="yacute" unicode="&#xfd;" horiz-adv-x="470" 
d="M351 495h119l-218 -595q-37 -100 -144 -100h-42v95h31q41 0 60 52l25 78l-182 470h122l64 -182l49 -156h4l49 154zM382 725l-118 -181l-68 25l79 190z" />
    <glyph glyph-name="thorn" unicode="&#xfe;" horiz-adv-x="524" 
d="M60 -200v912h112v-261l3 -1q45 50 116 50q184 0 184 -256q0 -97 -37 -168q-43 -82 -157 -82q-60 0 -107 47h-2v-241h-112zM172 246q0 -146 93 -146q24 0 41.5 9t27.5 23t15.5 34.5t7 38.5t1.5 41q0 48 -9 79q-16 69 -84 69q-93 0 -93 -148z" />
    <glyph glyph-name="ydieresis" unicode="&#xff;" horiz-adv-x="470" 
d="M351 495h119l-218 -595q-37 -100 -144 -100h-42v95h31q41 0 60 52l25 78l-182 470h122l64 -182l49 -156h4l49 154zM395 692v-109h-118v109h118zM196 692v-109h-119v109h119z" />
    <glyph glyph-name="Amacron" unicode="&#x100;" horiz-adv-x="629" 
d="M363 696l263 -696h-128l-55 154h-258l-56 -154h-127l263 696h98zM220 257h187l-46 141l-46 143h-3l-45 -140zM465 866v-97h-301v97h301z" />
    <glyph glyph-name="amacron" unicode="&#x101;" horiz-adv-x="499" 
d="M245 500q205 0 205 -164v-336h-113v44q-1 1 -2 1q-38 -50 -129 -50q-81 0 -126 39t-45 110q0 65 45.5 107t122.5 42h134v36q0 71 -98 71q-74 0 -118 -41l-60 76q65 65 184 65zM405 686v-97h-301v97h301zM142 152q0 -28 22 -44.5t66 -16.5q98 0 106 69q1 5 1 47h-115
q-80 0 -80 -55z" />
    <glyph glyph-name="Abreve" unicode="&#x102;" horiz-adv-x="629" 
d="M363 696l263 -696h-128l-55 154h-258l-56 -154h-127l263 696h98zM220 257h187l-46 141l-46 143h-3l-45 -140zM314 731q-75 0 -111 45q-35 45 -39 100h87q1 -25 19 -45t44 -20q28 0 46 20t18 45h86q-3 -25 -11 -47.5t-24 -46t-45.5 -37.5t-69.5 -14z" />
    <glyph glyph-name="abreve" unicode="&#x103;" horiz-adv-x="499" 
d="M245 500q205 0 205 -164v-336h-113v44q-1 1 -2 1q-38 -50 -129 -50q-81 0 -126 39t-45 110q0 65 45.5 107t122.5 42h134v36q0 71 -98 71q-74 0 -118 -41l-60 76q65 65 184 65zM263 564q-75 0 -111 45q-35 47 -39 101h87q1 -25 19 -45.5t44 -20.5q29 0 46.5 20t17.5 46h86
q-3 -24 -10.5 -47t-23.5 -46.5t-46 -38t-70 -14.5zM142 152q0 -28 22 -44.5t66 -16.5q98 0 106 69q1 5 1 47h-115q-80 0 -80 -55z" />
    <glyph glyph-name="Aogonek" unicode="&#x104;" horiz-adv-x="629" 
d="M457 -98q0 43 40 99l-54 153h-258l-56 -154h-127l263 696h98l263 -696h-52q-38 -53 -38 -83q0 -35 40 -35q25 0 61 14l23 -60q-46 -27 -97 -27q-45 0 -75.5 27t-30.5 66zM220 257h187l-46 141l-46 143h-3l-45 -140z" />
    <glyph glyph-name="aogonek" unicode="&#x105;" horiz-adv-x="499" 
d="M297 -98q0 43 40 98v44q-1 1 -2 1q-38 -50 -129 -50q-81 0 -126 39t-45 110q0 65 45.5 107t122.5 42h134v36q0 71 -98 71q-74 0 -118 -41l-60 76q65 65 184 65q205 0 205 -164v-336h-36q-38 -53 -38 -83q0 -35 40 -35q25 0 61 14l23 -60q-46 -27 -97 -27q-45 0 -75.5 27
t-30.5 66zM142 152q0 -28 22 -44.5t66 -16.5q98 0 106 69q1 5 1 47h-115q-80 0 -80 -55z" />
    <glyph glyph-name="Cacute" unicode="&#x106;" horiz-adv-x="572" 
d="M436 204l115 -48q-26 -76 -90.5 -119t-153.5 -43q-125 0 -193 74q-66 74 -66 191v178q0 112 67 188t192 76q88 0 152 -43t91 -119l-114 -45q-13 43 -47 67.5t-82 24.5q-66 0 -102 -43q-35 -43 -35 -101v-185q0 -62 35 -106q36 -43 102 -43q48 0 82 25.5t47 70.5zM445 832
l-192 -97l-47 56l165 125z" />
    <glyph glyph-name="cacute" unicode="&#x107;" horiz-adv-x="447" 
d="M356 145l74 -78q-76 -73 -175 -73q-97 0 -162 63q-65 65 -65 190q0 126 67 189q67 64 164 64q99 0 169 -70l-73 -79q-43 46 -94 46q-117 0 -117 -150q0 -149 116 -149q49 0 96 47zM374 725l-118 -181l-68 25l79 190z" />
    <glyph glyph-name="Ccircumflex" unicode="&#x108;" horiz-adv-x="572" 
d="M436 204l115 -48q-26 -76 -90.5 -119t-153.5 -43q-125 0 -193 74q-66 74 -66 191v178q0 112 67 188t192 76q88 0 152 -43t91 -119l-114 -45q-13 43 -47 67.5t-82 24.5q-66 0 -102 -43q-35 -43 -35 -101v-185q0 -62 35 -106q36 -43 102 -43q48 0 82 25.5t47 70.5zM491 782
l-40 -49l-147 82l-147 -82l-38 48l149 124h76z" />
    <glyph glyph-name="ccircumflex" unicode="&#x109;" horiz-adv-x="447" 
d="M356 145l74 -78q-76 -73 -175 -73q-97 0 -162 63q-65 65 -65 190q0 126 67 189q67 64 164 64q99 0 169 -70l-73 -79q-43 46 -94 46q-117 0 -117 -150q0 -149 116 -149q49 0 96 47zM435 581l-48 -44l-139 105l-68 -52q-65 -48 -72 -53l-46 43l149 154h78z" />
    <glyph glyph-name="Cdotaccent" unicode="&#x10a;" horiz-adv-x="572" 
d="M436 204l115 -48q-26 -76 -90.5 -119t-153.5 -43q-125 0 -193 74q-66 74 -66 191v178q0 112 67 188t192 76q88 0 152 -43t91 -119l-114 -45q-13 43 -47 67.5t-82 24.5q-66 0 -102 -43q-35 -43 -35 -101v-185q0 -62 35 -106q36 -43 102 -43q48 0 82 25.5t47 70.5zM366 867
v-109h-118v109h118z" />
    <glyph glyph-name="cdotaccent" unicode="&#x10b;" horiz-adv-x="447" 
d="M356 145l74 -78q-76 -73 -175 -73q-97 0 -162 63q-65 65 -65 190q0 126 67 189q67 64 164 64q99 0 169 -70l-73 -79q-43 46 -94 46q-117 0 -117 -150q0 -149 116 -149q49 0 96 47zM310 692v-109h-118v109h118z" />
    <glyph glyph-name="Ccaron" unicode="&#x10c;" horiz-adv-x="572" 
d="M436 204l115 -48q-26 -76 -90.5 -119t-153.5 -43q-125 0 -193 74q-66 74 -66 191v178q0 112 67 188t192 76q88 0 152 -43t91 -119l-114 -45q-13 43 -47 67.5t-82 24.5q-66 0 -102 -43q-35 -43 -35 -101v-185q0 -62 35 -106q36 -43 102 -43q48 0 82 25.5t47 70.5zM156 908
l147 -82l146 82l41 -49l-147 -124h-76l-150 125z" />
    <glyph glyph-name="ccaron" unicode="&#x10d;" horiz-adv-x="447" 
d="M356 145l74 -78q-76 -73 -175 -73q-97 0 -162 63q-65 65 -65 190q0 126 67 189q67 64 164 64q99 0 169 -70l-73 -79q-43 46 -94 46q-117 0 -117 -150q0 -149 116 -149q49 0 96 47zM180 680l68 -51l139 105l48 -44l-146 -153h-78l-149 154l46 43q14 -9 72 -54z" />
    </font>
</defs>
</svg>
